<?xml version="1.0" encoding="UTF-8" standalone="no"?>
<!-- Created with Inkscape (http://www.inkscape.org/) -->

<svg
   width="48"
   height="48"
   viewBox="0 0 12.7 12.7"
   version="1.1"
   id="svg1107"
   inkscape:version="1.1.2 (0a00cf5339, 2022-02-04)"
   sodipodi:docname="cnet.rfwaves.svg"
   xmlns:inkscape="http://www.inkscape.org/namespaces/inkscape"
   xmlns:sodipodi="http://sodipodi.sourceforge.net/DTD/sodipodi-0.dtd"
   xmlns="http://www.w3.org/2000/svg"
   xmlns:svg="http://www.w3.org/2000/svg">
  <sodipodi:namedview
     id="namedview1109"
     pagecolor="#ffffff"
     bordercolor="#666666"
     borderopacity="1.0"
     inkscape:pageshadow="2"
     inkscape:pageopacity="0.0"
     inkscape:pagecheckerboard="0"
     inkscape:document-units="mm"
     showgrid="false"
     units="px"
     inkscape:zoom="11.313709"
     inkscape:cx="26.693281"
     inkscape:cy="26.251339"
     inkscape:window-width="1920"
     inkscape:window-height="1015"
     inkscape:window-x="0"
     inkscape:window-y="0"
     inkscape:window-maximized="1"
     inkscape:current-layer="layer1"
     inkscape:lockguides="true" />
  <defs
     id="defs1104" />
  <g
     inkscape:label="Warstwa 1"
     inkscape:groupmode="layer"
     id="layer1">
    <g
       id="rfwaves"
       transform="matrix(1,0,0,0.11664268,0.15040769,5.6093191)">
      <g
         id="rfwave-right"
         transform="matrix(0.9870914,0,0,2.5099471,0.57703063,-9.5964963)"
         style="stroke-width:0.579429;stroke-miterlimit:4;stroke-dasharray:none">
        <path
           id="rfwave-right-inner"
           style="fill:#808080;fill-opacity:0.6;fill-rule:evenodd;stroke:none;stroke-width:2.32441;stroke-linecap:round;stroke-linejoin:round;stroke-miterlimit:4;stroke-dasharray:none;stroke-opacity:0.8"
           d="m 26.988281,10.732422 a 1.4806371,1.711919 0 0 0 -0.04492,0.175781 12.354549,13.490132 0 0 1 9.410157,13.097656 12.354549,13.490132 0 0 1 -9.41211,13.083985 1.4806371,1.711919 0 0 0 0.04102,0.171875 15.156676,13.534597 0 0 0 11.470703,-9.197266 15.091737,14.393546 0 0 0 0.638672,-4.058594 15.091737,14.393546 0 0 0 -0.666016,-4.154297 15.156676,13.534597 0 0 0 -11.4375,-9.11914 z"
           transform="matrix(0.2680434,0,0,0.23183048,-0.73695133,0.78479478)" />
        <path
           id="circle14735"
           style="fill:#808080;fill-opacity:0.6;fill-rule:evenodd;stroke:none;stroke-width:2.32441;stroke-linecap:round;stroke-linejoin:round;stroke-miterlimit:4;stroke-dasharray:none;stroke-opacity:0.8"
           d="m 27.679688,6.2226562 a 1.4806371,1.711919 0 0 0 -0.04883,0.203125 16.252097,18.037119 0 0 1 12.5,15.4003908 c 0.0012,0.01035 0.0027,0.02092 0.0039,0.03125 0.02207,0.189014 0.04036,0.37945 0.05664,0.570312 a 16.252097,18.037119 0 0 1 0,0.002 16.252097,18.037119 0 0 1 0,0.002 16.252097,18.037119 0 0 1 0,0.002 v 0.002 c 0.04397,0.517759 0.06639,1.040782 0.06641,1.570312 -3.87e-4,0.762261 -0.0481,1.513387 -0.138671,2.25 a 16.252097,18.037119 0 0 1 -0.0293,0.238282 c -4.03e-4,0.0029 -0.0015,0.0068 -0.002,0.0098 -0.06801,0.497078 -0.156729,0.984967 -0.263672,1.466797 A 16.252097,18.037119 0 0 1 27.628906,41.556641 1.4806371,1.711919 0 0 0 27.675781,41.765625 19.070671,18.118652 0 0 0 43.070312,24 19.070671,18.118652 0 0 0 27.679688,6.2226562 Z"
           transform="matrix(0.2680434,0,0,0.23183048,-0.73695133,0.78479478)" />
        <path
           id="circle14739"
           style="fill:#808080;fill-opacity:0.6;fill-rule:evenodd;stroke:none;stroke-width:2.32441;stroke-linecap:round;stroke-linejoin:round;stroke-miterlimit:4;stroke-dasharray:none;stroke-opacity:0.8"
           d="m 28.361328,1.6992188 a 1.4806371,1.711919 0 0 0 -0.02148,0.068359 20.301057,22.765073 0 0 1 15.960937,22.2382812 20.301057,22.765073 0 0 1 -15.966797,22.195313 1.4806371,1.711919 0 0 0 0.02539,0.08594 A 22.850135,22.720784 0 0 0 46.849609,24 22.850135,22.720784 0 0 0 28.361328,1.6992188 Z"
           transform="matrix(0.2680434,0,0,0.23183048,-0.73695133,0.78479478)" />
      </g>
      <g
         id="rfwawe-left"
         transform="matrix(-0.9870914,0,0,2.5099471,11.822154,-9.5990505)"
         style="stroke-width:0.579429;stroke-miterlimit:4;stroke-dasharray:none">
        <path
           id="rfwave-left-inner"
           style="fill:#808080;fill-opacity:0.6;fill-rule:evenodd;stroke:none;stroke-width:2.32441;stroke-linecap:round;stroke-linejoin:round;stroke-miterlimit:4;stroke-dasharray:none;stroke-opacity:0.8"
           d="m 21.021484,10.738281 a 15.156676,13.534597 0 0 0 -11.4667965,9.175781 15.091737,14.393546 0 0 0 -0.6464844,4.087891 15.091737,14.393546 0 0 0 0.6445313,4.080078 15.156676,13.534597 0 0 0 11.4628906,9.179688 1.4806371,1.711919 0 0 0 0.04297,-0.175781 12.354549,13.490132 0 0 1 -9.41211,-13.083985 12.354549,13.490132 0 0 1 9.417969,-13.087891 1.4806371,1.711919 0 0 0 -0.04297,-0.175781 z"
           transform="matrix(-0.2680434,0,0,0.23183048,12.129132,0.78581242)" />
        <path
           id="rfvawe-left-mid"
           style="fill:#808080;fill-opacity:0.6;fill-rule:evenodd;stroke:none;stroke-width:2.32441;stroke-linecap:round;stroke-linejoin:round;stroke-miterlimit:4;stroke-dasharray:none;stroke-opacity:0.8"
           d="M 20.330078,6.2324219 A 19.070671,18.118652 0 0 0 4.9296875,24 19.070671,18.118652 0 0 0 20.314453,41.763672 1.4806371,1.711919 0 0 0 20.357422,41.580078 16.252097,18.037119 0 0 1 7.8945312,26.351562 c -0.098962,-0.769188 -0.1519375,-1.55215 -0.1523437,-2.349609 2.22e-5,-0.812367 0.055958,-1.611534 0.1582031,-2.394531 A 16.252097,18.037119 0 0 1 20.375,6.4179688 1.4806371,1.711919 0 0 0 20.330078,6.2324219 Z"
           transform="matrix(-0.2680434,0,0,0.23183048,12.129132,0.78581242)" />
        <path
           id="rfwave-left-outer"
           style="fill:#808080;fill-opacity:0.6;fill-rule:evenodd;stroke:none;stroke-width:2.32441;stroke-linecap:round;stroke-linejoin:round;stroke-miterlimit:4;stroke-dasharray:none;stroke-opacity:0.8"
           d="M 19.650391,1.7109375 A 22.850135,22.720784 0 0 0 1.1503906,24 22.850135,22.720784 0 0 0 19.640625,46.287109 1.4806371,1.711919 0 0 0 19.666016,46.195312 20.301057,22.765073 0 0 1 3.6992188,24.001953 20.301057,22.765073 0 0 1 19.677734,1.8046875 a 1.4806371,1.711919 0 0 0 -0.02734,-0.09375 z"
           transform="matrix(-0.2680434,0,0,0.23183048,12.129132,0.78581242)" />
      </g>
      <ellipse
         style="fill:#808080;fill-opacity:0.6;fill-rule:evenodd;stroke:none;stroke-width:0.193675;stroke-linecap:round;stroke-linejoin:round;stroke-miterlimit:4;stroke-dasharray:none;stroke-opacity:0.8"
         id="rfwaves-origin"
         cx="6.2791739"
         cy="6.3499999"
         rx="0.79374999"
         ry="6.8049707" />
    </g>
  </g>
</svg>
