<?xml version="1.0" encoding="UTF-8" standalone="no"?>
<!-- Generator: Adobe Illustrator 16.0.0, SVG Export Plug-In . SVG Version: 6.00 Build 0)  -->

<svg
   version="1.1"
   id="Capa_1"
   x="0px"
   y="0px"
   width="473.98901"
   height="600.98901"
   viewBox="0 0 473.989 600.989"
   xml:space="preserve"
   sodipodi:docname="cnet.trafficlights.svg"
   inkscape:version="1.1.2 (0a00cf5339, 2022-02-04)"
   xmlns:inkscape="http://www.inkscape.org/namespaces/inkscape"
   xmlns:sodipodi="http://sodipodi.sourceforge.net/DTD/sodipodi-0.dtd"
   xmlns="http://www.w3.org/2000/svg"
   xmlns:svg="http://www.w3.org/2000/svg"><defs
   id="defs14" /><sodipodi:namedview
   id="namedview12"
   pagecolor="#ffffff"
   bordercolor="#666666"
   borderopacity="1.0"
   inkscape:pageshadow="2"
   inkscape:pageopacity="0.0"
   inkscape:pagecheckerboard="0"
   showgrid="false"
   height="600.98901px"
   inkscape:zoom="0.48036637"
   inkscape:cx="-501.7004"
   inkscape:cy="276.872"
   inkscape:window-width="1920"
   inkscape:window-height="1015"
   inkscape:window-x="0"
   inkscape:window-y="0"
   inkscape:window-maximized="1"
   inkscape:current-layer="Capa_1" />
	<g
   id="traffic-lights">
		<path
   d="m 236.995,280.944 c -22.994,0 -42.044,-17.152 -45.061,-39.332 -0.273,2.016 -0.428,4.067 -0.428,6.155 0,25.082 20.406,45.488 45.488,45.488 25.083,0 45.487,-20.406 45.487,-45.488 0,-2.088 -0.153,-4.141 -0.428,-6.155 -3.014,22.18 -22.064,39.332 -45.058,39.332 z"
   id="path2" />
		<path
   d="m 236.995,127.028 c -22.994,0 -42.044,-17.152 -45.061,-39.332 -0.273,2.016 -0.428,4.068 -0.428,6.156 0,25.082 20.406,45.488 45.488,45.488 25.083,0 45.487,-20.406 45.487,-45.488 0,-2.088 -0.153,-4.141 -0.428,-6.156 -3.014,22.18 -22.064,39.332 -45.058,39.332 z"
   id="path4" />
		<path
   d="m 236.995,434.86 c -22.994,0 -42.044,-17.152 -45.061,-39.332 -0.273,2.016 -0.428,4.067 -0.428,6.156 0,25.082 20.406,45.487 45.488,45.487 25.083,0 45.487,-20.405 45.487,-45.487 0,-2.089 -0.153,-4.142 -0.428,-6.156 -3.014,22.18 -22.064,39.332 -45.058,39.332 z"
   id="path6" />
		<path
   d="M 399.368,87.628 V 54.538 H 323.953 V 21.548 H 309.506 V 20.523 C 309.505,9.189 300.318,0 288.984,0 H 185.007 c -11.335,0 -20.522,9.189 -20.522,20.523 v 1.025 h -14.447 v 32.99 H 74.622 v 33.09 c 12.904,20.924 49.832,33.551 75.415,40.035 v 80.791 H 74.622 v 33.09 c 12.904,20.925 49.832,33.552 75.415,40.035 V 362.37 H 74.622 v 33.09 c 12.904,20.924 49.832,33.551 75.415,40.035 v 38.494 h 173.916 v -38.494 c 25.583,-6.484 62.511,-19.111 75.415,-40.035 v -33.09 h -75.415 v -80.791 c 25.583,-6.483 62.511,-19.11 75.415,-40.035 v -33.09 h -75.415 v -80.791 c 25.583,-6.484 62.51,-19.111 75.415,-40.035 z M 236.995,457.432 c -30.789,0 -55.749,-24.959 -55.749,-55.747 0,-30.79 24.96,-55.749 55.749,-55.749 30.789,0 55.749,24.959 55.749,55.749 0,30.788 -24.96,55.747 -55.749,55.747 z m 0,-153.916 c -30.789,0 -55.749,-24.959 -55.749,-55.748 0,-30.789 24.96,-55.748 55.749,-55.748 30.789,0 55.749,24.959 55.749,55.748 0,30.789 -24.96,55.748 -55.749,55.748 z m 0,-153.455 c -30.789,0 -55.749,-24.959 -55.749,-55.748 0,-30.789 24.96,-55.748 55.749,-55.748 30.789,0 55.749,24.959 55.749,55.748 0,30.789 -24.96,55.748 -55.749,55.748 z"
   id="path8" />
	</g>
<rect
   style="fill:#000000;fill-opacity:1;fill-rule:evenodd;stroke:none;stroke-width:0.25;stroke-linecap:round;stroke-linejoin:round;stroke-opacity:0.8"
   id="rect853"
   width="87.75499"
   height="108.32404"
   x="193.117"
   y="478.69299" /><rect
   style="fill:#ffffff;fill-opacity:1;fill-rule:evenodd;stroke:none;stroke-width:0.25;stroke-linecap:round;stroke-linejoin:round;stroke-opacity:0.8"
   id="rect1125"
   width="45.42532"
   height="4.5238647"
   x="220.93921"
   y="574.09125" /></svg>
