<?xml version="1.0" encoding="UTF-8" standalone="no"?>
<svg
   id="Layer_1"
   data-name="Layer 1"
   viewBox="0 0 1260.9 395.63"
   version="1.1"
   sodipodi:docname="cnet.car.svg"
   inkscape:version="1.1.2 (0a00cf5339, 2022-02-04)"
   xmlns:inkscape="http://www.inkscape.org/namespaces/inkscape"
   xmlns:sodipodi="http://sodipodi.sourceforge.net/DTD/sodipodi-0.dtd"
   xmlns="http://www.w3.org/2000/svg"
   xmlns:svg="http://www.w3.org/2000/svg">
  <defs
     id="defs13" />
  <sodipodi:namedview
     id="namedview11"
     pagecolor="#ffffff"
     bordercolor="#666666"
     borderopacity="1.0"
     inkscape:pageshadow="2"
     inkscape:pageopacity="0.0"
     inkscape:pagecheckerboard="0"
     showgrid="false"
     inkscape:zoom="0.52779759"
     inkscape:cx="359.98648"
     inkscape:cy="344.82916"
     inkscape:window-width="1920"
     inkscape:window-height="1015"
     inkscape:window-x="0"
     inkscape:window-y="0"
     inkscape:window-maximized="1"
     inkscape:current-layer="Layer_1" />
  <path
     d="M763.45,218.66a48.11,48.11,0,0,1,14.12,2.17c-1.37-.12-2.73-.23-4.12-.23-29.46,0-53.34,25.7-53.34,57.4s23.88,57.39,53.34,57.39c1.39,0,2.75-.11,4.12-.22a48.11,48.11,0,0,1-14.12,2.17c-29.46,0-53.34-26.57-53.34-59.34S734,218.66,763.45,218.66Z"
     transform="translate(0 -0.31)"
     id="path2" />
  <path
     d="M188.79,226.64a28.6,28.6,0,0,1,15.34,4.63,23.27,23.27,0,0,0-8.37-1.64c-18.54,0-33.58,22.52-33.58,50.31s15,50.3,33.58,50.3a25.2,25.2,0,0,0,15.9-6c-6.37,6.86-14.27,11-22.87,11-21,0-38-24.31-38-54.29S167.78,226.64,188.79,226.64Z"
     transform="translate(0 -0.31)"
     id="path4" />
  <path
     d="M42.88,263.33s4.8,28.9,61.27,26.08l1.48.37c3.83,54.73,43.61,97.81,92.24,97.81h14.29c34.12,0,63.84-21.2,79.9-52.7h162C471.15,364.44,500.7,384,534.37,384s63.23-19.59,80.29-49.14H666.9c16.06,34.74,48.07,58.44,85,58.44h34.29c55.15,0,82.06-21.46,99.38-54.88h119.93c20.56,29,56.09,48.24,96.57,48.24,49.18,0,91.1-28.33,107.65-68.18l2.35-1.31s13.54-3.67,17.2-18.28c0,0-7.66,7.6-16.57,7.6H905.5a39,39,0,0,1-6.91-.8c-17.39-4.37-26.4-22.07-26.08-24.62,0,0,10,10.49,28,10.49h304.43s26.93-5.2,34.83-43.38c-2.35,3.16-5.46,5-8.53,4.49-5.17-.83-8.18-7.83-6.73-15.64s6.82-13.46,12-12.62a7.64,7.64,0,0,1,5.38,4.34,153.57,153.57,0,0,0-.59-17.41l-.23-1.28c7.43-1.75,13.72-8.92,17.32-18.91-4.86,6.85-12,11.1-19.78,10.73-13.43-.64-23.54-14.72-22.63-31.45s12.52-29.86,26-29.22a20.67,20.67,0,0,1,13.09,5.63c-3.43-5.84-8-10-13.09-11.53,0,0-81.44-39.84-192.31-27.89,0,0,121.79,35.75,154.13,93.93-13-11.74-29.83-18.17-47-21.2s-35.38-1.81-52.24,1.75c-16.74,3.78-32.46,11.48-43,23.54a65.76,65.76,0,0,0-12.34,20.19,68.37,68.37,0,0,0-3.49,11.26c-1,4.84,2.86,9.41,8.23,9.41h122s14.29,1.32,28.58-14.35c0,0-4.06,23.22-28.81,23.22h-129.1c-8.74,0-15.54-7.23-14.29-15.25.35-2,.75-3.93,1.2-5.53.63-2.17,1.09-4.35,1.89-6.53a52.56,52.56,0,0,1,2.46-6.32c3.65-8.29,8.4-16.37,15.08-22.95,13-13.66,31.32-21.73,49.67-25,18.51-2.93,37.26-3.14,55.43.85a94.34,94.34,0,0,1,25.78,9.35c-15.83-11.85-42-28-81.73-42.88C982.89,96.24,763.32,52.83,505.8,115.74l-4.2-2.58-24.32-37L463.33,54.91l-7-10.62L452.86,39c-.72-1.07-.74-1.24-1.12-1.83a10.91,10.91,0,0,1-.6-1.62c-1.35-4.42,1.62-9.85,6.63-11.27l1-.27,1.58-.33,3.23-.65L470,21.74c4.34-.79,8.66-1.64,13-2.34q26.07-4.45,52.51-7C570.71,9,606.28,8.13,641.57,11.05a437.43,437.43,0,0,1,52.52,7.37L707,21.33a38.08,38.08,0,0,1,6.14,1.7c2,.71,4,1.53,5.94,2.42C726.76,29.16,734,34,738.86,41c-3-8-10.07-14.41-17.9-18.71a47.37,47.37,0,0,0-12.67-5.14l-13-3.44a441.76,441.76,0,0,0-53-9.51C606.66-.09,570.49-.56,534.54,1.47q-27,1.61-53.77,5.13c-4.47.54-8.92,1.24-13.38,1.88l-6.68,1-3.34.54-1.7.28-2.29.53a25.45,25.45,0,0,0-14.8,10.57,22.81,22.81,0,0,0-3.22,17.23A23.64,23.64,0,0,0,436.72,43a38.25,38.25,0,0,0,2,3.68L442,52.1l6.61,10.83,13.23,21.65,10.07,16.48c-37.94-.12-174.82.64-247.18,17,25.61,6.75,41,20.83,47.55,28.11,16.36,2.64,40.65,4.38,76.39,3.09a291.63,291.63,0,0,1-54.33-13.94c56.52-35.62,122.12-.42,135.41,7.46,34.55-4,75.22-9.89,123.2-18.45,279.29-49.78,400.5,10.89,400.5,10.89s-58-17.37-174.42-14.87c46.52,10.47,78.3,53,87,85.38a93,93,0,0,0-7.14-6.11c-16.17-23-54.24-65.72-110.53-61.31-56.69,4.41-80.64,47.81-80.64,47.81s5.6-47.49,57.84-63.38c-48.53,1-102.76,9.56-165.45,20.88C377,176.73,280.33,170.57,255,167.86a59.14,59.14,0,0,1,14,43.45s-22.23-62.79-78.81-64.76c0,0-34.86-.48-58.92,22.74,0,0,19.42-46.91,95.59-37.53-7.59-3.82-26.1-6.73-26.1-6.73S92.55,105.7,40,174.5c-13.55,17.74-13.55,38.62-8.58,49.83,8.86,19.87,34.29,23.22,34.29,23.22s-27.49,8.34-42.17-7C23.57,240.59,19.51,257.69,42.88,263.33Zm910.77-26.47c1.63-8.74,8.3-15,14.91-13.89s10.65,9,9,17.74-8.3,14.95-14.91,13.89S952,245.59,953.65,236.86Zm-20.88-58.49a35.23,35.23,0,0,1,8.8-23.32,35.74,35.74,0,0,0-3.83,16,34.75,34.75,0,0,0,12.86,27.15,42.07,42.07,0,0,1-4.35-22.68c1.37-19.24,14-34.11,28-33.21s24.34,17.16,23,36.39c-1.31,17.75-14.92,34-31,34.22C947.74,213.12,932.77,197.45,932.77,178.37Zm128.35,140.39a55.14,55.14,0,0,0,51.09-1.14h27.43a57.85,57.85,0,0,1-78.52,1.14ZM698.45,278c0-38.52,28.63-69.7,63.95-69.7,24.86,0,46.35,15.51,56.92,38.09a88.29,88.29,0,0,1,9.37,39.79c0,43-29.66,77.94-66.23,77.94a58.62,58.62,0,0,1-12.23-1.38c.28,0,.51,0,.8,0,22.34,0,42.06-13.07,54.06-33-11.31,11.1-26.29,18-42.69,18C727.08,347.75,698.45,316.51,698.45,278Zm-36.18,1.81c0-62.75,44.3-113.59,98.93-113.59,44.52,0,82.18,33.79,94.58,80.22-15.14-41.12-51-70-92.92-70-54.07,0-98,48.13-100.41,108.49C662.39,283.2,662.27,281.5,662.27,279.8ZM355.06,312.09l285.76-15.72a50.08,50.08,0,0,0,1.42,15.72ZM126.61,280.33c0-41.71,24.74-75.55,55.32-75.55s55.38,33.84,55.38,75.55-24.81,75.54-55.38,75.54S126.61,322,126.61,280.33ZM117.06,228c13.66-31.72,39.72-53.18,69.67-53.18,44.06,0,88.32,47,72.25,119.78,4.88-63.31-29.1-109.32-73.91-110.7C157.64,183.1,132.78,200.58,117.06,228Z"
     transform="translate(0 -0.31)"
     id="car" />
  <path
     d="M0,392c52.54-4.95,105.07-7.86,157.61-10.92,52.54-2.8,105.08-4.87,157.61-6.57q157.62-4.89,315.23-4.74t315.22,4.8c52.54,1.71,105.08,3.77,157.62,6.57,52.53,3,105.07,5.95,157.61,10.86v2.62l-157.61.63-157.62.24-315.22.43-315.23-.43-157.61-.23L0,394.64Z"
     transform="translate(0 -0.31)"
     id="path8" />
</svg>
