<?xml version="1.0" encoding="UTF-8" standalone="no"?>
<svg
   width="1300"
   height="1000"
   version="1.1"
   id="svg200"
   sodipodi:docname="cnet.laptop.svg"
   inkscape:version="1.1.2 (0a00cf5339, 2022-02-04)"
   xmlns:inkscape="http://www.inkscape.org/namespaces/inkscape"
   xmlns:sodipodi="http://sodipodi.sourceforge.net/DTD/sodipodi-0.dtd"
   xmlns="http://www.w3.org/2000/svg"
   xmlns:svg="http://www.w3.org/2000/svg"
   xmlns:rdf="http://www.w3.org/1999/02/22-rdf-syntax-ns#"
   xmlns:cc="http://creativecommons.org/ns#"
   xmlns:dc="http://purl.org/dc/elements/1.1/">
  <defs
     id="defs204" />
  <sodipodi:namedview
     id="namedview202"
     pagecolor="#ffffff"
     bordercolor="#666666"
     borderopacity="1.0"
     inkscape:pageshadow="2"
     inkscape:pageopacity="0.0"
     inkscape:pagecheckerboard="0"
     showgrid="false"
     inkscape:zoom="0.45537677"
     inkscape:cx="524.84013"
     inkscape:cy="516.05619"
     inkscape:window-width="1920"
     inkscape:window-height="1015"
     inkscape:window-x="0"
     inkscape:window-y="0"
     inkscape:window-maximized="1"
     inkscape:current-layer="svg_20" />
  <title
     id="title2">laptop</title>
  <linearGradient
     y2="0.494109"
     x2="0.857052"
     y1="0.505889"
     x1="0.147249"
     id="SVGID_1_">
    <stop
       offset="0.0056"
       stop-color="rgb(255,255,255)"
       id="stop4" />
    <stop
       offset="0.4008"
       stop-color="rgb(210,210,210)"
       id="stop6" />
    <stop
       offset="0.7948"
       stop-color="rgb(171,171,171)"
       id="stop8" />
    <stop
       offset="1"
       stop-color="rgb(156,156,156)"
       id="stop10" />
  </linearGradient>
  <linearGradient
     y2="0.499918"
     x2="0.91622"
     y1="0.499918"
     x1="0.09358"
     id="SVGID_2_">
    <stop
       offset="0"
       stop-color="rgb(61,61,61)"
       id="stop13" />
    <stop
       offset="0.2665"
       stop-color="rgb(55,55,55)"
       id="stop15" />
    <stop
       offset="0.6178"
       stop-color="rgb(39,39,39)"
       id="stop17" />
    <stop
       offset="1"
       stop-color="rgb(13,13,13)"
       id="stop19" />
  </linearGradient>
  <linearGradient
     y2="0.500102"
     x2="0.264955"
     y1="0.500102"
     x1="0.882054"
     id="SVGID_3_">
    <stop
       offset="0"
       stop-color="rgb(96,97,99)"
       id="stop22" />
    <stop
       offset="0.1268"
       stop-color="rgb(102,103,105)"
       id="stop24" />
    <stop
       offset="0.2942"
       stop-color="rgb(118,119,121)"
       id="stop26" />
    <stop
       offset="0.4841"
       stop-color="rgb(146,147,148)"
       id="stop28" />
    <stop
       offset="0.6908"
       stop-color="rgb(184,184,185)"
       id="stop30" />
    <stop
       offset="0.9085"
       stop-color="rgb(232,233,233)"
       id="stop32" />
    <stop
       offset="1"
       stop-color="rgb(255,255,255)"
       id="stop34" />
  </linearGradient>
  <linearGradient
     y2="0.967961"
     x2="1.00435"
     y1="0.057915"
     x1="0.008038"
     id="SVGID_4_">
    <stop
       offset="0"
       stop-color="rgb(0,0,0)"
       id="stop37" />
    <stop
       offset="0.1335"
       stop-color="rgb(13,13,13)"
       id="stop39" />
    <stop
       offset="0.7083"
       stop-color="rgb(66,66,66)"
       id="stop41" />
    <stop
       offset="0.9888"
       stop-color="rgb(87,87,87)"
       id="stop43" />
  </linearGradient>
  <linearGradient
     y2="-0.014743"
     x2="0.499999"
     y1="1.01988"
     x1="0.499999"
     id="SVGID_5_">
    <stop
       offset="0"
       stop-color="rgb(244,244,246)"
       id="stop46" />
    <stop
       offset="0.1142"
       stop-color="rgb(224,224,225)"
       id="stop48" />
    <stop
       offset="0.3497"
       stop-color="rgb(170,170,172)"
       id="stop50" />
    <stop
       offset="0.6824"
       stop-color="rgb(86,86,87)"
       id="stop52" />
    <stop
       offset="1"
       stop-color="rgb(0,0,0)"
       id="stop54" />
  </linearGradient>
  <linearGradient
     y2="0.499961"
     x2="0.9409"
     y1="0.499961"
     x1="0.213839"
     id="SVGID_7_">
    <stop
       offset="0"
       stop-color="rgb(13,13,13)"
       id="stop57" />
    <stop
       offset="0.6136"
       stop-color="rgb(7,7,7)"
       id="stop59" />
    <stop
       offset="1"
       stop-color="rgb(0,0,0)"
       id="stop61" />
  </linearGradient>
  <linearGradient
     y2="0.520972"
     x2="0.053477"
     y1="0.481432"
     x1="0.893776"
     id="SVGID_8_">
    <stop
       offset="0"
       stop-color="rgb(13,13,13)"
       id="stop64" />
    <stop
       offset="0.0975"
       stop-color="rgb(19,19,19)"
       id="stop66" />
    <stop
       offset="0.2262"
       stop-color="rgb(35,35,35)"
       id="stop68" />
    <stop
       offset="0.3724"
       stop-color="rgb(63,63,63)"
       id="stop70" />
    <stop
       offset="0.5314"
       stop-color="rgb(101,101,101)"
       id="stop72" />
    <stop
       offset="0.7009"
       stop-color="rgb(150,150,150)"
       id="stop74" />
    <stop
       offset="0.8763"
       stop-color="rgb(209,209,209)"
       id="stop76" />
    <stop
       offset="1"
       stop-color="rgb(255,255,255)"
       id="stop78" />
  </linearGradient>
  <linearGradient
     y2="0.5"
     x2="1"
     y1="0.5"
     x1="0"
     id="SVGID_9_">
    <stop
       offset="0"
       stop-color="rgb(244,244,244)"
       id="stop81" />
    <stop
       offset="0.1633"
       stop-color="rgb(224,224,224)"
       id="stop83" />
    <stop
       offset="0.4998"
       stop-color="rgb(170,170,170)"
       id="stop85" />
    <stop
       offset="0.9769"
       stop-color="rgb(85,85,85)"
       id="stop87" />
    <stop
       offset="0.9831"
       stop-color="rgb(84,84,84)"
       id="stop89" />
  </linearGradient>
  <linearGradient
     y2="0.186685"
     x2="0.010292"
     y1="0.777179"
     x1="0.983564"
     id="SVGID_10_">
    <stop
       offset="0"
       stop-color="rgb(56,56,56)"
       id="stop92" />
    <stop
       offset="0.4335"
       stop-color="rgb(125,125,125)"
       id="stop94" />
    <stop
       offset="0.8073"
       stop-color="rgb(178,178,178)"
       id="stop96" />
    <stop
       offset="0.9888"
       stop-color="rgb(199,199,199)"
       id="stop98" />
  </linearGradient>
  <linearGradient
     y2="0.002036"
     x2="0.500002"
     y1="0.99012"
     x1="0.500002"
     id="SVGID_13_">
    <stop
       offset="0"
       stop-color="rgb(224,224,224)"
       id="stop101" />
    <stop
       offset="0.1379"
       stop-color="rgb(195,195,195)"
       id="stop103" />
    <stop
       offset="0.5532"
       stop-color="rgb(110,110,110)"
       id="stop105" />
    <stop
       offset="0.8465"
       stop-color="rgb(56,56,56)"
       id="stop107" />
    <stop
       offset="0.9888"
       stop-color="rgb(36,36,36)"
       id="stop109" />
  </linearGradient>
  <g
     id="g198">
    <title
       id="title112">Layer 1</title>
    <path
       d="m 1145.01,635.01001 c -0.85,2.10101 -1.6901,4.203 -2.54,6.30402 -0.34,0.86999 -0.82,1.677 -1.38,2.39196 -0.58,0.71802 -1.25,1.34699 -2,1.86701 -0.75,0.52197 -1.58,0.93402 -2.47,1.21399 -0.89,0.281 -1.84,0.43499 -2.83,0.43499 l 2.49,-6.276 c 1,0 1.95,-0.15197 2.85,-0.43597 0.9,-0.28302 1.73,-0.698 2.49,-1.21899 0.74,-0.52204 1.42,-1.15802 2,-1.87702 0.5699,-0.71899 1.04,-1.52899 1.39,-2.40399 z"
       fill="url(#SVGID_2_)"
       id="svg_2"
       style="fill:#3d3d3d;fill-opacity:1" />
    <g
       id="svg_3">
      <polygon
         points="187.346,641.012 1136.28,640.944 1133.79,647.221 189.8,647.288 "
         fill="#606163"
         id="svg_4" />
    </g>
    <path
       d="m 181.084,641.32599 c -0.83299,-2.10101 -1.66699,-4.20001 -2.50101,-6.30298 0.35001,0.88202 0.82201,1.69598 1.39601,2.42499 0.57399,0.72601 1.25,1.36603 2.00699,1.89099 0.75701,0.52801 1.595,0.948 2.496,1.23401 0.89701,0.28302 1.86101,0.43799 2.864,0.43799 l 2.45401,6.276 c -1.152,0.041 -1.951,-0.15302 -2.849,-0.43598 -0.89601,-0.28503 -1.73001,-0.70099 -2.483,-1.22699 -0.753,-0.52405 -1.425,-1.16302 -1.99499,-1.88604 -0.57201,-0.72095 -1.04201,-1.53296 -1.38901,-2.41199 z"
       fill="url(#SVGID_3_)"
       id="svg_5"
       style="fill:#606163;fill-opacity:1" />
    <path
       d="m 1120.89,84.657997 c 1.2901,0 2.5401,0.259003 3.6799,0.725006 1.1501,0.464996 2.1901,1.139 3.0801,1.968994 0.88,0.834 1.61,1.825005 2.13,2.927002 0.5301,1.097 0.84,2.309998 0.89,3.580002 l 15.05,536.943979 c 0.06,1.39801 -0.1599,2.73004 -0.61,3.94299 -0.44,1.21405 -1.12,2.30603 -1.97,3.22504 -0.86,0.91797 -1.89,1.66101 -3.05,2.177 -1.1599,0.51196 -2.45,0.797 -3.81,0.797 l -948.933,0.067 c -1.36301,0 -2.65199,-0.28204 -3.81,-0.79803 -1.162,-0.513 -2.195,-1.25702 -3.052,-2.17499 -0.854,-0.919 -1.532,-2.013 -1.981,-3.22497 -0.45,-1.21406 -0.66899,-2.54804 -0.61099,-3.94605 L 192.59599,93.795997 c 0.056,-1.269096 0.36801,-2.480095 0.89202,-3.582001 0.52099,-1.100998 1.25299,-2.092094 2.13699,-2.926094 0.88699,-0.832001 1.927,-1.505905 3.071,-1.970001 1.143,-0.465904 2.38901,-0.723 3.687,-0.723 l 918.507,0.0631 z"
       fill="url(#SVGID_4_)"
       id="svg_6"
       style="fill:#969696;fill-opacity:1" />
    <path
       d="m 1133.73,643.71802 c 1.36,0 2.69,0.11596 3.92,0.32397 1.23,0.20703 2.38,0.50904 3.37,0.883 0.99,0.375 1.83,0.81903 2.46,1.315 0.64,0.49298 1.06,1.039 1.2099,1.60999 l 71.6202,264.16504 c 0.2099,0.755 0.09,1.47296 -0.3101,2.125 -0.4,0.65496 -1.0601,1.242 -1.96,1.73797 -0.89,0.49402 -2,0.89398 -3.29,1.16998 -1.28,0.27906 -2.73,0.43201 -4.3,0.43201 l -1090.474,0.0371 c -1.569,0 -3.022,-0.15302 -4.307,-0.42902 -1.284,-0.28003 -2.4,-0.67804 -3.294,-1.17498 -0.895,-0.49103 -1.567,-1.08301 -1.965,-1.737 -0.399,-0.65302 -0.524,-1.37 -0.324,-2.12305 l 70.62601,-264.23401 c 0.153,-0.57196 0.57598,-1.11694 1.20799,-1.612 0.631,-0.49396 1.47,-0.93994 2.46001,-1.31397 0.98899,-0.372 2.13299,-0.67303 3.36599,-0.88299 1.232,-0.21002 2.55899,-0.32404 3.91899,-0.32404 l 946.06501,0.0321 z"
       fill="url(#SVGID_5_)"
       id="svg_7"
       style="fill:#969696;fill-opacity:1" />
    <g
       id="svg_8">
      <linearGradient
         y2="0.0058249999"
         x2="0.50000101"
         y1="1.0163"
         x1="0.50000101"
         id="SVGID_6_">
        <stop
           offset="0"
           stop-color="rgb(255,255,255)"
           id="stop121" />
        <stop
           offset="0.3304"
           stop-color="rgb(160,160,160)"
           id="stop123" />
        <stop
           offset="0.6536"
           stop-color="rgb(74,74,74)"
           id="stop125" />
        <stop
           offset="0.8793"
           stop-color="rgb(21,21,21)"
           id="stop127" />
        <stop
           offset="0.9888"
           stop-color="rgb(0,0,0)"
           id="stop129" />
      </linearGradient>
      <path
         d="m 1143.48,646.23999 c -0.63,-0.49597 -1.47,-0.94 -2.46,-1.315 -1,-0.37396 -2.14,-0.67597 -3.37,-0.883 -1.24,-0.20801 -2.56,-0.32397 -3.92,-0.32397 l -946.066,-0.0321 c -1.36101,0 -2.688,0.11402 -3.919,0.32404 -1.23301,0.20996 -2.376,0.51099 -3.366,0.883 -0.72299,0.27197 -1.328,0.59497 -1.868,0.93499 -0.238,0.42499 -0.474,0.85102 -0.64799,1.31403 -0.44701,1.19897 -0.668,2.51996 -0.61,3.89996 l 7.37599,266.47302 h 26.77901 l -6.31202,-252.867 H 1116.11 l -5.52,252.836 26.94,-0.002 7.55,-266.37201 c 0.05,-1.20996 -0.12,-2.36798 -0.46,-3.44397 -0.1899,-0.50299 -0.58,-0.98603 -1.14,-1.42603 z"
         fill="url(#SVGID_6_)"
         id="svg_9"
         style="fill:#e0e0e0;fill-opacity:1" />
    </g>
    <path
       d="m 1216.4,912.89502 c -0.45,7.17395 -0.91,14.34601 -1.37,21.521 -0.04,0.65197 -0.33,1.26995 -0.83,1.82696 -0.5,0.55603 -1.21,1.05103 -2.08,1.46704 -0.89,0.41199 -1.9399,0.745 -3.12,0.97498 -1.1801,0.22998 -4.05,0.354 -5.46,0.354 l 2.91,-21.55701 c 1.41,0 2.7301,-0.125 3.92,-0.35199 1.1901,-0.22399 2.24,-0.55401 3.11,-0.96801 0.89,-0.41101 1.6,-0.904 2.0899,-1.456 0.5,-0.55096 0.7901,-1.16198 0.8301,-1.81097 z"
       fill="url(#SVGID_7_)"
       id="svg_10"
       style="fill:#0d0d0d;fill-opacity:1" />
    <polygon
       points="115.976,917.518 1206.45,917.48 1205.1,939.037 117.311,939.08 "
       fill="#333333"
       id="svg_11" />
    <path
       d="m 107.354,934.44501 c -0.453,-7.17499 -0.905,-14.35102 -1.357,-21.526 0.043,0.64996 0.333,1.263 0.832,1.81701 0.501,0.55298 1.212,1.047 2.097,1.45795 0.88,0.41101 1.938,0.74304 3.126,0.97205 1.188,0.22796 2.509,0.35199 3.925,0.35199 L 118.32,939.12 c -1.41201,0 -3.737,-0.16303 -4.922,-0.39502 -1.186,-0.22901 -2.24,-0.56196 -3.123,-0.97901 -0.879,-0.41296 -1.58901,-0.90997 -2.09,-1.46899 -0.501,-0.55896 -0.79001,-1.17597 -0.83101,-1.83197 z"
       fill="url(#SVGID_8_)"
       id="svg_12"
       style="fill:#0d0d0d;fill-opacity:1" />
    <path
       d="m 766.21399,822.79102 -230.01898,0.004 c -2.35401,0 -4.61499,0.219 -6.68799,0.61304 -2.07599,0.39496 -3.966,0.96796 -5.57703,1.67297 -1.61297,0.70703 -2.94397,1.55201 -3.89898,2.48798 -0.956,0.93805 -1.53602,1.97101 -1.64301,3.06006 l -5.34003,54.57696 c -0.11395,1.16199 0.27301,2.27301 1.07502,3.28504 0.79998,1.01397 2.01403,1.92596 3.54901,2.69397 1.53698,0.76703 3.39599,1.39203 5.487,1.82098 2.09002,0.43103 4.40997,0.66901 6.86999,0.66901 l 240.41498,-0.008 c 2.46503,0 4.79102,-0.237 6.89404,-0.66797 2.10401,-0.43005 3.97998,-1.05304 5.539,-1.82104 1.55701,-0.76801 2.79499,-1.68299 3.62299,-2.69397 0.828,-1.01099 1.24402,-2.12201 1.16302,-3.28699 0.081,1.16498 -0.33502,2.27496 -1.16302,3.28699 -0.828,1.01202 -2.06598,1.927 -3.62299,2.69397 -1.55902,0.76904 -3.43499,1.39203 -5.539,1.82104 -2.10302,0.43097 -4.42901,0.66797 -6.89404,0.66797 l -240.41498,0.008 c -2.46002,0 -4.77997,-0.23798 -6.86999,-0.66901 -2.09198,-0.42999 -3.95099,-1.05499 -5.487,-1.82098 -1.53601,-0.76898 -2.74903,-1.68097 -3.54901,-2.69397 -0.80201,-1.01203 -1.18897,-2.12305 -1.07502,-3.28504 l 1.711,-17.51098 271.66504,-0.005 -2.61798,-37.065 c -0.075,-1.08697 -0.62805,-2.11902 -1.55804,-3.05701 -0.93097,-0.93798 -2.23902,-1.781 -3.831,-2.48901 -1.59302,-0.70801 -3.46802,-1.27795 -5.53302,-1.67096 -2.06396,-0.39502 -4.31799,-0.617 -6.66998,-0.617 z"
       fill="url(#SVGID_9_)"
       id="svg_13"
       style="fill:#f4f4f4;fill-opacity:1" />
    <path
       d="m 786.42499,867.69 -271.66498,0.005 -1.711,17.51098 c -0.11401,1.16199 0.27301,2.27301 1.07501,3.28504 0.79999,1.01397 2.01398,1.92596 3.54895,2.69397 1.53705,0.76703 3.396,1.39203 5.487,1.82098 2.09003,0.43103 4.41004,0.66901 6.87006,0.66901 l 240.41498,-0.008 c 2.46496,0 4.79101,-0.237 6.89398,-0.66797 2.104,-0.43005 3.97998,-1.05304 5.539,-1.82104 1.55701,-0.76801 2.79498,-1.68299 3.62299,-2.69397 0.828,-1.01099 1.24401,-2.12201 1.16302,-3.28699 z"
       fill="url(#SVGID_10_)"
       id="svg_14"
       style="fill:#383838;fill-opacity:1" />
    <g
       id="svg_15">
      <linearGradient
         y2="0.61498702"
         x2="0.99244398"
         y1="0.38969001"
         x1="0.011972"
         id="SVGID_11_">
        <stop
           offset="0"
           stop-color="rgb(71,71,71)"
           id="stop139" />
        <stop
           offset="0.1449"
           stop-color="rgb(92,92,92)"
           id="stop141" />
        <stop
           offset="0.4435"
           stop-color="rgb(145,145,145)"
           id="stop143" />
        <stop
           offset="0.8666"
           stop-color="rgb(230,230,230)"
           id="stop145" />
        <stop
           offset="0.9831"
           stop-color="rgb(255,255,255)"
           id="stop147" />
      </linearGradient>
      <path
         d="m 522.92102,894.31097 c -2.17401,-0.44598 -4.12701,-1.09594 -5.77704,-1.91796 v 0 c -1.651,-0.83002 -3.01001,-1.82898 -3.97296,-3.04401 v 0 c -0.76202,-0.95099 -1.27203,-2.07501 -1.37103,-3.28998 v 0 c 0,0 -0.002,0 -0.002,-0.004 v 0 c -0.003,-0.036 -0.004,-0.071 -0.008,-0.104 v 0 c 0,-0.012 0,-0.025 -0.003,-0.033 v 0 c 0,-0.033 -0.002,-0.067 -0.003,-0.10004 v 0 c 0,-0.009 0,-0.018 0,-0.027 v 0 c -0.001,-0.035 -0.001,-0.0711 -0.001,-0.10804 v 0 c -0.003,-0.025 -0.003,-0.052 -0.003,-0.079 v 0 c 0,-0.16803 0.007,-0.35998 0.028,-0.53802 v 0 l 1.82901,-18.69995 h 9.8e-4 l 3.51001,-35.87702 c 0.14996,-1.50903 0.93597,-2.82098 2.039,-3.89801 v 0 c 1.10498,-1.08599 2.55701,-1.987 4.26599,-2.73999 v 0 c 1.71198,-0.75201 3.68201,-1.34399 5.83301,-1.75201 v 0 c 2.151,-0.41101 4.48199,-0.63599 6.90698,-0.63599 v 0 H 766.21 v 1.33002 1.33197 l -230.01501,0.003 c -2.28302,0 -4.47101,0.21301 -6.47303,0.591 v 0 c -1.99597,0.383 -3.80798,0.93201 -5.32098,1.59504 v 0 c -1.51099,0.66296 -2.724,1.44299 -3.52698,2.237 v 0 c -0.81201,0.79797 -1.18402,1.55597 -1.24805,2.216 v 0 l -3.48297,35.59998 268.935,-0.007 -2.51703,-35.63196 c -0.045,-0.66101 -0.38598,-1.39704 -1.17096,-2.19306 v 0 c -0.77502,-0.78295 -1.961,-1.56396 -3.453,-2.22497 v 0 c -1.49402,-0.66199 -3.28503,-1.21301 -5.27399,-1.591 v 0 c -1.98602,-0.38202 -4.17004,-0.594 -6.453,-0.594 v 0 -1.33197 -1.33001 c 2.42596,0 4.75598,0.22497 6.89398,0.63299 v 0 c 2.14502,0.41101 4.10102,1.00299 5.79297,1.75501 v 0 c 1.69104,0.75299 3.12305,1.65997 4.20801,2.75 v 0 c 1.07703,1.08197 1.83801,2.41101 1.94702,3.92901 v 0 l 2.716,38.49298 -271.88403,0.005 -1.59497,16.31799 c -0.011,0.10199 -0.016,0.18799 -0.015,0.25897 v 0 c 0.003,0.65204 0.23199,1.30402 0.80304,2.03101 v 0 c 0.63494,0.80798 1.70495,1.63904 3.125,2.34802 v 0 c 1.41796,0.70899 3.18798,1.30499 5.19494,1.71698 v 0 c 2.00305,0.41199 4.24701,0.646 6.63104,0.646 v 0 l 240.417,-0.007 c 2.39001,0 4.63897,-0.23004 6.65698,-0.64703 v 0 c 2.02002,-0.41199 3.80603,-1.00898 5.25201,-1.72199 v 0 c 0.093,-0.045 0.17902,-0.09 0.26599,-0.13403 v 0 c 1.138,-0.58899 2.04303,-1.25397 2.66803,-1.91895 v 0 c 0.098,-0.10101 0.18695,-0.20501 0.26996,-0.30603 v 0 c 0.61304,-0.75897 0.86499,-1.453 0.86603,-2.12903 v 0 c 0,-0.012 0,-0.025 0,-0.036 v 0 c -10e-4,-0.027 -10e-4,-0.054 -10e-4,-0.084 v 0 c -9.8e-4,-0.024 -0.004,-0.052 -0.004,-0.076 v 0 0 c 0,-0.003 0,-0.008 0,-0.014 v 0 l 2.48798,-0.164 c 0,0.007 0,0.012 0,0.015 v 0 h 10e-4 c 0.005,0.10699 0.009,0.229 0.011,0.35895 v 0 c 0.003,1.44305 -0.57299,2.77703 -1.47998,3.875 v 0 c -0.99304,1.20703 -2.37103,2.203 -4.039,3.02905 v 0 c -1.67102,0.82397 -3.64203,1.47497 -5.82605,1.919 v 0 c -2.18799,0.44898 -4.58899,0.693 -7.12799,0.693 v 0 l -240.41699,0.007 c -2.53497,-9.8e-4 -4.93402,-0.245 -7.10797,-0.69501 v 0 z"
         fill="url(#SVGID_11_)"
         id="svg_16"
         style="fill:#474747;fill-opacity:1" />
    </g>
    <g
       id="svg_17">
      <linearGradient
         y2="0.77093601"
         x2="0.98763102"
         y1="0.192551"
         x1="0.0071729999"
         id="SVGID_12_">
        <stop
           offset="0"
           stop-color="rgb(71,71,71)"
           id="stop152" />
        <stop
           offset="0.1449"
           stop-color="rgb(92,92,92)"
           id="stop154" />
        <stop
           offset="0.4435"
           stop-color="rgb(145,145,145)"
           id="stop156" />
        <stop
           offset="0.8666"
           stop-color="rgb(230,230,230)"
           id="stop158" />
        <stop
           offset="0.9831"
           stop-color="rgb(255,255,255)"
           id="stop160" />
      </linearGradient>
      <path
         d="m 522.92102,894.31097 c -2.17401,-0.44598 -4.12701,-1.09594 -5.77704,-1.91796 v 0 c -1.651,-0.83002 -3.01001,-1.82898 -3.97296,-3.04401 v 0 c -0.85504,-1.06799 -1.393,-2.35999 -1.39203,-3.74597 v 0 c 0,-0.19403 0.014,-0.37305 0.028,-0.53803 v 0 l 1.82898,-18.70001 272.78698,-0.007 h 1.15503 l 1.32898,18.76502 c 0.005,0.10699 0.009,0.229 0.0111,0.359 v 0 c 0.003,1.443 -0.57306,2.77698 -1.48004,3.875 v 0 c -0.99299,1.20704 -2.37098,2.20301 -4.03901,3.029 v 0 c -1.67095,0.82403 -3.64196,1.47503 -5.82598,1.919 v 0 c -2.18799,0.44904 -4.58899,0.693 -7.128,0.693 v 0 l -240.41699,0.007 c -2.53399,0 -4.93304,-0.24401 -7.10699,-0.69403 v 0 z m -7.03802,-25.28595 -1.59497,16.318 c -0.0111,0.10199 -0.0161,0.18799 -0.015,0.25897 v 0 c 0.003,0.65204 0.232,1.30402 0.80298,2.03101 v 0 c 0.63501,0.80798 1.70502,1.63897 3.125,2.34802 v 0 c 1.41803,0.70898 3.18799,1.30499 5.19501,1.71698 v 0 c 2.00299,0.41198 4.24701,0.64599 6.63098,0.64599 v 0 l 240.41699,-0.007 c 2.39001,0 4.63904,-0.22998 6.65704,-0.64697 v 0 c 2.01996,-0.41199 3.80597,-1.00897 5.25202,-1.72198 v 0 c 1.44397,-0.711 2.54095,-1.54004 3.20398,-2.36103 v 0 c 0.61297,-0.755 0.86401,-1.445 0.86499,-2.12597 v 0 c 0,-0.059 -9.8e-4,-0.13105 -0.005,-0.185 v 0 l -1.15301,-16.276 -269.38099,0.005 v 0 z m 269.29699,-1.23602 1.245,-0.099 z"
         fill="url(#SVGID_12_)"
         id="svg_18"
         style="fill:#474747;fill-opacity:1" />
    </g>
    <polygon
       points="1105.89,114.059 1116.75,617.116 205.737,617.116 218.157,114.059 "
       fill="url(#SVGID_13_)"
       id="svg_19"
       style="fill:#202020;fill-opacity:1" />
    <g
       id="svg_20">
      <linearGradient
         y2="0.890688"
         x2="1.11801"
         y1="-0.108492"
         x1="0.12836599"
         id="SVGID_14_">
        <stop
           offset="0"
           stop-color="rgb(189,189,189)"
           id="stop166" />
        <stop
           offset="0.3931"
           stop-color="rgb(130,130,130)"
           id="stop168" />
        <stop
           offset="0.7862"
           stop-color="rgb(77,77,77)"
           id="stop170" />
        <stop
           offset="0.9775"
           stop-color="rgb(56,56,56)"
           id="stop172" />
      </linearGradient>
      <path
         d="m 1140.09,640.14697 c 1.16,-0.51599 2.19,-1.25897 3.05,-2.177 0.85,-0.91894 1.53,-2.01099 1.97,-3.22497 0.4501,-1.21302 0.67,-2.54499 0.61,-3.943 L 1130.67,93.858002 c -0.05,-1.270004 -0.37,-2.483002 -0.89,-3.580002 -0.52,-1.101997 -1.25,-2.093002 -2.14,-2.927002 -0.88,-0.829994 -1.93,-1.503998 -3.0701,-1.968994 -1.1398,-0.466003 -2.3898,-0.725006 -3.6799,-0.725006 L 631.80798,84.625 C 641.065,209.05701 688.565,527.55603 931.87201,640.95801 l 204.40799,-0.015 c 1.36,9.8e-4 2.6501,-0.28399 3.81,-0.79602 z"
         fill="url(#SVGID_14_)"
         id="svg_21"
         style="fill:#969696;fill-opacity:1" />
    </g>
    <path
       d="m 1163.09,790.72498 c 0,4.47204 -3.71,8.09503 -8.29,8.09503 H 173.931 c -4.576,0 -8.284,-3.62299 -8.284,-8.09503 l 33.13899,-125.19696 c 0,-4.47101 3.70801,-8.094 8.28501,-8.094 h 914.599 c 4.57,0 8.28,3.62299 8.28,8.094 z"
       fill="#333333"
       id="svg_22" />
    <g
       id="svg_23">
      <path
         d="m 200.47099,697.245 c 0.35201,0.169 0.789,0.31103 1.28701,0.40502 0.501,0.096 1.05999,0.14899 1.665,0.14899 h 43.656 c 0.604,0 1.18701,-0.053 1.733,-0.14801 0.542,-0.095 1.045,-0.23401 1.475,-0.406 0.435,-0.16797 0.79801,-0.37299 1.068,-0.60102 0.27,-0.22497 0.447,-0.47296 0.50599,-0.73401 l 3.38701,-15.42498 c 0.055,-0.25696 -0.011,-0.50098 -0.181,-0.724 -0.171,-0.22199 -0.444,-0.422 -0.796,-0.58899 -0.35399,-0.167 -0.79,-0.30402 -1.28501,-0.39801 -0.49699,-0.092 -1.05398,-0.146 -1.653,-0.146 H 208.134 c -0.597,0 -1.181,0.053 -1.71901,0.146 -0.541,0.095 -1.041,0.23004 -1.472,0.39599 -0.43399,0.17005 -0.79699,0.37 -1.07199,0.59003 -0.274,0.22498 -0.45601,0.46698 -0.52,0.724 l -3.82401,15.42596 c -0.062,0.26203 -0.004,0.51105 0.16302,0.73505 0.16099,0.22498 0.42799,0.42999 0.78099,0.59998 z m 58.21401,0.002 c 0.358,0.16998 0.79901,0.31 1.29901,0.40399 0.50098,0.096 1.06399,0.14801 1.66498,0.14801 l 43.664,9.8e-4 c 0.599,0 1.18402,-0.054 1.72201,-0.14697 0.54099,-0.097 1.04001,-0.23499 1.46601,-0.40503 0.42797,-0.17096 0.78399,-0.375 1.04699,-0.60102 0.26801,-0.22595 0.435,-0.47595 0.48401,-0.73596 l 2.90299,-15.42499 c 0.048,-0.25799 -0.028,-0.50103 -0.20401,-0.724 -0.17798,-0.22003 -0.45798,-0.42199 -0.819,-0.58905 -0.35999,-0.16699 -0.79798,-0.302 -1.297,-0.39599 -0.5,-0.094 -1.056,-0.146 -1.65298,-0.146 l -43.206,-0.003 c -0.59701,0 -1.17502,0.055 -1.711,0.14899 -0.53601,0.092 -1.03302,0.229 -1.461,0.39599 -0.427,0.16706 -0.789,0.36902 -1.05502,0.59003 -0.26599,0.22199 -0.43899,0.466 -0.49799,0.72302 l -3.33902,15.42499 c -0.057,0.26196 0.013,0.51001 0.18601,0.73401 0.17102,0.22699 0.44601,0.43201 0.80701,0.60199 z m 62.987,-18.47003 c -0.53299,0.095 -1.02301,0.229 -1.44599,0.39599 -0.42102,0.16706 -0.777,0.36902 -1.03201,0.58905 -0.26199,0.22296 -0.42801,0.46601 -0.474,0.724 l -2.85501,15.42499 c -0.047,0.26099 0.028,0.51099 0.20603,0.73596 0.181,0.22602 0.46197,0.43006 0.82598,0.60102 0.36301,0.17004 0.80701,0.30902 1.31299,0.40502 0.50302,0.094 1.069,0.14698 1.672,0.14698 l 43.65201,0.002 c 0.604,0 1.185,-0.054 1.72299,-0.14697 0.53802,-0.095 1.02902,-0.23602 1.449,-0.40704 0.42301,-0.16999 0.77601,-0.375 1.03302,-0.59998 0.25498,-0.22601 0.41599,-0.47504 0.45701,-0.73499 l 2.41598,-15.42401 c 0.039,-0.25903 -0.043,-0.50299 -0.228,-0.72601 -0.18301,-0.22101 -0.46701,-0.41998 -0.83301,-0.58899 -0.36398,-0.16803 -0.807,-0.302 -1.31198,-0.39599 -0.5,-0.093 -1.061,-0.14704 -1.65802,-0.14704 H 323.384 c -0.59799,0 -1.177,0.053 -1.712,0.146 z m 54.75699,18.87805 c 0.50702,0.094 1.07101,0.14697 1.67602,0.14697 h 43.66001 c 0.60299,0 1.181,-0.053 1.71197,-0.14697 0.534,-0.095 1.021,-0.23303 1.43701,-0.40405 0.41699,-0.17096 0.763,-0.37397 1.012,-0.60096 0.24899,-0.22802 0.39801,-0.47503 0.43301,-0.734 l 1.92798,-15.42701 c 0.033,-0.25702 -0.058,-0.50103 -0.24899,-0.72302 -0.189,-0.22198 -0.482,-0.42297 -0.85001,-0.58899 -0.36798,-0.16699 -0.81699,-0.30499 -1.31998,-0.39801 -0.504,-0.093 -1.06402,-0.14697 -1.66,-0.14697 H 381 c -0.59698,0 -1.173,0.0539 -1.70401,0.146 -0.53097,0.095 -1.01898,0.229 -1.43298,0.39599 -0.41699,0.16901 -0.767,0.36798 -1.01801,0.58899 -0.25,0.22302 -0.41,0.46698 -0.449,0.72601 l -2.36798,15.42401 c -0.04,0.263 0.044,0.50995 0.22998,0.73499 0.186,0.22497 0.475,0.42999 0.84601,0.59997 0.36498,0.17103 0.815,0.31299 1.32498,0.40705 z M 484.828,679.17999 c -0.37399,-0.169 -0.828,-0.307 -1.336,-0.39801 -0.509,-0.095 -1.07199,-0.14599 -1.66799,-0.14599 h -43.198 c -0.59702,0 -1.168,0.051 -1.70001,0.14404 -0.52799,0.094 -1.01001,0.23096 -1.41901,0.39795 -0.41199,0.16601 -0.75098,0.36804 -0.99698,0.58905 -0.24402,0.22198 -0.397,0.46594 -0.42599,0.72296 l -1.88102,15.427 c -0.035,0.26001 0.059,0.50702 0.25,0.73401 0.19501,0.22699 0.48999,0.42999 0.86301,0.60101 0.375,0.17096 0.82898,0.31 1.34,0.40601 0.509,0.093 1.07898,0.146 1.67898,0.146 l 43.65,0.002 c 0.604,0 1.182,-0.055 1.71502,-0.14703 0.53098,-0.097 1.01499,-0.23499 1.42499,-0.40601 0.41199,-0.16998 0.75202,-0.37396 0.99201,-0.60101 0.24099,-0.22596 0.38699,-0.474 0.41198,-0.73297 l 1.44202,-15.42798 c 0.026,-0.25702 -0.072,-0.49805 -0.271,-0.72205 -0.20202,-0.22296 -0.49801,-0.42401 -0.87201,-0.58899 z m 57.63098,0 c -0.37896,-0.16601 -0.83898,-0.30499 -1.34997,-0.39502 -0.508,-0.0959 -1.07501,-0.14795 -1.66998,-0.14795 l -43.19602,-10e-4 c -0.59601,0 -1.169,0.051 -1.694,0.146 -0.52701,0.094 -1.00302,0.229 -1.409,0.39801 -0.406,0.16498 -0.74002,0.36603 -0.98001,0.58801 -0.23999,0.224 -0.384,0.46497 -0.406,0.72199 l -1.39301,15.42804 c -0.024,0.25995 0.076,0.50897 0.27402,0.73297 0.202,0.22699 0.504,0.43097 0.88199,0.60101 0.379,0.17096 0.836,0.31 1.35199,0.40601 0.513,0.093 1.08301,0.14697 1.685,0.14697 H 538.203 c 0.60401,0 1.18201,-0.053 1.70899,-0.14599 0.52899,-0.097 1.00702,-0.23499 1.414,-0.40699 0.406,-0.16699 0.737,-0.37402 0.974,-0.59899 0.23303,-0.22699 0.37103,-0.474 0.388,-0.73401 l 0.95502,-15.42798 c 0.018,-0.25403 -0.087,-0.49805 -0.29401,-0.72101 -0.203,-0.22101 -0.51001,-0.42304 -0.89002,-0.59003 z m 57.63801,0.002 c -0.38599,-0.16602 -0.84699,-0.305 -1.36097,-0.396 -0.513,-0.096 -1.08001,-0.146 -1.67804,-0.146 h -43.19397 c -0.59503,0 -1.16803,0.051 -1.68799,0.146 -0.52502,0.09 -0.997,0.229 -1.40002,0.39502 -0.39899,0.16699 -0.72699,0.36896 -0.95898,0.58997 -0.23102,0.22302 -0.36603,0.46698 -0.37903,0.721 l -0.91199,15.42798 c -0.014,0.26105 0.093,0.508 0.30103,0.73401 0.20599,0.22504 0.513,0.43201 0.89898,0.599 0.38398,0.172 0.84699,0.31104 1.36298,0.40698 0.51898,0.095 1.09003,0.14606 1.69104,0.14606 l 43.64899,0.002 c 0.60199,0 1.177,-0.051 1.703,-0.14801 0.52698,-0.097 1.00098,-0.23297 1.401,-0.40496 0.40198,-0.16901 0.72595,-0.37299 0.95398,-0.599 0.224,-0.22901 0.354,-0.47498 0.36499,-0.73603 l 0.47003,-15.42798 c 0.01,-0.25402 -0.10602,-0.497 -0.31701,-0.72003 -0.211,-0.22296 -0.52301,-0.42395 -0.90802,-0.58996 z m 58.55499,0.58899 c -0.21997,-0.22101 -0.534,-0.42103 -0.927,-0.58802 -0.38996,-0.16699 -0.85798,-0.30298 -1.37299,-0.39599 -0.51697,-0.094 -1.08698,-0.14496 -1.68396,-0.14496 l -43.19,-0.003 c -0.59802,0 -1.16803,0.051 -1.68805,0.14599 -0.51996,0.092 -0.98596,0.23004 -1.38495,0.39606 -0.39404,0.16797 -0.71704,0.36798 -0.94104,0.58899 -0.22498,0.22296 -0.35101,0.466 -0.35797,0.72198 l -0.42401,15.42603 c -0.004,0.26196 0.10998,0.50799 0.32599,0.73596 0.21197,0.22601 0.52698,0.42999 0.91601,0.60101 0.39099,0.16999 0.85602,0.30902 1.375,0.40302 0.52301,0.098 1.094,0.14801 1.698,0.14801 l 43.64301,9.7e-4 c 0.60498,0 1.17999,-0.052 1.70099,-0.14898 0.52301,-0.095 0.99401,-0.23303 1.388,-0.40302 0.39502,-0.17102 0.71197,-0.375 0.93499,-0.59997 0.22101,-0.22602 0.34198,-0.47602 0.34198,-0.73401 l -0.014,-15.427 c 0,-0.25605 -0.12201,-0.50104 -0.34003,-0.72303 z m 57.65405,0.003 c -0.22601,-0.22297 -0.54901,-0.42298 -0.94604,-0.58997 -0.396,-0.16602 -0.86499,-0.30304 -1.38501,-0.396 -0.52295,-0.096 -1.09101,-0.14502 -1.68696,-0.14502 l -43.19799,-0.002 c -0.59803,0 -1.16303,0.051 -1.67804,0.146 -0.51599,0.092 -0.97699,0.22802 -1.36896,0.39502 -0.39002,0.16699 -0.70502,0.367 -0.92102,0.58801 -0.22003,0.22498 -0.34101,0.46796 -0.33704,0.724 l 0.061,15.427 c 0.004,0.25897 0.12701,0.50897 0.346,0.73401 0.22101,0.22498 0.54297,0.42895 0.93799,0.59998 0.39301,0.17102 0.86298,0.30999 1.39002,0.40698 0.52099,0.094 1.09295,0.14599 1.69299,0.14599 h 43.65302 c 0.60394,0 1.177,-0.051 1.69494,-0.14599 0.51904,-0.098 0.98505,-0.23596 1.37402,-0.40601 0.38898,-0.17004 0.70099,-0.37396 0.91602,-0.59997 0.21198,-0.22699 0.32697,-0.474 0.31897,-0.73499 l -0.50195,-15.427 c -0.007,-0.25501 -0.13904,-0.49805 -0.362,-0.72003 z m 57.63995,0 c -0.229,-0.22199 -0.55999,-0.422 -0.96301,-0.58802 -0.39899,-0.16797 -0.87396,-0.30499 -1.39599,-0.39697 -0.52295,-0.094 -1.09595,-0.146 -1.693,-0.146 h -43.18799 c -0.59698,0 -1.164,0.049 -1.67596,0.14502 -0.51605,0.094 -0.974,0.22998 -1.35803,0.396 -0.38599,0.16699 -0.69599,0.367 -0.90601,0.58997 -0.21197,0.22198 -0.323,0.46502 -0.31299,0.72003 l 0.54999,15.427 c 0.007,0.26196 0.138,0.51099 0.36701,0.73499 0.229,0.22601 0.55603,0.42999 0.95703,0.59997 0.40198,0.172 0.87695,0.30902 1.40198,0.40601 0.52502,0.095 1.10101,0.14599 1.70697,0.14599 l 43.643,0.004 c 0.60303,0 1.17401,-0.053 1.69,-0.14899 0.51599,-0.095 0.97602,-0.23199 1.35803,-0.40405 0.388,-0.172 0.693,-0.37598 0.89801,-0.599 0.206,-0.22796 0.31299,-0.47595 0.29499,-0.73797 L 774.336,680.49701 c -0.016,-0.258 -0.15497,-0.50104 -0.39002,-0.72302 z m 57.65302,0 c -0.24103,-0.219 -0.57599,-0.41999 -0.98297,-0.58802 -0.40405,-0.16699 -0.88501,-0.30298 -1.40802,-0.39495 -0.52399,-0.096 -1.10101,-0.146 -1.69501,-0.146 l -43.19897,-0.002 c -0.59601,0 -1.15601,0.052 -1.66901,0.14502 -0.51105,0.0929 -0.966,0.229 -1.34503,0.39697 -0.38397,0.16601 -0.68598,0.36603 -0.89301,0.58801 -0.20099,0.22199 -0.30896,0.46802 -0.29095,0.72296 l 1.03796,15.42401 c 0.016,0.263 0.15503,0.51105 0.39099,0.73804 0.23603,0.22296 0.57001,0.427 0.97901,0.599 0.40503,0.172 0.88598,0.31 1.41198,0.40399 0.53003,0.097 1.10505,0.14899 1.70905,0.14899 h 43.651 c 0.60095,0 1.17096,-0.052 1.68396,-0.14899 0.513,-0.094 0.97101,-0.23199 1.35303,-0.40204 0.375,-0.17395 0.67499,-0.37597 0.87298,-0.60095 0.20002,-0.22803 0.29804,-0.47601 0.27301,-0.73505 l -1.47497,-15.427 c -0.024,-0.25396 -0.16803,-0.49695 -0.40503,-0.72198 z m 57.638,0.003 c -0.245,-0.22095 -0.58899,-0.42096 -0.99799,-0.58795 -0.41003,-0.17005 -0.89703,-0.30305 -1.42498,-0.39704 -0.52906,-0.094 -1.10401,-0.14599 -1.70203,-0.14599 h -43.185 c -0.59802,0 -1.15899,0.05 -1.66803,0.14599 -0.50897,0.095 -0.96295,0.22803 -1.33398,0.396 -0.37299,0.16601 -0.672,0.367 -0.86798,0.586 -0.19599,0.22503 -0.29401,0.46801 -0.26703,0.72302 l 1.52002,15.427 c 0.027,0.26001 0.172,0.508 0.41498,0.73499 0.242,0.22497 0.583,0.427 0.99304,0.60101 0.41296,0.16998 0.89697,0.30896 1.42895,0.40198 0.53205,0.098 1.11103,0.14898 1.71503,0.14898 h 43.64001 c 0.60401,0 1.17096,-0.052 1.68097,-0.14697 0.51203,-0.095 0.96399,-0.23199 1.33704,-0.40198 0.37396,-0.17303 0.66699,-0.37805 0.85901,-0.60205 0.18896,-0.22595 0.28094,-0.474 0.24798,-0.73596 l -1.96099,-15.42499 c -0.029,-0.25702 -0.18103,-0.5 -0.42902,-0.72204 z m 57.64697,0.004 c -0.25396,-0.22302 -0.60296,-0.42199 -1.02099,-0.59198 -0.41901,-0.16503 -0.904,-0.302 -1.43396,-0.39599 C 943.896,678.69891 943.32099,678.65 942.724,678.65 l -43.19397,-0.004 c -0.59406,0 -1.15802,0.052 -1.66302,0.14599 -0.50599,0.095 -0.94898,0.22803 -1.32099,0.39704 -0.367,0.16699 -0.65704,0.367 -0.84802,0.58795 -0.18799,0.22204 -0.27899,0.46502 -0.24597,0.724 l 2.00696,15.42303 c 0.039,0.263 0.18701,0.51099 0.44,0.73596 0.24701,0.22504 0.59503,0.42902 1.01098,0.60205 0.41803,0.16999 0.90705,0.30799 1.44202,0.40198 0.534,0.096 1.11499,0.14899 1.72003,0.14899 l 43.646,10e-4 c 0.59997,0 1.16699,-0.0551 1.672,-0.15003 0.50897,-0.093 0.95599,-0.22998 1.32598,-0.40197 0.36799,-0.17304 0.65497,-0.375 0.84003,-0.60206 0.18695,-0.22595 0.26898,-0.47399 0.22894,-0.73394 l -2.44494,-15.422 c -0.046,-0.26001 -0.20203,-0.50201 -0.45606,-0.72302 z m 116.21603,9.8e-4 c -0.27,-0.22198 -0.63,-0.41998 -1.06,-0.58899 -0.43,-0.16797 -0.92,-0.30298 -1.46,-0.39697 -0.54,-0.091 -1.12,-0.14502 -1.71,-0.146 H 957.60699 c -0.59802,0 -1.15899,0.0489 -1.65997,0.14301 -0.50201,0.095 -0.94501,0.23096 -1.30902,0.396 -0.35998,0.16998 -0.646,0.36895 -0.82703,0.59198 -0.18597,0.221 -0.263,0.46301 -0.22595,0.72302 l 2.49896,15.42199 c 0.041,0.26099 0.20203,0.50898 0.46399,0.73395 0.25403,0.22705 0.60505,0.43103 1.02906,0.60205 0.41894,0.172 0.91595,0.31 1.45099,0.40198 0.54095,0.096 1.122,0.15003 1.72601,0.15003 l 102.31587,9.7e-4 c 0.6102,0 1.1701,-0.052 1.6701,-0.14697 0.5,-0.096 0.9401,-0.23303 1.3,-0.40503 0.35,-0.17102 0.63,-0.37402 0.8,-0.59998 0.17,-0.22601 0.24,-0.47601 0.18,-0.73504 l -3.43,-15.42298 c -0.05,-0.25903 -0.23,-0.50299 -0.49,-0.72302 z m 10.73,16.88104 c 0.28,0.22596 0.64,0.42896 1.08,0.59998 0.43,0.172 0.93,0.31 1.48,0.40503 0.53,0.0959 1.12,0.14996 1.72,0.14996 h 43.65 c 0.6,0 1.16,-0.055 1.66,-0.14996 0.5,-0.0941 0.93,-0.23303 1.28,-0.40204 0.35,-0.172 0.6199,-0.37396 0.78,-0.59998 0.16,-0.229 0.23,-0.47601 0.16,-0.73498 l -3.92,-15.42401 c -0.06,-0.25904 -0.25,-0.50104 -0.5201,-0.72504 -0.2698,-0.22198 -0.6398,-0.41797 -1.0699,-0.586 -0.4401,-0.17096 -0.9401,-0.30298 -1.48,-0.39996 -0.54,-0.091 -1.12,-0.14502 -1.7101,-0.14502 H 1073.74 c -0.59,0 -1.15,0.054 -1.64,0.14502 -0.5,0.095 -0.93,0.229 -1.2801,0.39697 -0.3599,0.16901 -0.63,0.36701 -0.7899,0.58899 -0.17,0.22003 -0.24,0.466 -0.18,0.72504 l 3.48,15.422 c 0.06,0.25897 0.2301,0.50897 0.5,0.734 z m -743.825,23.693 c 0.54599,-0.10004 1.04999,-0.24103 1.47901,-0.41504 0.42999,-0.17597 0.793,-0.38196 1.05798,-0.61499 0.263,-0.23297 0.43201,-0.48596 0.47702,-0.75299 l 2.74399,-15.81 c 0.045,-0.26099 -0.033,-0.51099 -0.21399,-0.73901 -0.18402,-0.22901 -0.47,-0.43299 -0.83902,-0.60401 -0.36398,-0.17096 -0.81399,-0.31201 -1.32098,-0.40796 -0.50702,-0.096 -1.07202,-0.14703 -1.67801,-0.14703 l -43.72602,-0.002 c -0.60098,0 -1.18798,0.052 -1.73199,0.14905 -0.54099,0.097 -1.04099,0.23499 -1.47199,0.40796 -0.42901,0.17102 -0.789,0.37402 -1.05801,0.60401 -0.268,0.22699 -0.44,0.47601 -0.49399,0.73803 l -3.19,15.81098 c -0.055,0.26397 0.018,0.52002 0.19299,0.75299 0.17801,0.229 0.45801,0.43798 0.82102,0.61401 0.36599,0.17499 0.81598,0.315 1.323,0.414 0.51098,0.098 1.07897,0.15399 1.69,0.15399 h 44.19 c 0.60998,9.8e-4 1.202,-0.053 1.74899,-0.15197 z M 194.86,719.94 c 0.355,0.172 0.797,0.315 1.302,0.41199 0.50099,0.10003 1.07399,0.15399 1.683,0.15399 l 69.82099,0.002 c 0.61203,0 1.20401,-0.057 1.75302,-0.15399 0.55099,-0.099 1.057,-0.23901 1.492,-0.414 0.43298,-0.177 0.801,-0.38501 1.07398,-0.61401 0.27102,-0.23297 0.44601,-0.48902 0.49902,-0.75299 l 3.25598,-15.81202 c 0.056,-0.26196 -0.016,-0.51098 -0.18899,-0.737 -0.17499,-0.229 -0.45401,-0.43298 -0.814,-0.604 -0.35901,-0.17297 -0.79999,-0.31201 -1.30499,-0.40796 -0.50202,-0.098 -1.069,-0.14905 -1.672,-0.14905 h -69.089 c -0.60502,0 -1.19201,0.051 -1.74001,0.14704 -0.548,0.096 -1.05499,0.23498 -1.49,0.40802 -0.441,0.16998 -0.81099,0.375 -1.088,0.60199 -0.278,0.229 -0.46199,0.479 -0.525,0.74096 L 193.905,718.57 c -0.066,0.26697 -0.005,0.521 0.16299,0.75599 0.16301,0.22802 0.43502,0.43798 0.79201,0.61401 z m 194.08699,0.41602 c 0.54202,-0.097 1.03799,-0.23804 1.461,-0.41504 0.422,-0.17597 0.77801,-0.38196 1.035,-0.61396 0.25501,-0.23205 0.414,-0.487 0.452,-0.75402 l 2.24503,-15.81 c 0.039,-0.26099 -0.049,-0.51099 -0.23502,-0.73798 -0.19199,-0.22705 -0.483,-0.43304 -0.854,-0.604 -0.36798,-0.17102 -0.82199,-0.31 -1.32999,-0.40802 -0.51001,-0.097 -1.07901,-0.14697 -1.68402,-0.14697 l -43.72299,-10e-4 c -0.60498,0 -1.18799,0.052 -1.728,0.14703 -0.54199,0.097 -1.035,0.237 -1.45898,0.40796 -0.42603,0.17102 -0.78302,0.375 -1.04102,0.60401 -0.26199,0.229 -0.42499,0.479 -0.46899,0.73901 l -2.694,15.81 c -0.043,0.26703 0.036,0.52002 0.21798,0.75299 0.18402,0.23303 0.474,0.43902 0.84101,0.61499 0.371,0.17401 0.824,0.315 1.33401,0.41504 0.51199,0.099 1.08499,0.15197 1.698,0.15295 H 387.202 c 0.61099,10e-4 1.20102,-0.0539 1.74499,-0.15295 z m 58.92902,0.002 c 0.53799,-0.099 1.031,-0.23999 1.44998,-0.41699 0.42001,-0.17499 0.76602,-0.38196 1.01501,-0.61396 0.249,-0.23004 0.40201,-0.484 0.431,-0.75402 l 1.74601,-15.80902 c 0.028,-0.26099 -0.066,-0.51099 -0.26102,-0.737 -0.19699,-0.22901 -0.49298,-0.43201 -0.86899,-0.60498 -0.37601,-0.16797 -0.83401,-0.30903 -1.34601,-0.40497 -0.51199,-0.097 -1.08297,-0.15003 -1.68799,-0.15003 h -43.72201 c -0.60397,0 -1.185,0.053 -1.72299,0.14698 -0.53501,0.10003 -1.02799,0.237 -1.44599,0.40802 -0.419,0.17401 -0.76699,0.37701 -1.022,0.604 -0.25101,0.22803 -0.41,0.47803 -0.44601,0.73798 l -2.193,15.80999 c -0.037,0.26703 0.05,0.521 0.241,0.75403 0.19101,0.23303 0.48599,0.43799 0.86002,0.61402 0.37698,0.177 0.83297,0.31799 1.349,0.41497 0.51498,0.099 1.08999,0.15302 1.69799,0.15302 H 446.138 c 0.60901,0 1.19699,-0.055 1.73801,-0.15204 z M 461.237,701.01703 c -0.534,0.097 -1.01801,0.237 -1.43201,0.40497 -0.414,0.17401 -0.754,0.37799 -1,0.60498 -0.246,0.22705 -0.393,0.47802 -0.423,0.737 L 456.686,718.573 c -0.03,0.27002 0.067,0.52301 0.26599,0.75402 0.197,0.232 0.49802,0.43897 0.88001,0.61396 0.379,0.177 0.84,0.31799 1.35599,0.41699 0.517,0.097 1.09201,0.15301 1.70102,0.15301 l 44.19198,10e-4 c 0.61402,0 1.19901,-0.056 1.73599,-0.15405 0.53403,-0.098 1.02301,-0.23895 1.43601,-0.41498 0.41299,-0.17401 0.75302,-0.38397 0.996,-0.61297 0.24201,-0.23304 0.38602,-0.487 0.405,-0.75501 l 1.25201,-15.81 c 0.019,-0.26098 -0.084,-0.50903 -0.28601,-0.73803 -0.20401,-0.22797 -0.509,-0.43097 -0.89099,-0.60297 -0.38101,-0.17102 -0.84302,-0.31201 -1.35602,-0.40802 -0.51898,-0.097 -1.08898,-0.14801 -1.69497,-0.14801 l -43.728,-0.002 c -0.60202,0 -1.18201,0.0539 -1.71301,0.151 z m 58.32397,0 c -0.53094,0.097 -1.01397,0.237 -1.41998,0.40796 -0.409,0.17199 -0.74701,0.375 -0.98498,0.60302 -0.237,0.22901 -0.37903,0.47797 -0.39899,0.73798 l -1.198,15.81 c -0.021,0.268 0.083,0.52099 0.29096,0.755 0.20501,0.22998 0.51104,0.43903 0.89801,0.61298 0.38598,0.17602 0.85101,0.31702 1.37402,0.41504 0.51898,0.099 1.099,0.15399 1.70801,0.15399 h 44.18499 c 0.60999,0 1.19196,-0.056 1.72699,-0.15302 0.53302,-0.097 1.01697,-0.23797 1.42402,-0.41601 0.40698,-0.17395 0.73999,-0.38098 0.97796,-0.61298 0.232,-0.23297 0.36701,-0.48602 0.38104,-0.755 l 0.75098,-15.81 c 0.014,-0.26099 -0.099,-0.508 -0.30902,-0.737 -0.20898,-0.22699 -0.51996,-0.42999 -0.90698,-0.60297 -0.38703,-0.17102 -0.85401,-0.31103 -1.37299,-0.406 -0.518,-0.098 -1.08899,-0.151 -1.69403,-0.151 h -43.71899 c -0.60401,-10e-4 -1.18201,0.051 -1.71302,0.14801 z m 58.32001,0.003 c -0.52698,0.096 -1.005,0.23498 -1.40601,0.406 -0.40399,0.17298 -0.73498,0.37696 -0.96698,0.60297 -0.23199,0.229 -0.36596,0.47699 -0.37799,0.737 l -0.70099,15.81 c -0.011,0.26898 0.10102,0.52203 0.31598,0.755 0.21198,0.232 0.52698,0.43903 0.91999,0.61298 0.39203,0.17804 0.862,0.31903 1.388,0.41602 0.52099,0.098 1.10101,0.15301 1.71002,0.15301 h 44.19 c 0.60999,0 1.19202,-0.054 1.72302,-0.151 0.52997,-0.099 1.00995,-0.23999 1.41297,-0.41699 0.40002,-0.17401 0.72802,-0.38202 0.95599,-0.61402 0.22504,-0.22998 0.35303,-0.48602 0.35803,-0.75201 l 0.25,-15.81 c 0.007,-0.26098 -0.112,-0.51098 -0.328,-0.737 -0.21802,-0.229 -0.53302,-0.43298 -0.927,-0.60498 -0.39502,-0.16998 -0.862,-0.31097 -1.38404,-0.406 -0.52294,-0.097 -1.09497,-0.15101 -1.70196,-0.15101 h -43.72199 c -0.60601,-0.002 -1.18103,0.052 -1.70904,0.15003 z m 58.32202,0 c -0.52301,0.096 -0.99603,0.23596 -1.39203,0.406 -0.39996,0.17298 -0.72296,0.37696 -0.948,0.60498 -0.22497,0.22699 -0.34899,0.47699 -0.35095,0.737 l -0.20599,15.81 c -0.002,0.26599 0.11896,0.521 0.33795,0.75202 0.22101,0.23199 0.54102,0.44 0.93903,0.61395 0.39801,0.177 0.87298,0.31805 1.39801,0.41705 0.52795,0.098 1.10797,0.151 1.721,0.151 l 44.18097,0.002 c 0.61103,0 1.19001,-0.056 1.72004,-0.15296 0.52697,-0.097 1.00097,-0.23901 1.39599,-0.41705 0.39795,-0.172 0.71698,-0.38196 0.93598,-0.61395 0.22399,-0.23005 0.341,-0.48505 0.33599,-0.75104 L 686.02502,702.768 c -0.004,-0.26098 -0.12903,-0.50903 -0.354,-0.73602 -0.22504,-0.229 -0.54804,-0.42999 -0.94202,-0.604 -0.40002,-0.172 -0.87402,-0.31299 -1.39899,-0.40796 -0.52301,-0.0971 -1.10003,-0.14801 -1.70501,-0.14801 h -43.71601 c -0.604,-0.001 -1.18096,0.051 -1.70599,0.14801 z m 58.32001,0 c -0.52301,0.096 -0.98804,0.23596 -1.38599,0.40796 -0.39001,0.17505 -0.70703,0.375 -0.92505,0.604 -0.21899,0.22803 -0.33898,0.47601 -0.33197,0.73602 l 0.297,15.81098 c 0.002,0.26599 0.13202,0.52099 0.36102,0.75104 0.22699,0.23297 0.55396,0.44195 0.95997,0.617 0.40301,0.17499 0.88403,0.31696 1.41101,0.414 0.53003,0.098 1.11401,0.15296 1.72198,0.15296 h 44.18799 c 0.61005,0 1.18805,-0.054 1.71204,-0.15296 0.52697,-0.097 0.99597,-0.23901 1.38897,-0.414 0.39002,-0.17505 0.70404,-0.38403 0.91504,-0.61603 0.21295,-0.23102 0.32398,-0.48602 0.31299,-0.75201 l -0.745,-15.81098 c -0.012,-0.26001 -0.14502,-0.50903 -0.37603,-0.734 -0.23395,-0.22797 -0.56098,-0.43201 -0.96796,-0.60498 -0.401,-0.17304 -0.88104,-0.31 -1.40802,-0.40601 -0.526,-0.097 -1.107,-0.151 -1.70801,-0.151 H 696.216 c -0.599,-10e-4 -1.172,0.054 -1.69299,0.14801 z m 58.31702,0.002 c -0.51606,0.097 -0.98005,0.23303 -1.36701,0.40601 -0.39001,0.17401 -0.69702,0.37805 -0.90802,0.60504 -0.21002,0.22595 -0.31799,0.47498 -0.30798,0.73401 L 751.052,718.578 c 0.015,0.26599 0.15198,0.521 0.38397,0.75202 0.23505,0.23199 0.57202,0.44098 0.97705,0.61596 0.40998,0.17499 0.89399,0.31702 1.43,0.414 0.53296,0.10004 1.11297,0.15302 1.72796,0.15302 h 44.17603 c 0.612,0 1.18799,-0.053 1.711,-0.151 0.52099,-0.098 0.98401,-0.23902 1.36999,-0.41498 0.38703,-0.17602 0.69397,-0.38202 0.90003,-0.61401 0.20398,-0.232 0.30694,-0.487 0.28595,-0.75501 l -1.24097,-15.80798 c -0.021,-0.26105 -0.164,-0.51105 -0.40301,-0.737 -0.237,-0.22803 -0.573,-0.43103 -0.98298,-0.60504 -0.40802,-0.16999 -0.89001,-0.31 -1.42102,-0.40601 -0.531,-0.095 -1.10998,-0.151 -1.71301,-0.151 h -43.716 c -0.60596,0 -1.18,0.055 -1.69696,0.151 z m 58.31396,0 c -0.51398,0.098 -0.97296,0.23602 -1.35498,0.40906 -0.38299,0.172 -0.68701,0.375 -0.888,0.60297 -0.20404,0.22699 -0.30902,0.47699 -0.284,0.737 l 1.29102,15.80798 c 0.02,0.268 0.16699,0.52203 0.40796,0.755 0.242,0.232 0.58002,0.43799 0.99603,0.61402 0.41699,0.17602 0.90497,0.31701 1.44196,0.41498 0.53705,0.099 1.11902,0.151 1.72803,0.151 l 44.18701,10e-4 c 0.60998,0 1.18597,-0.054 1.70398,-0.151 0.51703,-0.099 0.97497,-0.23803 1.35699,-0.41601 0.37702,-0.17499 0.67603,-0.38202 0.87201,-0.61402 0.19501,-0.23095 0.29401,-0.487 0.26398,-0.75201 l -1.73896,-15.811 c -0.029,-0.26099 -0.17901,-0.51099 -0.42199,-0.73603 -0.24701,-0.22699 -0.58905,-0.42999 -1.00104,-0.60394 -0.41297,-0.17304 -0.89697,-0.31201 -1.43097,-0.40906 -0.53601,-0.095 -1.11499,-0.14899 -1.72101,-0.14899 h -43.71802 c -0.60601,0 -1.17401,0.055 -1.69,0.14899 z m 58.315,0.002 c -0.50897,0.096 -0.96698,0.234 -1.341,0.40704 -0.37598,0.17395 -0.67297,0.37695 -0.87097,0.60394 -0.19202,0.22601 -0.28601,0.47601 -0.26105,0.73602 l 1.79505,15.81098 c 0.025,0.26501 0.17999,0.52106 0.42895,0.75201 0.24902,0.232 0.59705,0.43903 1.01605,0.61402 0.42096,0.17798 0.91297,0.32 1.45197,0.41803 0.54004,0.0959 1.13,0.14898 1.73803,0.14898 H 917.604 c 0.607,0 1.18299,-0.052 1.69702,-0.14898 0.51795,-0.098 0.96997,-0.24005 1.34595,-0.41706 0.37701,-0.17498 0.66803,-0.38195 0.85803,-0.61499 0.19202,-0.23095 0.27802,-0.48596 0.23798,-0.75201 l -2.23499,-15.80896 c -0.036,-0.26202 -0.195,-0.51001 -0.44598,-0.73804 -0.25501,-0.22699 -0.604,-0.42999 -1.02203,-0.60394 -0.422,-0.17304 -0.91297,-0.31103 -1.44898,-0.40601 -0.53497,-0.095 -1.11902,-0.15002 -1.72101,-0.15002 h -43.71301 c -0.60596,0 -1.17401,0.055 -1.68799,0.14899 z m 58.31104,10e-4 c -0.51105,0.096 -0.96204,0.23297 -1.33203,0.40601 -0.36902,0.17395 -0.66199,0.37695 -0.849,0.60394 -0.19,0.22901 -0.27503,0.47705 -0.23603,0.73804 l 2.28705,15.80896 c 0.039,0.26605 0.19599,0.52106 0.45301,0.75201 0.25994,0.23304 0.60797,0.44001 1.039,0.61499 0.42498,0.17701 0.92096,0.31903 1.46399,0.41706 0.54095,0.098 1.13098,0.151 1.73999,0.151 h 44.18298 c 0.61102,0 1.18103,-0.054 1.69,-0.151 0.51398,-0.098 0.96002,-0.24005 1.33099,-0.41504 0.36805,-0.177 0.65503,-0.38202 0.84003,-0.61402 0.18201,-0.23394 0.26196,-0.48596 0.216,-0.755 l -2.73602,-15.80896 c -0.045,-0.26001 -0.21301,-0.50903 -0.474,-0.73499 -0.25598,-0.22601 -0.61102,-0.43304 -1.03698,-0.604 -0.42603,-0.17304 -0.91803,-0.31305 -1.45704,-0.40802 -0.53796,-0.095 -1.12298,-0.14899 -1.72399,-0.14899 l -43.719,-10e-4 c -0.604,-9.7e-4 -1.17297,0.0551 -1.67895,0.14905 z m 137.01997,0.004 c -0.54,-0.096 -1.13,-0.14899 -1.7301,-0.14899 l -74.82887,-0.004 c -0.60205,0 -1.16803,0.055 -1.67603,0.151 -0.50702,0.096 -0.95202,0.23401 -1.315,0.406 -0.367,0.172 -0.65198,0.37903 -0.83002,0.60401 -0.185,0.22699 -0.26397,0.47601 -0.21698,0.737 l 2.79199,15.807 c 0.046,0.26899 0.21302,0.521 0.47602,0.75501 0.26898,0.23199 0.62701,0.43799 1.05597,0.61401 0.43103,0.17499 0.932,0.31702 1.48004,0.41498 0.54498,0.098 1.138,0.151 1.74597,0.151 H 1067.38 c 0.6,0 1.17,-0.052 1.6801,-0.14996 0.5098,-0.099 0.9499,-0.24005 1.3099,-0.41602 0.36,-0.17401 0.64,-0.38202 0.8101,-0.61401 0.1799,-0.232 0.2399,-0.48602 0.1799,-0.75098 l -3.5,-15.81103 c -0.06,-0.26001 -0.23,-0.51001 -0.51,-0.73597 -0.27,-0.22705 -0.63,-0.43304 -1.06,-0.604 -0.44,-0.172 -0.94,-0.31 -1.49,-0.40503 z m -771.912,42.16602 c 0.37,0.17999 0.82501,0.328 1.34201,0.42901 0.51599,0.099 1.09299,0.15296 1.71399,0.15296 l 44.73801,0.003 c 0.61798,0 1.216,-0.058 1.76898,-0.15601 0.55002,-0.10101 1.05701,-0.24804 1.491,-0.427 0.436,-0.17902 0.79702,-0.39502 1.06301,-0.63202 0.266,-0.23602 0.43601,-0.49499 0.47901,-0.76898 l 2.67099,-16.20404 c 0.044,-0.26898 -0.039,-0.52301 -0.22501,-0.758 -0.185,-0.23297 -0.475,-0.44 -0.84698,-0.61798 -0.37,-0.17602 -0.82401,-0.31799 -1.336,-0.41803 -0.517,-0.098 -1.08802,-0.15198 -1.70001,-0.15198 l -44.263,-9.7e-4 c -0.612,0 -1.20401,0.056 -1.75501,0.15295 -0.547,0.10004 -1.05099,0.242 -1.48398,0.41705 -0.436,0.17798 -0.802,0.38599 -1.06802,0.61896 -0.26898,0.23401 -0.44,0.48902 -0.495,0.758 L 291.853,741.794 c -0.054,0.27198 0.022,0.534 0.20001,0.771 0.17999,0.237 0.46698,0.45398 0.83499,0.63 z m -103.78,0 c 0.36099,0.17999 0.808,0.328 1.31799,0.42596 0.51101,0.10101 1.08301,0.15601 1.70301,0.15601 h 86.035 c 0.61402,0 1.21399,-0.055 1.76999,-0.15296 0.55502,-0.10101 1.065,-0.24902 1.50702,-0.42901 0.43899,-0.17701 0.811,-0.39399 1.08398,-0.63001 0.27402,-0.23602 0.45002,-0.49798 0.504,-0.77099 l 3.207,-16.20203 c 0.053,-0.26898 -0.023,-0.52301 -0.20099,-0.758 -0.17801,-0.23297 -0.462,-0.44098 -0.828,-0.61895 -0.36499,-0.17701 -0.81399,-0.31702 -1.32501,-0.41706 -0.508,-0.098 -1.07898,-0.15295 -1.68698,-0.15295 l -85.121,-0.002 c -0.614,0 -1.20701,0.057 -1.76001,0.15302 -0.556,0.1 -1.06701,0.242 -1.51101,0.41595 -0.444,0.17804 -0.821,0.38904 -1.10099,0.62 -0.282,0.23401 -0.47001,0.48804 -0.538,0.75702 l -4.018,16.20502 c -0.066,0.27099 -0.005,0.53399 0.16,0.77099 0.168,0.237 0.444,0.45203 0.802,0.63001 z m 163.435,0.002 c 0.37701,0.17896 0.83499,0.32599 1.354,0.427 0.51801,0.099 1.09799,0.15601 1.719,0.15601 l 44.74499,9.8e-4 c 0.61502,0 1.21002,-0.059 1.76001,-0.15699 0.54599,-0.10101 1.051,-0.24804 1.47901,-0.42602 0.42898,-0.17999 0.78598,-0.39301 1.04599,-0.63001 0.255,-0.23901 0.418,-0.49798 0.45401,-0.77099 l 2.15799,-16.203 c 0.036,-0.26899 -0.054,-0.52301 -0.249,-0.75702 -0.19201,-0.23096 -0.48999,-0.44196 -0.86801,-0.62 -0.37799,-0.17499 -0.836,-0.31799 -1.35098,-0.41595 -0.51502,-0.097 -1.09,-0.15406 -1.70001,-0.15406 h -44.26999 c -0.61099,0 -1.20401,0.058 -1.75,0.15204 -0.54401,0.1 -1.043,0.24201 -1.47202,0.41797 -0.42798,0.17804 -0.78799,0.38501 -1.04999,0.61804 -0.26199,0.23395 -0.42401,0.48896 -0.46801,0.758 L 351.461,741.797 c -0.046,0.27301 0.037,0.53198 0.22299,0.76898 0.19,0.237 0.483,0.453 0.85901,0.63104 z m 59.66199,9.8e-4 c 0.38302,0.18103 0.84301,0.32501 1.367,0.42602 0.522,0.099 1.10501,0.15698 1.72101,0.15698 h 44.73599 c 0.61902,0 1.21402,-0.059 1.76001,-0.156 0.54501,-0.10199 1.04099,-0.24597 1.465,-0.427 0.423,-0.17902 0.772,-0.39301 1.02099,-0.63001 0.249,-0.23797 0.40302,-0.49798 0.43,-0.77099 L 466.354,725.595 c 0.026,-0.26996 -0.071,-0.52399 -0.27301,-0.758 -0.199,-0.23095 -0.501,-0.44195 -0.88498,-0.61798 -0.38202,-0.177 -0.84301,-0.31897 -1.363,-0.41699 -0.51902,-0.097 -1.09601,-0.15198 -1.70801,-0.15198 l -44.26001,-0.003 c -0.61298,0 -1.19901,0.058 -1.74399,0.15405 -0.54199,0.098 -1.04001,0.24097 -1.45999,0.41596 -0.427,0.17804 -0.77502,0.38904 -1.02902,0.61999 -0.25498,0.23304 -0.41199,0.48804 -0.44699,0.75702 l -2.10901,16.20301 c -0.033,0.27301 0.055,0.53198 0.251,0.77099 0.197,0.23804 0.49402,0.45099 0.878,0.63001 z m 109.24502,0.427 c 0.54199,-0.1 1.034,-0.24597 1.453,-0.427 0.417,-0.17902 0.76001,-0.39301 1.00202,-0.62903 0.24396,-0.23798 0.38599,-0.49695 0.40399,-0.77197 l 1.13996,-16.20203 c 0.019,-0.26697 -0.089,-0.52295 -0.29297,-0.75696 -0.21003,-0.23199 -0.51703,-0.44104 -0.90802,-0.61902 -0.38697,-0.177 -0.85401,-0.31701 -1.37702,-0.41699 -0.52099,-0.097 -1.099,-0.15198 -1.71197,-0.15198 h -44.25699 c -0.612,0 -1.19901,0.056 -1.73801,0.15198 -0.54199,0.098 -1.03201,0.23999 -1.449,0.41699 -0.418,0.17603 -0.76099,0.38703 -1.01099,0.61798 -0.24701,0.23304 -0.393,0.48804 -0.42102,0.758 l -1.59998,16.20203 c -0.026,0.27301 0.076,0.53302 0.27799,0.77099 0.20401,0.237 0.509,0.45099 0.89599,0.63001 0.38602,0.18103 0.85401,0.32501 1.38001,0.427 0.52701,0.098 1.10699,0.15601 1.72699,0.15601 h 44.73602 c 0.61402,0 1.20502,-0.055 1.75,-0.15601 z m 59.67096,0 c 0.539,-0.099 1.02704,-0.24597 1.43903,-0.427 0.40899,-0.17798 0.74603,-0.39301 0.98199,-0.62903 0.23401,-0.23798 0.36798,-0.49695 0.38098,-0.77197 l 0.625,-16.20203 c 0.014,-0.26697 -0.10199,-0.52295 -0.31598,-0.75696 -0.216,-0.23004 -0.53302,-0.43902 -0.92596,-0.61804 -0.393,-0.17499 -0.86505,-0.31598 -1.388,-0.41797 -0.526,-0.097 -1.10602,-0.151 -1.72003,-0.151 l -44.25501,-9.8e-4 c -0.61297,0 -1.19799,0.056 -1.73498,0.15198 -0.53803,0.10199 -1.02204,0.24298 -1.43604,0.41699 -0.41095,0.17798 -0.75,0.38703 -0.98895,0.61902 -0.23999,0.23297 -0.38202,0.48999 -0.39905,0.75696 l -1.08697,16.202 c -0.017,0.27502 0.09,0.53399 0.29699,0.77197 0.21204,0.23602 0.52698,0.45001 0.917,0.62903 0.393,0.18103 0.86401,0.32702 1.39502,0.427 0.52899,0.10101 1.11499,0.15601 1.73297,0.15601 h 44.73004 c 0.62097,0 1.211,-0.055 1.75195,-0.15601 z m 59.65601,0.002 c 0.53399,-0.10101 1.02002,-0.24798 1.42602,-0.42901 0.40601,-0.17798 0.73297,-0.39301 0.96399,-0.62903 0.22901,-0.23596 0.35199,-0.49695 0.35401,-0.771 l 0.11901,-16.20196 c 9.8e-4,-0.26801 -0.122,-0.52503 -0.34301,-0.75702 -0.22101,-0.232 -0.54297,-0.44098 -0.94397,-0.62 -0.39905,-0.17401 -0.87305,-0.31597 -1.40204,-0.41601 -0.52802,-0.097 -1.10999,-0.151 -1.72296,-0.151 h -44.25605 c -0.612,0 -1.19598,0.053 -1.72796,0.14905 -0.53504,0.10199 -1.01703,0.24298 -1.422,0.41796 -0.40601,0.17902 -0.73804,0.388 -0.97205,0.61799 -0.22997,0.23303 -0.36096,0.49005 -0.37298,0.75701 l -0.58002,16.20203 c -0.007,0.27496 0.10706,0.534 0.32605,0.77197 0.21796,0.23603 0.53595,0.45099 0.935,0.62903 0.39801,0.18097 0.875,0.328 1.40601,0.42896 0.53296,0.099 1.11999,0.15405 1.737,0.15405 H 639.034 c 0.61902,9.8e-4 1.208,-0.052 1.74298,-0.15302 z m 59.66699,0 c 0.53503,-0.10101 1.01202,-0.24701 1.41101,-0.42602 0.39905,-0.18097 0.724,-0.39496 0.94104,-0.63202 0.22199,-0.23596 0.33899,-0.49597 0.33398,-0.76996 l -0.39099,-16.20099 c -0.01,-0.27002 -0.143,-0.52704 -0.36804,-0.75903 -0.22894,-0.23102 -0.56,-0.44098 -0.96399,-0.617 -0.40399,-0.17701 -0.88598,-0.31897 -1.41498,-0.417 -0.53302,-0.099 -1.11798,-0.15301 -1.72998,-0.15301 H 654 c -0.60797,0 -1.19,0.055 -1.72198,0.15301 -0.529,0.098 -1.00605,0.23999 -1.40802,0.414 -0.40101,0.17902 -0.72797,0.388 -0.95301,0.62 -0.22796,0.23102 -0.35101,0.48901 -0.35296,0.75702 l -0.066,16.20196 c -9.8e-4,0.27301 0.12298,0.534 0.35003,0.771 0.22498,0.23602 0.55396,0.45105 0.95801,0.62903 0.40399,0.182 0.88696,0.328 1.41895,0.42901 0.53399,0.10102 1.12402,0.154 1.737,0.154 l 44.74005,0.002 c 0.61999,0 1.20898,-0.055 1.74194,-0.15601 z m 59.65601,0 c 0.531,-0.10101 1.00402,-0.24701 1.39703,-0.42498 0.39197,-0.18201 0.711,-0.39405 0.92297,-0.63202 0.21503,-0.237 0.32404,-0.49701 0.30805,-0.771 l -0.90302,-16.20099 c -0.015,-0.26904 -0.15002,-0.52405 -0.39001,-0.75604 -0.23297,-0.23401 -0.57202,-0.44397 -0.98102,-0.61896 -0.41199,-0.17602 -0.896,-0.31903 -1.43097,-0.41803 -0.53503,-0.099 -1.12103,-0.15198 -1.73102,-0.15198 h -44.25201 c -0.61298,0 -1.19696,0.054 -1.72101,0.15198 -0.52698,0.098 -1,0.23999 -1.39697,0.41699 -0.396,0.17603 -0.71198,0.38599 -0.93097,0.61701 -0.21503,0.23102 -0.33301,0.48901 -0.32501,0.75903 l 0.44299,16.20099 c 0.007,0.27301 0.138,0.53296 0.37201,0.76996 0.23096,0.23706 0.565,0.45105 0.97595,0.63202 0.40906,0.17901 0.89502,0.32501 1.43201,0.42602 0.54101,0.10101 1.13403,0.15601 1.74804,0.15601 l 44.72901,9.7e-4 c 0.61694,0 1.20294,-0.056 1.73395,-0.15698 z m 59.65899,0 c 0.526,-0.10101 0.99506,-0.24603 1.38501,-0.42498 0.39002,-0.18201 0.70099,-0.39405 0.90503,-0.63202 0.20697,-0.237 0.30798,-0.49701 0.284,-0.771 l -1.41498,-16.20099 c -0.0211,-0.26904 -0.16803,-0.52405 -0.41101,-0.75403 -0.24701,-0.23401 -0.591,-0.445 -1.00501,-0.62097 -0.41803,-0.17602 -0.906,-0.31702 -1.445,-0.41803 -0.53699,-0.099 -1.12299,-0.15198 -1.73303,-0.15198 h -44.26197 c -0.60803,0 -1.18603,0.054 -1.70801,0.15198 -0.52203,0.10101 -0.98999,0.24201 -1.37799,0.41803 -0.393,0.17499 -0.703,0.38495 -0.914,0.61896 -0.20801,0.23102 -0.31604,0.487 -0.302,0.75604 l 0.95398,16.20099 c 0.017,0.27301 0.15698,0.53296 0.39703,0.771 0.23999,0.23797 0.57898,0.45001 0.99598,0.63202 0.41198,0.17895 0.90197,0.32397 1.44201,0.42498 0.539,0.10199 1.13001,0.15699 1.74597,0.15699 h 44.737 c 0.61603,0 1.20002,-0.055 1.72699,-0.15699 z m 59.651,0 c 0.526,-0.098 0.99201,-0.24603 1.37403,-0.42303 0.38202,-0.18097 0.68597,-0.39496 0.88501,-0.63397 0.19702,-0.23603 0.29101,-0.49604 0.25799,-0.771 l -1.92401,-16.19904 c -0.033,-0.268 -0.18701,-0.52398 -0.43597,-0.75598 -0.25202,-0.23401 -0.60199,-0.44299 -1.02204,-0.61902 -0.42199,-0.177 -0.919,-0.31897 -1.458,-0.41998 -0.54297,-0.098 -1.13001,-0.14899 -1.73999,-0.14899 h -44.25098 c -0.60999,0 -1.18903,0.051 -1.711,0.14899 -0.521,0.10101 -0.98303,0.24201 -1.367,0.41803 -0.38501,0.17597 -0.69001,0.38697 -0.891,0.62097 -0.20404,0.23102 -0.30499,0.48499 -0.27899,0.75403 l 1.46295,16.20099 c 0.026,0.27301 0.17505,0.53296 0.41706,0.771 0.25195,0.23901 0.59594,0.45001 1.01996,0.63202 0.42004,0.17895 0.914,0.32397 1.46099,0.42498 0.54401,0.10199 1.138,0.15699 1.75605,0.15699 h 44.72296 c 0.61999,0 1.203,-0.055 1.72198,-0.15699 z m 59.66205,0 c 0.51898,-0.097 0.98096,-0.24402 1.357,-0.42303 0.37896,-0.18097 0.67401,-0.39496 0.86297,-0.63397 0.19,-0.23603 0.27698,-0.49604 0.23499,-0.771 l -2.435,-16.198 c -0.039,-0.26703 -0.203,-0.52502 -0.461,-0.75702 -0.25696,-0.23199 -0.61499,-0.44299 -1.03998,-0.61902 -0.42602,-0.177 -0.92499,-0.31897 -1.47302,-0.41796 -0.54199,-0.10004 -1.133,-0.15003 -1.74499,-0.15003 l -44.25397,-9.8e-4 c -0.61603,0 -1.19104,0.052 -1.70905,0.15101 -0.51995,0.099 -0.97699,0.24096 -1.35394,0.41796 -0.38,0.17603 -0.677,0.38501 -0.87402,0.61902 -0.19501,0.23102 -0.28803,0.48798 -0.25598,0.75598 l 1.97699,16.19904 c 0.033,0.27399 0.18798,0.534 0.44299,0.771 0.25598,0.23901 0.60998,0.453 1.034,0.63397 0.42798,0.177 0.92999,0.32605 1.474,0.42303 C 891.40302,743.729 892,743.784 892.62,743.784 h 44.73401 c 0.61999,0 1.19897,-0.055 1.71801,-0.15699 z m 135.58798,0.004 c 0.5201,-0.10095 0.97,-0.24799 1.33,-0.427 0.37,-0.18097 0.65,-0.39398 0.8201,-0.63196 0.1699,-0.23505 0.2399,-0.49603 0.1799,-0.76904 l -3.6,-16.20197 c -0.06,-0.26599 -0.24,-0.52301 -0.51,-0.75403 -0.28,-0.234 -0.64,-0.445 -1.09,-0.61798 -0.44,-0.177 -0.95,-0.32098 -1.49,-0.42102 -0.56,-0.098 -1.15,-0.14898 -1.76,-0.14898 l -118.91701,-0.002 c -0.61402,0 -1.18598,0.051 -1.70002,0.15003 -0.51599,0.099 -0.96899,0.24096 -1.34198,0.41796 -0.37201,0.17603 -0.66601,0.38703 -0.854,0.61902 -0.18799,0.23102 -0.27301,0.48999 -0.22998,0.75702 l 2.487,16.198 c 0.043,0.27399 0.20898,0.53699 0.47101,0.771 0.263,0.23901 0.62201,0.453 1.05395,0.63397 0.435,0.17901 0.93701,0.32605 1.48505,0.42602 0.55298,0.1 1.14996,0.154 1.76996,0.154 l 120.18602,0.002 c 0.6199,0 1.2,-0.054 1.71,-0.15503 z M 379.621,747.69 c -0.19,-0.23901 -0.487,-0.45398 -0.867,-0.63501 -0.38001,-0.17999 -0.84,-0.32501 -1.362,-0.427 -0.521,-0.10101 -1.10501,-0.15399 -1.72299,-0.15399 h -44.80002 c -0.621,0 -1.219,0.054 -1.77298,0.15399 -0.55301,0.10199 -1.06101,0.24701 -1.49701,0.427 -0.43701,0.18103 -0.80399,0.39502 -1.07001,0.63501 -0.26999,0.23798 -0.44,0.49902 -0.488,0.77503 l -2.89798,16.59698 c -0.047,0.28296 0.031,0.54999 0.221,0.79297 0.18598,0.24603 0.47599,0.46204 0.857,0.64801 0.375,0.18402 0.83798,0.33301 1.36099,0.435 0.52499,0.104 1.112,0.15899 1.737,0.15899 l 45.289,0.002 c 0.625,0 1.232,-0.058 1.788,-0.16101 0.557,-0.10199 1.06799,-0.25098 1.50601,-0.435 0.435,-0.18701 0.79599,-0.40198 1.06198,-0.646 0.26602,-0.24499 0.43201,-0.51202 0.47101,-0.79498 l 2.42599,-16.59698 c 0.039,-0.27301 -0.049,-0.53602 -0.23999,-0.77503 z m -64.216,17.37299 2.96301,-16.59699 c 0.048,-0.276 -0.028,-0.53698 -0.21499,-0.77502 -0.18402,-0.23999 -0.47101,-0.45398 -0.84302,-0.63495 -0.37699,-0.18005 -0.83301,-0.32501 -1.35199,-0.42902 -0.517,-0.099 -1.09702,-0.15301 -1.715,-0.15301 L 191.468,746.471 c -0.619,0 -1.224,0.058 -1.785,0.156 -0.56,0.10199 -1.076,0.24598 -1.52899,0.42701 -0.45001,0.17999 -0.832,0.39599 -1.11701,0.63397 -0.28599,0.23999 -0.47599,0.50201 -0.544,0.77704 l -4.11699,16.59796 c -0.069,0.28302 -0.009,0.54901 0.16099,0.79303 0.167,0.242 0.446,0.46197 0.80899,0.64697 0.36501,0.185 0.81301,0.33099 1.332,0.43604 0.51601,0.104 1.09801,0.15899 1.72501,0.15899 h 124.11 c 0.62601,0 1.23099,-0.056 1.79199,-0.15899 0.56101,-0.10206 1.07602,-0.25104 1.51902,-0.435 0.44299,-0.18701 0.81298,-0.40503 1.08398,-0.64801 0.27301,-0.24402 0.448,-0.51001 0.49701,-0.79303 z m 123.121,-18.00696 c -0.384,-0.18005 -0.85101,-0.32501 -1.37601,-0.42505 -0.52499,-0.10297 -1.10699,-0.15601 -1.725,-0.15601 h -44.79898 c -0.62,0 -1.21802,0.054 -1.77002,0.15601 -0.54898,0.10004 -1.055,0.245 -1.48398,0.42505 -0.431,0.18097 -0.789,0.396 -1.04901,0.63495 -0.26199,0.23804 -0.42499,0.50201 -0.46399,0.77502 l -2.37201,16.59699 c -0.041,0.28302 0.047,0.54999 0.241,0.79498 0.195,0.24402 0.496,0.46002 0.87799,0.64606 0.38101,0.18396 0.84802,0.33398 1.37601,0.435 0.52899,0.104 1.117,0.16095 1.74099,0.16095 h 45.28702 c 0.62698,0 1.23099,-0.058 1.784,-0.15998 0.55499,-0.10199 1.06,-0.25201 1.48999,-0.43597 0.431,-0.18701 0.785,-0.40204 1.044,-0.64606 0.25699,-0.24499 0.414,-0.51196 0.44599,-0.79199 l 1.901,-16.59998 c 0.033,-0.27203 -0.064,-0.53698 -0.26199,-0.77502 -0.198,-0.23895 -0.503,-0.45496 -0.887,-0.63495 z m -68.074,23.93695 c -0.383,-0.18396 -0.85099,-0.33398 -1.37699,-0.43799 -0.52502,-0.10199 -1.11401,-0.15899 -1.73901,-0.16296 h -45.375 c -0.625,0 -1.232,0.062 -1.79199,0.16296 -0.56,0.10401 -1.07502,0.25403 -1.51902,0.43799 -0.445,0.18604 -0.815,0.40601 -1.08798,0.651 -0.276,0.24201 -0.45001,0.51203 -0.5,0.79401 l -3.01401,17.026 c -0.05,0.28802 0.029,0.56299 0.21799,0.81201 0.189,0.25098 0.48602,0.47699 0.86801,0.664 0.383,0.18799 0.85199,0.341 1.37799,0.44702 0.53202,0.10498 1.12601,0.164 1.75602,0.164 h 45.875 c 0.63198,0 1.242,-0.059 1.80798,-0.164 0.565,-0.10602 1.08102,-0.26001 1.52502,-0.44702 0.443,-0.18799 0.81299,-0.41302 1.082,-0.664 0.27198,-0.24799 0.43698,-0.52301 0.48398,-0.81201 l 2.52902,-17.026 c 0.041,-0.28198 -0.045,-0.552 -0.24301,-0.79401 -0.19201,-0.24499 -0.49399,-0.46197 -0.876,-0.651 z m -63.41999,0 c -0.375,-0.18396 -0.836,-0.33398 -1.36102,-0.43799 -0.522,-0.104 -1.112,-0.16296 -1.73798,-0.16296 H 258.565 c -0.626,0 -1.23501,0.06 -1.79998,0.16296 -0.56403,0.10401 -1.08503,0.25403 -1.53202,0.43799 -0.451,0.18604 -0.82899,0.40601 -1.11,0.651 -0.282,0.24201 -0.464,0.51203 -0.526,0.79401 l -3.573,17.02801 c -0.062,0.28601 0.01,0.56201 0.189,0.81201 0.18001,0.24897 0.468,0.47498 0.84401,0.66199 0.375,0.18799 0.83799,0.341 1.36299,0.44702 0.529,0.10498 1.119,0.164 1.754,0.164 h 45.86698 c 0.63303,0 1.24802,-0.059 1.81501,-0.164 0.569,-0.10602 1.09301,-0.26001 1.54001,-0.44702 0.45001,-0.18799 0.82501,-0.41302 1.10299,-0.664 0.27802,-0.24799 0.457,-0.52301 0.508,-0.81201 l 3.09402,-17.026 c 0.048,-0.28198 -0.026,-0.552 -0.212,-0.79401 -0.18601,-0.24499 -0.48001,-0.46496 -0.857,-0.651 z m 126.348,0.003 c -0.388,-0.18695 -0.86301,-0.33697 -1.391,-0.43994 -0.531,-0.10205 -1.122,-0.15906 -1.74801,-0.15906 h -45.37399 c -0.625,0 -1.23002,0.058 -1.78702,0.15906 -0.55799,0.10394 -1.069,0.25397 -1.50598,0.43799 -0.439,0.18799 -0.80301,0.406 -1.069,0.651 -0.26401,0.242 -0.431,0.51196 -0.47202,0.79401 l -2.45499,17.026 c -0.04,0.28796 0.045,0.56298 0.24399,0.81195 0.19602,0.25104 0.5,0.47705 0.88703,0.664 0.38699,0.18805 0.86099,0.341 1.39599,0.44702 0.53501,0.10498 1.12799,0.164 1.75901,0.164 h 45.875 c 0.63598,0 1.24398,-0.059 1.806,-0.164 0.56097,-0.10602 1.07299,-0.26001 1.50997,-0.44702 0.43601,-0.18799 0.79902,-0.41498 1.05802,-0.664 0.26199,-0.24799 0.42099,-0.52295 0.45499,-0.81195 l 1.97299,-17.026 c 0.031,-0.28101 -0.063,-0.55201 -0.26499,-0.79401 -0.20001,-0.24603 -0.50799,-0.46301 -0.89599,-0.64905 z M 445,766.50403 c 0.388,0.18396 0.858,0.33398 1.388,0.43597 0.53,0.10303 1.117,0.15998 1.73999,0.15998 l 45.29602,0.001 c 0.62399,0 1.22699,-0.059 1.775,-0.16101 0.552,-0.10199 1.053,-0.25201 1.479,-0.43597 0.423,-0.18701 0.772,-0.40204 1.022,-0.64606 0.24799,-0.24499 0.39899,-0.51196 0.41898,-0.79199 l 1.38,-16.59796 c 0.025,-0.27405 -0.081,-0.53699 -0.28698,-0.77704 -0.207,-0.23798 -0.51599,-0.45398 -0.90702,-0.63495 -0.39099,-0.17902 -0.85998,-0.32404 -1.38998,-0.42505 -0.52499,-0.1 -1.11002,-0.156 -1.73001,-0.156 h -44.80701 c -0.617,0 -1.211,0.054 -1.75799,0.156 -0.54499,0.10004 -1.042,0.245 -1.46799,0.42505 -0.42301,0.18097 -0.77402,0.396 -1.02902,0.63495 -0.25098,0.23804 -0.40799,0.50299 -0.43698,0.77502 l -1.85001,16.59998 c -0.032,0.28003 0.064,0.547 0.26599,0.79199 0.203,0.24402 0.50702,0.45905 0.89801,0.64606 z m 60.38501,0 c 0.39301,0.18396 0.87198,0.33398 1.40399,0.43597 0.534,0.10303 1.125,0.16101 1.75101,0.16101 h 45.28201 c 0.62696,0 1.22797,-0.059 1.77295,-0.16101 0.54901,-0.10199 1.04401,-0.25201 1.46503,-0.43597 0.41803,-0.18701 0.76098,-0.40204 1.00299,-0.64606 0.23999,-0.24298 0.38202,-0.51098 0.393,-0.79095 l 0.85804,-16.599 c 0.013,-0.27405 -0.098,-0.53699 -0.30902,-0.77704 -0.219,-0.23798 -0.534,-0.453 -0.93103,-0.633 -0.39698,-0.18097 -0.86799,-0.32599 -1.39899,-0.427 -0.53198,-0.1 -1.12,-0.15601 -1.73798,-0.15601 h -44.79699 c -0.62201,0 -1.21302,0.057 -1.75602,0.15601 -0.544,0.10101 -1.03701,0.24603 -1.458,0.42505 -0.41999,0.18097 -0.76499,0.396 -1.00901,0.63495 -0.24698,0.24005 -0.39398,0.50299 -0.41498,0.77704 l -1.32702,16.59796 c -0.021,0.28003 0.081,0.547 0.29101,0.79199 0.20899,0.24402 0.52301,0.45905 0.91901,0.64606 z m 60.38501,0 c 0.40198,0.18396 0.883,0.33398 1.41797,0.43597 0.53802,0.10303 1.12701,0.16101 1.755,0.16101 H 614.232 c 0.625,0 1.22198,-0.059 1.76397,-0.16101 0.54206,-0.10199 1.03504,-0.25201 1.44904,-0.43597 0.41601,-0.18402 0.74798,-0.40204 0.98602,-0.64606 0.23297,-0.24298 0.36694,-0.51098 0.37195,-0.79095 l 0.33301,-16.599 c 0.006,-0.27405 -0.11402,-0.53699 -0.33698,-0.776 -0.22198,-0.23902 -0.54803,-0.45203 -0.95099,-0.63404 -0.39801,-0.18097 -0.88104,-0.32501 -1.41504,-0.42498 -0.53399,-0.10199 -1.11999,-0.15802 -1.737,-0.15802 h -44.80297 c -0.61701,0 -1.20899,0.057 -1.74799,0.156 -0.54303,0.10101 -1.03204,0.24603 -1.44702,0.427 -0.41498,0.18 -0.75299,0.39502 -0.99201,0.633 -0.23901,0.24005 -0.38098,0.50299 -0.39196,0.77704 l -0.80402,16.599 c -0.014,0.27997 0.10101,0.54797 0.32001,0.79095 0.21795,0.24402 0.53796,0.45905 0.94,0.64606 z m 60.38501,0 c 0.40698,0.18396 0.89197,0.33398 1.43396,0.43597 0.53803,0.10303 1.13501,0.16101 1.76202,0.16101 h 45.28101 c 0.62299,0 1.21997,-0.059 1.75897,-0.16101 0.54199,-0.10199 1.02704,-0.25097 1.43402,-0.43597 0.40998,-0.18402 0.73597,-0.40204 0.96497,-0.64606 0.22601,-0.24298 0.349,-0.51098 0.34601,-0.79095 L 678.948,748.46899 c -0.004,-0.27502 -0.13501,-0.53796 -0.35901,-0.776 -0.23199,-0.23999 -0.56299,-0.453 -0.97101,-0.63501 -0.40796,-0.17895 -0.89099,-0.32501 -1.42798,-0.42498 -0.53497,-0.10199 -1.12799,-0.15802 -1.74798,-0.15802 h -44.79199 c -0.62104,0 -1.21003,0.057 -1.74903,0.15802 -0.53698,0.1 -1.02197,0.24401 -1.432,0.42498 -0.40802,0.18201 -0.73798,0.39502 -0.96802,0.63404 -0.232,0.23901 -0.35999,0.50195 -0.36597,0.776 l -0.28003,16.599 c -0.004,0.27996 0.12,0.54797 0.34503,0.79095 0.22101,0.24402 0.54901,0.46204 0.95502,0.64606 z m 59.39899,-0.64704 c 0.23498,0.24402 0.57098,0.46302 0.98095,0.646 0.41401,0.185 0.90503,0.33398 1.45002,0.43604 0.54199,0.10296 1.13598,0.16095 1.76098,0.16095 h 45.29004 c 0.62396,0 1.21802,-0.059 1.75598,-0.16095 0.53803,-0.10206 1.01898,-0.25104 1.42102,-0.43604 0.401,-0.18402 0.72296,-0.40198 0.94098,-0.646 0.219,-0.24298 0.33399,-0.51098 0.31903,-0.79101 l -0.71203,-16.59497 c -0.011,-0.276 -0.14698,-0.54102 -0.38501,-0.77899 -0.23596,-0.23999 -0.573,-0.45301 -0.98499,-0.633 -0.40997,-0.17999 -0.89996,-0.32703 -1.44299,-0.427 -0.53998,-0.10199 -1.133,-0.15503 -1.74799,-0.15503 l -44.80499,-0.003 c -0.61804,0 -1.20502,0.057 -1.73999,0.15802 -0.53302,0.1 -1.013,0.24597 -1.41504,0.427 -0.40497,0.17999 -0.729,0.393 -0.95502,0.633 -0.22399,0.23797 -0.34497,0.50097 -0.33996,0.776 l 0.242,16.59796 c 0.003,0.281 0.13501,0.54803 0.36701,0.79101 z m 60.36499,0 c 0.23999,0.24402 0.58197,0.46302 1,0.646 0.41797,0.185 0.91198,0.33398 1.45898,0.43604 0.547,0.10296 1.14502,0.16095 1.77204,0.16095 H 795.427 c 0.62598,0 1.21997,-0.059 1.75299,-0.16095 0.534,-0.10206 1.01099,-0.25104 1.40699,-0.43604 0.39502,-0.18402 0.71203,-0.40198 0.92303,-0.646 0.20801,-0.24298 0.31598,-0.51098 0.29498,-0.79101 l -1.23602,-16.59497 c -0.019,-0.276 -0.16296,-0.53998 -0.41095,-0.77899 -0.24304,-0.237 -0.58703,-0.45301 -1.005,-0.633 -0.41901,-0.17999 -0.91199,-0.32703 -1.45703,-0.42603 -0.54297,-0.10199 -1.13501,-0.156 -1.75397,-0.156 H 749.151 c -0.61999,0 -1.20801,0.054 -1.73797,0.15503 -0.53302,0.1 -1.008,0.24701 -1.40302,0.427 -0.39599,0.17999 -0.716,0.393 -0.93402,0.633 -0.21301,0.23797 -0.32599,0.50299 -0.315,0.77899 l 0.76703,16.59497 c 0.013,0.281 0.151,0.54803 0.39099,0.79101 z m 60.354,0 c 0.24799,0.24402 0.59601,0.46302 1.02002,0.646 0.422,0.185 0.92096,0.33398 1.47595,0.43604 0.54901,0.10296 1.14905,0.16095 1.77405,0.16095 h 45.28595 c 0.62402,0 1.211,-0.059 1.745,-0.16095 0.52704,-0.10206 0.99902,-0.25104 1.39001,-0.43604 0.39203,-0.18402 0.70099,-0.40198 0.90698,-0.646 0.20203,-0.24298 0.30201,-0.51098 0.27204,-0.79101 l -1.75904,-16.59497 c -0.03,-0.276 -0.18298,-0.53998 -0.43597,-0.77899 -0.25201,-0.23603 -0.604,-0.45301 -1.02899,-0.633 -0.42499,-0.17999 -0.92499,-0.32501 -1.47302,-0.42603 -0.54499,-0.099 -1.138,-0.156 -1.75299,-0.156 h -44.79999 c -0.62,0 -1.20703,0.055 -1.73401,0.156 -0.52802,0.099 -1,0.24604 -1.39002,0.42603 -0.39001,0.17999 -0.70196,0.396 -0.91101,0.633 -0.20599,0.23901 -0.31396,0.50299 -0.29297,0.77899 l 1.28803,16.59497 c 0.024,0.281 0.172,0.54803 0.41998,0.79101 z m 60.35999,0 c 0.25799,0.24402 0.61102,0.46302 1.03997,0.646 0.42902,0.185 0.93805,0.33398 1.48804,0.43604 0.55402,0.10296 1.15601,0.16095 1.78296,0.16095 h 45.276 c 0.62604,0 1.21106,-0.059 1.73902,-0.16095 0.53002,-0.10206 0.99401,-0.25104 1.38104,-0.43604 0.38397,-0.18298 0.68396,-0.40198 0.87896,-0.646 0.19703,-0.24298 0.28803,-0.51001 0.25098,-0.79101 l -2.28296,-16.59497 c -0.04,-0.276 -0.19903,-0.53803 -0.46002,-0.776 -0.25897,-0.23902 -0.61499,-0.45502 -1.047,-0.63599 -0.42999,-0.17999 -0.932,-0.32501 -1.47998,-0.42602 -0.552,-0.099 -1.14801,-0.15601 -1.76599,-0.15601 h -44.789 c -0.61999,0 -1.203,0.058 -1.729,0.15601 -0.52301,0.10101 -0.98999,0.24603 -1.375,0.42602 -0.38703,0.17999 -0.69,0.396 -0.89405,0.633 -0.19799,0.23901 -0.29498,0.50299 -0.26599,0.77899 l 1.81202,16.59497 c 0.03,0.28101 0.18499,0.54803 0.44,0.79102 z m 60.84198,0 c 0.263,0.24402 0.62603,0.46399 1.06305,0.646 0.43499,0.185 0.94097,0.33398 1.5,0.43604 0.55694,0.10296 1.15899,0.16095 1.78094,0.16095 H 1015.3 c 0.62,0 1.21,-0.0569 1.73,-0.16095 0.53,-0.10206 0.98,-0.24903 1.36,-0.43403 0.38,-0.18499 0.66,-0.40399 0.84,-0.64801 0.19,-0.24298 0.27,-0.51001 0.21,-0.79101 l -3.14,-16.59497 c -0.05,-0.276 -0.22,-0.53803 -0.5,-0.776 -0.27,-0.23902 -0.64,-0.45203 -1.07,-0.63404 -0.44,-0.18194 -0.96,-0.32599 -1.51,-0.42498 -0.55,-0.10102 -1.15,-0.159 -1.77,-0.159 h -82.58501 c -0.61401,0 -1.19501,0.058 -1.71698,0.156 -0.52099,0.10102 -0.98401,0.24604 -1.36304,0.42603 -0.38299,0.18097 -0.67999,0.396 -0.875,0.63599 -0.19299,0.23797 -0.27996,0.5 -0.24395,0.776 l 2.34198,16.59497 c 0.035,0.28204 0.20202,0.54803 0.46698,0.79101 z M 1122.8101,700.88 H 1079.11 c -0.6,0 -1.1701,0.054 -1.6701,0.14899 -0.5,0.095 -0.9499,0.232 -1.2999,0.40601 -0.36,0.17401 -0.63,0.37701 -0.8,0.604 -0.17,0.22699 -0.23,0.47699 -0.18,0.737 l 3.57,15.81 c 0.06,0.26501 0.24,0.51898 0.52,0.75098 0.27,0.23199 0.64,0.44 1.08,0.61401 0.44,0.17603 0.95,0.31702 1.5,0.41602 0.5499,0.099 1.14,0.15197 1.75,0.15197 h 44.17 c 0.61,0 1.1801,-0.053 1.6899,-0.14898 0.5,-0.099 0.9401,-0.24298 1.2901,-0.41699 0.36,-0.17603 0.63,-0.383 0.8,-0.61603 0.1599,-0.23096 0.22,-0.48297 0.1501,-0.75098 l -4.0101,-15.80798 c -0.07,-0.26099 -0.25,-0.51099 -0.53,-0.737 -0.28,-0.22803 -0.65,-0.43201 -1.09,-0.60504 -0.44,-0.172 -0.95,-0.31 -1.5,-0.40595 -0.54,-0.096 -1.13,-0.15002 -1.7399,-0.15002 z m 6.9899,22.93097 c -0.55,-0.098 -1.15,-0.14996 -1.76,-0.14996 l -44.24,-10e-4 c -0.6199,0 -1.19,0.054 -1.69,0.14905 -0.51,0.1 -0.96,0.24396 -1.32,0.42096 -0.3501,0.17303 -0.63,0.38403 -0.81,0.61804 -0.1699,0.22998 -0.23,0.48798 -0.1699,0.75397 l 3.6499,16.20202 c 0.06,0.27198 0.24,0.53296 0.52,0.76899 0.28,0.23797 0.65,0.45099 1.1,0.63202 0.45,0.17895 0.96,0.32599 1.52,0.427 0.56,0.10199 1.16,0.15497 1.78,0.15497 l 44.72,0.002 c 0.62,0 1.19,-0.056 1.7001,-0.15698 0.51,-0.10101 0.9499,-0.24603 1.3099,-0.42603 0.36,-0.18097 0.64,-0.39502 0.8,-0.63299 0.17,-0.23401 0.23,-0.49402 0.1501,-0.76898 L 1132.96,725.604 c -0.07,-0.26703 -0.26,-0.52203 -0.54,-0.75598 -0.29,-0.23199 -0.66,-0.44299 -1.1099,-0.61804 -0.4401,-0.177 -0.9501,-0.32001 -1.5101,-0.41901 z m -35.63,43.29004 h 45.28 c 0.6199,0 1.2,-0.057 1.72,-0.15899 0.5199,-0.10401 0.96,-0.25104 1.32,-0.43604 0.37,-0.185 0.65,-0.40399 0.81,-0.64801 0.17,-0.24097 0.22,-0.50995 0.15,-0.79095 l -4.21,-16.59302 c -0.07,-0.27698 -0.26,-0.53998 -0.5501,-0.77698 -0.2799,-0.23804 -0.6699,-0.453 -1.12,-0.63403 -0.4499,-0.17902 -0.9599,-0.32697 -1.5299,-0.42499 -0.56,-0.10199 -1.16,-0.15698 -1.78,-0.15698 l -44.79,-0.003 c -0.62,0 -1.19,0.059 -1.71,0.15997 -0.51,0.098 -0.96,0.24402 -1.3201,0.42499 -0.3601,0.18097 -0.6499,0.39599 -0.8199,0.63403 -0.17,0.237 -0.24,0.49896 -0.1801,0.776 l 3.7402,16.59399 c 0.07,0.28101 0.2598,0.54999 0.5399,0.79096 0.28,0.24402 0.66,0.46405 1.11,0.64801 0.46,0.185 0.9801,0.33203 1.54,0.43603 0.5699,0.10199 1.18,0.159 1.8,0.159 z m 55.48,22.36298 -4.32,-17.021 c -0.07,-0.28399 -0.2699,-0.552 -0.56,-0.79699 -0.29,-0.245 -0.68,-0.46399 -1.14,-0.64801 -0.46,-0.18598 -0.98,-0.336 -1.55,-0.43897 -0.56,-0.10303 -1.18,-0.16101 -1.8,-0.16101 h -45.36 c -0.63,0 -1.21,0.059 -1.7301,0.16101 -0.5199,0.104 -0.9699,0.25397 -1.3399,0.43799 -0.37,0.18597 -0.65,0.40399 -0.83,0.64899 -0.17,0.24499 -0.24,0.513 -0.17,0.794 l 3.8399,17.02399 c 0.06,0.289 0.25,0.56299 0.5401,0.81299 0.29,0.24804 0.67,0.47302 1.13,0.664 0.4599,0.18701 0.99,0.34002 1.56,0.445 0.57,0.10401 1.19,0.16199 1.82,0.16199 h 45.86 c 0.63,0 1.2199,-0.058 1.74,-0.164 0.52,-0.10394 0.9799,-0.25696 1.3401,-0.44598 0.3599,-0.18799 0.6499,-0.41297 0.8099,-0.66101 0.17,-0.25098 0.23,-0.52399 0.16,-0.81299 z m -119.3399,-22.52301 c 0.5599,0.10303 1.1599,0.159 1.7899,0.159 h 45.28 c 0.63,0 1.21,-0.0569 1.73,-0.159 0.51,-0.10401 0.97,-0.25098 1.3299,-0.43598 0.3702,-0.18499 0.6501,-0.40399 0.8301,-0.64801 0.18,-0.24298 0.24,-0.51001 0.18,-0.79101 l -3.67,-16.594 c -0.07,-0.27697 -0.25,-0.539 -0.53,-0.776 -0.28,-0.23797 -0.65,-0.453 -1.1,-0.63397 -0.44,-0.18103 -0.9601,-0.32702 -1.51,-0.42602 -0.56,-0.10102 -1.16,-0.159 -1.78,-0.159 h -44.7901 c -0.6199,0 -1.1999,0.059 -1.7199,0.159 -0.51,0.099 -0.97,0.24304 -1.34,0.42498 -0.37,0.18201 -0.65,0.396 -0.8299,0.63404 -0.1901,0.23797 -0.2601,0.5 -0.2101,0.776 l 3.2101,16.59497 c 0.05,0.28101 0.2299,0.54803 0.5098,0.79102 0.2701,0.24401 0.6501,0.46398 1.0901,0.64801 0.45,0.18499 0.96,0.333 1.5301,0.43597 z m 52.2399,4.70502 c -0.29,-0.245 -0.66,-0.46399 -1.1101,-0.64899 -0.4499,-0.185 -0.9799,-0.33502 -1.5399,-0.43799 -0.56,-0.10303 -1.17,-0.16101 -1.8,-0.16101 h -45.36 c -0.62,0 -1.21,0.059 -1.73,0.16101 -0.52,0.104 -0.98,0.25397 -1.36,0.43799 -0.37,0.18597 -0.66,0.40399 -0.8399,0.64899 -0.1901,0.24499 -0.2601,0.513 -0.2101,0.794 l 3.29,17.02503 c 0.06,0.28796 0.24,0.56195 0.52,0.81195 0.2799,0.24902 0.6599,0.47302 1.11,0.664 0.45,0.18805 0.97,0.34002 1.5401,0.445 0.5699,0.10401 1.1799,0.16504 1.8199,0.16504 l 45.86,-0.003 c 0.63,0 1.22,-0.058 1.74,-0.16199 0.53,-0.10498 0.99,-0.25897 1.36,-0.445 0.37,-0.19098 0.65,-0.41498 0.83,-0.664 0.18,-0.25 0.25,-0.52295 0.18,-0.81299 L 1083.08,772.44 c -0.06,-0.28198 -0.25,-0.54901 -0.53,-0.794 z m -62.22,0 c -0.28,-0.245 -0.65,-0.46399 -1.09,-0.64899 -0.45,-0.185 -0.97,-0.33704 -1.53,-0.43799 -0.56,-0.10303 -1.17,-0.16101 -1.79,-0.16101 h -45.35799 c -0.62201,0 -1.211,0.059 -1.74103,0.16101 -0.52398,0.10199 -0.987,0.25397 -1.36895,0.43799 -0.37903,0.18597 -0.67701,0.40399 -0.86603,0.64899 -0.18903,0.24499 -0.27399,0.513 -0.22901,0.794 l 2.73902,17.02503 c 0.046,0.28796 0.21698,0.56195 0.48596,0.81195 0.27502,0.24902 0.64905,0.47302 1.09003,0.664 0.445,0.18805 0.96502,0.34002 1.531,0.445 0.565,0.10401 1.18097,0.16504 1.81098,0.16504 H 1019.87 c 0.63,0 1.22,-0.061 1.75,-0.16504 0.53,-0.10498 1,-0.25799 1.37,-0.445 0.39,-0.19098 0.68,-0.41498 0.86,-0.664 0.19,-0.25 0.26,-0.52295 0.2101,-0.81195 L 1020.84,772.44 c -0.06,-0.28198 -0.23,-0.54901 -0.51,-0.794 z m -137.61101,0 c -0.255,-0.245 -0.61401,-0.46399 -1.04699,-0.64899 -0.43097,-0.18701 -0.93702,-0.33704 -1.48902,-0.43799 -0.552,-0.104 -1.15698,-0.16101 -1.77997,-0.16101 H 833.039 c -0.62598,0 -1.22003,0.058 -1.75201,0.16101 -0.53601,0.10199 -1.00898,0.25195 -1.40302,0.43799 -0.39496,0.18597 -0.70599,0.40399 -0.91296,0.64801 -0.20899,0.24597 -0.31104,0.513 -0.284,0.79498 l 1.51398,17.02503 c 0.028,0.28796 0.182,0.56195 0.435,0.81195 0.25701,0.24902 0.61102,0.47601 1.04003,0.664 0.43598,0.18805 0.94098,0.34002 1.49897,0.445 0.55798,0.10401 1.16699,0.16504 1.802,0.16504 h 45.862 c 0.63098,0 1.22803,-0.061 1.763,-0.16504 0.53601,-0.10498 1.01001,-0.25799 1.40399,-0.445 0.39002,-0.18799 0.69904,-0.41498 0.90204,-0.664 0.203,-0.25 0.29895,-0.52295 0.263,-0.81195 L 883.16998,772.44 c -0.034,-0.28198 -0.19098,-0.54901 -0.45099,-0.794 z m -62.22601,-9.8e-4 c -0.25,-0.24402 -0.599,-0.46301 -1.026,-0.64801 -0.42798,-0.18701 -0.92896,-0.33704 -1.48096,-0.43799 -0.55304,-0.104 -1.15204,-0.16101 -1.77801,-0.16101 H 770.854 c -0.62799,0 -1.22198,0.058 -1.75903,0.16101 -0.53595,0.10199 -1.01794,0.25195 -1.41595,0.43799 -0.40101,0.18597 -0.72004,0.40399 -0.93604,0.64801 -0.21698,0.24597 -0.32898,0.513 -0.31,0.79498 l 0.96601,17.02503 c 0.016,0.28796 0.156,0.56195 0.40399,0.81195 0.24804,0.24902 0.59399,0.47601 1.02099,0.664 0.42603,0.18805 0.92902,0.34002 1.48102,0.445 0.55603,0.10401 1.16199,0.16602 1.79602,0.16602 l 45.857,-9.8e-4 c 0.63397,0 1.22998,-0.061 1.77197,-0.16504 0.539,-0.10498 1.021,-0.25799 1.42004,-0.445 0.39997,-0.18799 0.71296,-0.41498 0.92499,-0.664 0.21302,-0.25 0.31598,-0.52295 0.28998,-0.81195 L 820.91803,772.44 c -0.023,-0.28302 -0.17505,-0.54901 -0.42505,-0.79498 z m -63.41998,0 c -0.24402,-0.24402 -0.58698,-0.46301 -1.008,-0.64801 -0.42102,-0.18701 -0.91601,-0.33704 -1.46399,-0.43799 -0.54699,-0.104 -1.14703,-0.16101 -1.77502,-0.16101 h -304.905 c -0.62698,0 -1.229,0.058 -1.784,0.159 -0.552,0.104 -1.05899,0.25396 -1.49099,0.44 -0.43299,0.18597 -0.788,0.40301 -1.04599,0.64801 -0.25602,0.242 -0.41501,0.513 -0.447,0.794 l -1.89401,17.02601 c -0.033,0.28796 0.066,0.56298 0.26999,0.81195 0.206,0.24902 0.51602,0.47705 0.913,0.664 0.39401,0.18805 0.871,0.341 1.406,0.44702 0.538,0.10498 1.134,0.164 1.76602,0.164 h 308.26502 c 0.63397,0 1.23395,-0.062 1.77795,-0.16602 0.54303,-0.10498 1.02899,-0.25799 1.43402,-0.445 0.40601,-0.18799 0.73102,-0.41498 0.94702,-0.664 0.22199,-0.25 0.33399,-0.52295 0.318,-0.81196 L 757.46899,772.44 c -0.014,-0.28302 -0.15496,-0.54901 -0.39599,-0.79498 z m -513.09999,-0.65204 c -0.373,-0.18396 -0.82601,-0.33398 -1.347,-0.43799 -0.52101,-0.104 -1.10601,-0.16296 -1.73401,-0.16296 h -56.13401 c -0.62699,0 -1.23799,0.06 -1.80899,0.16296 -0.56601,0.10401 -1.094,0.25403 -1.54901,0.43799 -0.45599,0.18603 -0.84599,0.40503 -1.13299,0.651 -0.29199,0.242 -0.48599,0.51202 -0.556,0.79401 l -4.23,17.02801 c -0.069,0.28601 -0.011,0.56201 0.163,0.81201 0.16799,0.24897 0.447,0.47498 0.81399,0.66199 0.37001,0.18799 0.82501,0.341 1.34801,0.44702 0.52099,0.10498 1.113,0.164 1.746,0.164 h 56.754 c 0.63499,0 1.252,-0.059 1.824,-0.164 0.571,-0.10602 1.097,-0.26001 1.554,-0.44702 0.456,-0.18799 0.838,-0.41302 1.123,-0.66199 0.286,-0.25 0.474,-0.52502 0.534,-0.81201 l 3.653,-17.02801 c 0.062,-0.28199 -0.008,-0.55201 -0.186,-0.79401 -0.179,-0.24499 -0.463,-0.46497 -0.83499,-0.651 z m 712.94398,0.65301 c -0.26697,-0.24499 -0.63598,-0.46398 -1.07501,-0.64898 -0.43799,-0.185 -0.95099,-0.33704 -1.51001,-0.43799 -0.55695,-0.104 -1.16498,-0.16101 -1.79199,-0.16101 h -56.11701 c -0.62298,0 -1.216,0.058 -1.74694,0.16101 -0.53003,0.10199 -1,0.25195 -1.38501,0.43799 -0.38904,0.18597 -0.69404,0.40399 -0.89405,0.64898 -0.20099,0.245 -0.29498,0.513 -0.25799,0.79401 l 2.08001,17.02502 c 0.032,0.28797 0.19501,0.56196 0.456,0.81196 0.26202,0.24902 0.62604,0.47601 1.06402,0.664 0.43799,0.18805 0.95099,0.34002 1.51099,0.445 0.56299,0.10401 1.17499,0.16504 1.81,0.16504 h 56.73303 c 0.63495,0 1.22797,-0.061 1.763,-0.16504 0.52899,-0.10498 1,-0.25799 1.38495,-0.445 0.38501,-0.19098 0.68603,-0.41498 0.88,-0.664 0.19202,-0.25 0.27802,-0.52295 0.23304,-0.81196 L 957.39697,772.44 c -0.043,-0.28198 -0.21197,-0.54901 -0.47998,-0.79401 z M 205.679,675.86102 c 0.326,0.15399 0.73,0.28101 1.189,0.36896 0.46299,0.088 0.984,0.13702 1.54299,0.13702 h 40.36802 c 0.55699,0 1.09799,-0.049 1.60398,-0.13501 0.5,-0.09 0.96401,-0.21496 1.36301,-0.37097 0.4,-0.15802 0.737,-0.34204 0.987,-0.54803 0.25,-0.20697 0.41499,-0.43396 0.466,-0.67298 l 2.06299,-9.31604 c 0.051,-0.23395 -0.01,-0.45794 -0.168,-0.66198 -0.15599,-0.20502 -0.41198,-0.38898 -0.73999,-0.54401 -0.32901,-0.15295 -0.73001,-0.27899 -1.19101,-0.36499 -0.461,-0.088 -0.97899,-0.13599 -1.53399,-0.13599 h -40.08699 c -0.55501,0 -1.095,0.048 -1.59401,0.133 -0.504,0.088 -0.96601,0.21301 -1.366,0.36603 -0.399,0.15497 -0.73801,0.33996 -0.993,0.54394 -0.253,0.20301 -0.421,0.42902 -0.479,0.66205 l -2.311,9.31696 c -0.059,0.23803 -0.001,0.46502 0.15,0.67199 0.154,0.20905 0.402,0.39203 0.73,0.55005 z m 54.24599,0 c 0.33102,0.15601 0.74002,0.284 1.20501,0.37097 0.46299,0.086 0.98401,0.13501 1.543,0.13501 l 40.36701,9.8e-4 c 0.55899,0 1.09799,-0.05 1.60199,-0.13599 0.49801,-0.087 0.957,-0.21398 1.354,-0.36901 0.39401,-0.15699 0.72501,-0.34198 0.97,-0.54895 0.24301,-0.20405 0.39899,-0.43403 0.444,-0.67402 l 1.78699,-9.315 c 0.046,-0.23303 -0.024,-0.45801 -0.18799,-0.66198 -0.16,-0.20606 -0.42001,-0.38904 -0.754,-0.54206 -0.333,-0.15497 -0.74301,-0.27899 -1.20401,-0.36596 -0.46298,-0.088 -0.98199,-0.13501 -1.53799,-0.13501 l -40.08499,-9.8e-4 c -0.556,0 -1.091,0.046 -1.59302,0.13397 -0.49698,0.086 -0.95798,0.21204 -1.354,0.36603 -0.396,0.15497 -0.72898,0.33795 -0.97599,0.54297 -0.25,0.20404 -0.41,0.42804 -0.462,0.66198 l -2.03101,9.31604 c -0.053,0.23902 0.011,0.46601 0.168,0.67298 0.16,0.20703 0.41299,0.393 0.745,0.54803 z m 54.25,0.004 c 0.33801,0.15503 0.74801,0.28003 1.216,0.367 0.466,0.088 0.98602,0.13599 1.54202,0.13599 l 40.375,0.003 c 0.55899,0 1.095,-0.051 1.59299,-0.13696 0.49701,-0.088 0.95599,-0.21399 1.345,-0.36902 0.38999,-0.15601 0.715,-0.344 0.95801,-0.55097 0.233,-0.20404 0.38599,-0.43304 0.42499,-0.67303 l 1.50799,-9.31299 c 0.038,-0.23498 -0.037,-0.461 -0.211,-0.66199 -0.16799,-0.20703 -0.43298,-0.39203 -0.77099,-0.54504 -0.33701,-0.15295 -0.75,-0.27795 -1.216,-0.36499 -0.46701,-0.0879 -0.98301,-0.13599 -1.53501,-0.13599 h -40.095 c -0.55298,0 -1.08701,0.048 -1.58398,0.13599 -0.49301,0.086 -0.952,0.21204 -1.344,0.36499 -0.39001,0.15301 -0.72101,0.336 -0.96402,0.54205 -0.24298,0.20398 -0.39599,0.43 -0.43899,0.66199 l -1.75601,9.315 c -0.046,0.23999 0.025,0.46997 0.19,0.67401 0.16601,0.20697 0.42801,0.39197 0.763,0.55097 z m 54.24902,0 c 0.341,0.15503 0.75497,0.281 1.224,0.37103 0.466,0.084 0.98999,0.13495 1.54498,0.13495 l 40.375,10e-4 c 0.55902,0 1.09702,-0.049 1.59201,-0.13599 0.49399,-0.088 0.94599,-0.21405 1.332,-0.36902 0.38401,-0.15698 0.70499,-0.34399 0.93601,-0.55102 0.233,-0.20496 0.375,-0.43201 0.405,-0.67298 l 1.23398,-9.315 c 0.03,-0.23199 -0.053,-0.45703 -0.22699,-0.66198 -0.172,-0.20301 -0.444,-0.388 -0.78602,-0.542 -0.34298,-0.15405 -0.75698,-0.27905 -1.22598,-0.36505 -0.47101,-0.0879 -0.992,-0.13495 -1.54599,-0.13495 L 373.19,663.62 c -0.55301,0 -1.087,0.048 -1.578,0.13598 -0.48999,0.087 -0.94101,0.21204 -1.32999,0.36499 -0.38702,0.15302 -0.70901,0.33801 -0.94202,0.54505 -0.233,0.20397 -0.38501,0.427 -0.42099,0.66198 l -1.479,9.31299 c -0.039,0.23999 0.037,0.46899 0.20999,0.67304 0.16699,0.20697 0.43402,0.39495 0.77402,0.55096 z m 54.246,0.003 c 0.345,0.15503 0.763,0.28003 1.23398,0.36804 0.47101,0.087 0.99802,0.13599 1.55502,0.13599 l 40.366,0.002 c 0.55798,0 1.09399,-0.05 1.58698,-0.138 0.49401,-0.087 0.93902,-0.21301 1.32101,-0.36804 0.38199,-0.15698 0.694,-0.34497 0.91901,-0.55096 0.22598,-0.206 0.36398,-0.43201 0.388,-0.672 l 0.95397,-9.31403 c 0.025,-0.23498 -0.063,-0.46002 -0.246,-0.664 -0.181,-0.20398 -0.45599,-0.38898 -0.80197,-0.54297 C 469.6,663.97 469.181,663.84604 468.707,663.76004 c -0.469,-0.088 -0.99301,-0.13599 -1.54502,-0.13599 H 427.078 c -0.556,0 -1.08801,0.047 -1.58002,0.13495 -0.49099,0.086 -0.93997,0.211 -1.32199,0.36505 -0.38098,0.15399 -0.69998,0.33899 -0.927,0.54297 -0.23099,0.20398 -0.36999,0.42902 -0.40201,0.66199 L 421.643,674.643 c -0.029,0.24097 0.054,0.46802 0.232,0.67298 0.177,0.20703 0.45001,0.39404 0.79501,0.552 z m 54.23999,0 c 0.35001,0.15503 0.77201,0.28101 1.24799,0.36804 0.47201,0.0879 1,0.138 1.55902,0.138 h 40.37198 c 0.55902,0 1.091,-0.048 1.58002,-0.13702 0.48797,-0.085 0.932,-0.21399 1.307,-0.36902 0.37702,-0.15497 0.68598,-0.34296 0.90399,-0.54798 0.21698,-0.20898 0.349,-0.43298 0.36402,-0.67303 l 0.67895,-9.31397 c 0.018,-0.237 -0.076,-0.46099 -0.26495,-0.66601 -0.18805,-0.203 -0.46802,-0.38696 -0.81799,-0.539 -0.35205,-0.15601 -0.77106,-0.27899 -1.24701,-0.36597 -0.47205,-0.088 -0.99304,-0.13605 -1.54505,-0.13605 l -40.08896,-0.002 c -0.556,0 -1.09002,0.048 -1.57702,0.13599 -0.48798,0.086 -0.93198,0.20996 -1.31098,0.36401 -0.37701,0.15399 -0.68902,0.33899 -0.914,0.54297 -0.22201,0.20398 -0.35702,0.42902 -0.38,0.664 l -0.92502,9.31403 c -0.025,0.23999 0.065,0.466 0.25,0.67199 0.181,0.206 0.45801,0.39399 0.80801,0.55097 z m 54.24399,0.002 c 0.35303,0.15503 0.78101,0.28199 1.25702,0.36701 0.47601,0.089 1.00299,0.138 1.56299,0.138 l 40.36798,0.003 c 0.55902,0 1.09003,-0.051 1.578,-0.13898 0.48401,-0.086 0.927,-0.21301 1.302,-0.36902 0.37,-0.15698 0.67603,-0.34302 0.88599,-0.54797 0.21704,-0.20801 0.33704,-0.435 0.349,-0.67505 l 0.401,-9.31299 c 0.012,-0.237 -0.0909,-0.46197 -0.28497,-0.66498 -0.19599,-0.20398 -0.47998,-0.38897 -0.83899,-0.54199 -0.35602,-0.15503 -0.78302,-0.27899 -1.258,-0.36499 -0.47699,-0.0891 -1,-0.13605 -1.552,-0.13605 l -40.09003,-9.7e-4 c -0.55395,0 -1.08197,0.048 -1.56695,0.13598 -0.48603,0.087 -0.92701,0.21003 -1.30005,0.36603 -0.375,0.15302 -0.68097,0.33801 -0.90198,0.539 -0.21503,0.20496 -0.34503,0.42896 -0.35999,0.66596 l -0.64703,9.31402 c -0.019,0.23999 0.077,0.46399 0.26904,0.67298 0.19001,0.20801 0.46997,0.39404 0.82697,0.55102 z m 54.245,0 c 0.35601,0.15601 0.78601,0.28302 1.26403,0.37104 0.47797,0.086 1.00397,0.13696 1.56195,0.13696 h 40.37305 c 0.55701,0 1.091,-0.051 1.57196,-0.13696 0.48602,-0.088 0.92102,-0.21503 1.29004,-0.37006 0.367,-0.15399 0.66797,-0.34399 0.87299,-0.547 0.208,-0.20996 0.32,-0.43695 0.32599,-0.67395 l 0.125,-9.31402 c 0.003,-0.237 -0.10498,-0.46002 -0.305,-0.66498 -0.20202,-0.203 -0.492,-0.38702 -0.85498,-0.54004 -0.36004,-0.15601 -0.78705,-0.28101 -1.26703,-0.36499 -0.47796,-0.088 -1.005,-0.13696 -1.56097,-0.13696 l -40.08801,-0.002 c -0.55201,0 -1.07898,0.047 -1.56202,0.13599 -0.48101,0.086 -0.91699,0.21002 -1.28601,0.36499 -0.36596,0.15301 -0.66699,0.33801 -0.88,0.54199 -0.21198,0.203 -0.32996,0.42902 -0.33997,0.66504 l -0.37103,9.31299 c -0.013,0.23901 0.093,0.466 0.28802,0.67401 0.19501,0.20496 0.482,0.39099 0.84199,0.54797 z m 54.23602,9.8e-4 c 0.367,0.15503 0.79901,0.28204 1.27997,0.37201 0.48504,0.084 1.01403,0.13501 1.57299,0.13501 l 40.35901,0.003 c 0.56,0 1.08802,-0.05 1.56903,-0.138 0.48096,-0.09 0.91797,-0.21295 1.27997,-0.36798 0.36103,-0.15802 0.651,-0.34497 0.85504,-0.54999 0.19996,-0.20703 0.30896,-0.43701 0.305,-0.67499 l -0.15003,-9.31305 c -0.006,-0.23498 -0.12298,-0.45996 -0.32696,-0.664 -0.20398,-0.20404 -0.50104,-0.38897 -0.86603,-0.54199 -0.36401,-0.156 -0.79999,-0.27997 -1.28101,-0.36597 -0.484,-0.088 -1.01001,-0.13501 -1.565,-0.13501 l -40.07696,-0.002 c -0.55402,0 -1.08002,0.049 -1.56305,0.13702 -0.47998,0.084 -0.91297,0.20899 -1.276,0.36499 -0.36396,0.15302 -0.66095,0.33899 -0.86499,0.53998 -0.20697,0.20502 -0.31702,0.42804 -0.32001,0.66504 l -0.098,9.31397 c -0.002,0.23803 0.10901,0.46399 0.31097,0.67401 0.20099,0.20501 0.49402,0.39398 0.85602,0.54797 z m 53.362,-0.54596 c 0.20996,0.20502 0.505,0.39197 0.875,0.54999 0.367,0.15503 0.80499,0.27801 1.29199,0.36798 0.48297,0.088 1.01801,0.138 1.57501,0.138 h 40.36798 c 0.55298,0 1.081,-0.05 1.56104,-0.13599 0.47796,-0.09 0.90698,-0.21496 1.26495,-0.36999 0.357,-0.15698 0.64405,-0.34302 0.83704,-0.54999 0.19501,-0.20703 0.29797,-0.43402 0.28601,-0.67102 l -0.43005,-9.315 c -0.007,-0.23596 -0.133,-0.461 -0.344,-0.664 -0.21197,-0.20398 -0.513,-0.388 -0.88098,-0.54102 -0.367,-0.15594 -0.80499,-0.28198 -1.29102,-0.36694 -0.48199,-0.086 -1.00897,-0.13501 -1.55896,-0.13501 l -40.08801,-0.001 c -0.55603,0 -1.08398,0.047 -1.56,0.13501 -0.479,0.086 -0.91101,0.21002 -1.268,0.36603 -0.35901,0.15295 -0.64704,0.33795 -0.85101,0.54199 -0.19599,0.20398 -0.30597,0.42902 -0.29999,0.664 l 0.17901,9.31299 c 0.009,0.23798 0.12598,0.46698 0.33399,0.67401 z m 54.22101,0 c 0.21399,0.20697 0.518,0.39301 0.89099,0.54999 0.37396,0.15503 0.81598,0.28101 1.30401,0.36999 0.48395,0.087 1.01996,0.13599 1.57495,0.13599 H 791.354 c 0.55799,0 1.08399,-0.047 1.56,-0.13599 0.47302,-0.086 0.89801,-0.21301 1.25403,-0.36798 0.35095,-0.15704 0.62994,-0.34301 0.82098,-0.54901 0.18799,-0.20801 0.28101,-0.43597 0.263,-0.67401 l -0.70404,-9.31299 c -0.0179,-0.23498 -0.14398,-0.461 -0.36499,-0.664 -0.21698,-0.20398 -0.52301,-0.38897 -0.89801,-0.54303 -0.37195,-0.15399 -0.81299,-0.27899 -1.297,-0.36499 -0.48498,-0.088 -1.01696,-0.13501 -1.56695,-0.13501 l -40.08301,-0.002 c -0.55603,0 -1.078,0.049 -1.55402,0.13501 -0.47601,0.085 -0.90197,0.211 -1.255,0.36694 -0.357,0.15302 -0.64502,0.33704 -0.83398,0.54102 -0.19404,0.203 -0.297,0.42804 -0.28699,0.66601 l 0.45898,9.31299 c 0.01,0.23804 0.133,0.46399 0.35102,0.67102 z m 54.22296,0.003 c 0.22204,0.206 0.52801,0.39197 0.906,0.54901 0.37702,0.15497 0.82105,0.28199 1.31104,0.36798 0.48895,0.089 1.02099,0.13703 1.57495,0.13703 h 40.37006 c 0.55798,0 1.08294,-0.048 1.55596,-0.13403 0.47803,-0.089 0.896,-0.21497 1.24604,-0.37098 0.349,-0.156 0.62298,-0.34204 0.80597,-0.54803 0.18402,-0.20801 0.27099,-0.435 0.24597,-0.67395 l -0.97998,-9.31403 c -0.027,-0.23401 -0.16297,-0.45703 -0.38599,-0.66198 -0.22497,-0.20502 -0.53802,-0.38904 -0.91302,-0.54303 -0.37897,-0.15497 -0.82599,-0.27997 -1.31397,-0.36499 -0.48901,-0.089 -1.02099,-0.133 -1.57904,-0.133 l -40.08099,-0.004 c -0.552,0 -1.07398,0.048 -1.54596,0.13501 -0.47205,0.086 -0.89404,0.211 -1.24304,0.36499 -0.34796,0.15405 -0.62696,0.33905 -0.81501,0.54303 -0.18597,0.20398 -0.27996,0.42902 -0.26098,0.664 l 0.73303,9.31299 c 0.017,0.24103 0.14795,0.46698 0.36896,0.67401 z m 54.21405,0.003 c 0.22894,0.20398 0.54498,0.39002 0.92395,0.54602 0.38104,0.15601 0.83203,0.28296 1.32202,0.37201 0.49402,0.085 1.03198,0.133 1.59003,0.133 l 40.35699,0.002 c 0.55798,0 1.07996,-0.048 1.55597,-0.13495 0.47003,-0.088 0.888,-0.216 1.23102,-0.36902 0.34399,-0.156 0.61401,-0.34399 0.79101,-0.54901 0.17499,-0.21002 0.25696,-0.43597 0.22199,-0.67401 l -1.25104,-9.31396 c -0.037,-0.23603 -0.17798,-0.45905 -0.40698,-0.66199 -0.23102,-0.20605 -0.54999,-0.38904 -0.93396,-0.54401 -0.38306,-0.15301 -0.82904,-0.28002 -1.32001,-0.36401 -0.49701,-0.088 -1.02905,-0.13501 -1.58099,-0.13501 h -40.07501 c -0.55304,0 -1.07801,0.044 -1.547,0.133 -0.47205,0.085 -0.88904,0.21301 -1.23401,0.36499 -0.34699,0.15399 -0.61902,0.33801 -0.79901,0.54303 -0.18201,0.20495 -0.271,0.42798 -0.245,0.66198 l 1.01203,9.31598 c 0.025,0.23804 0.16198,0.46399 0.388,0.67401 z m 54.21399,0 c 0.23498,0.20502 0.55395,0.39301 0.94098,0.54901 0.38397,0.15302 0.83898,0.28101 1.33697,0.36902 0.49402,0.087 1.03101,0.13495 1.58905,0.13495 l 40.35596,0.002 c 0.56,0 1.08001,-0.048 1.54803,-0.13501 0.46796,-0.09 0.883,-0.21399 1.22296,-0.37 0.34003,-0.15698 0.60505,-0.34198 0.776,-0.54901 0.16706,-0.20697 0.24402,-0.43396 0.20502,-0.672 l -1.534,-9.31598 c -0.041,-0.234 -0.18902,-0.45697 -0.427,-0.66198 -0.23498,-0.20398 -0.56,-0.38898 -0.948,-0.54303 -0.38501,-0.15198 -0.84002,-0.27997 -1.333,-0.36597 -0.49298,-0.087 -1.029,-0.13403 -1.586,-0.13403 l -40.07001,-9.8e-4 c -0.55298,0 -1.07599,0.047 -1.54095,0.13501 -0.46906,0.084 -0.88605,0.211 -1.22803,0.36401 -0.33801,0.15601 -0.60401,0.33796 -0.78101,0.54401 -0.17602,0.20294 -0.255,0.42896 -0.22497,0.66199 l 1.28796,9.31396 c 0.037,0.23902 0.177,0.46399 0.41003,0.67401 z m 54.21496,9.8e-4 c 0.23999,0.20703 0.56604,0.39203 0.96002,0.54901 0.39002,0.15601 0.85102,0.28003 1.34498,0.37 0.49603,0.087 1.03399,0.13501 1.59301,0.13501 l 40.35801,10e-4 c 0.56,0 1.08,-0.049 1.55,-0.13501 0.46,-0.089 0.87,-0.21502 1.21,-0.37103 0.33,-0.15399 0.59,-0.34198 0.76,-0.54797 0.16,-0.206 0.23,-0.43299 0.18,-0.672 l -1.8,-9.31403 c -0.05,-0.23596 -0.21,-0.45996 -0.45,-0.66296 -0.25,-0.20502 -0.57,-0.38904 -0.97,-0.54303 -0.39,-0.15399 -0.85,-0.27997 -1.34,-0.36499 -0.5,-0.088 -1.03,-0.13501 -1.59,-0.13501 h -40.08 c -0.54798,0 -1.07001,0.045 -1.53101,0.133 -0.46698,0.085 -0.87799,0.21301 -1.216,0.36499 -0.33496,0.15405 -0.59998,0.33905 -0.771,0.54303 -0.16699,0.20501 -0.242,0.42901 -0.203,0.66198 l 1.56299,9.31598 c 0.041,0.23804 0.19299,0.46503 0.432,0.672 z m 54.21602,10e-4 c 0.24,0.20599 0.57,0.39398 0.97,0.54797 0.4,0.15802 0.86,0.284 1.36,0.37104 0.5,0.086 1.04,0.13501 1.6,0.13501 l 40.36,0.002 c 0.55,0 1.07,-0.05 1.54,-0.13397 0.46,-0.087 0.87,-0.21601 1.1899,-0.37104 0.3401,-0.15698 0.5901,-0.34198 0.75,-0.54797 0.1501,-0.20898 0.2201,-0.43597 0.1601,-0.67499 l -2.08,-9.31299 c -0.06,-0.23401 -0.2199,-0.458 -0.4699,-0.66302 -0.25,-0.203 -0.5801,-0.39002 -0.9802,-0.54199 -0.3898,-0.15601 -0.8499,-0.28003 -1.3599,-0.36701 -0.49,-0.088 -1.0299,-0.13299 -1.59,-0.13299 l -40.07,-0.002 c -0.55,0 -1.07,0.047 -1.53,0.13501 -0.47,0.085 -0.87,0.211 -1.21,0.36499 -0.34,0.15399 -0.59,0.33802 -0.75,0.54303 -0.17,0.20301 -0.23,0.427 -0.19,0.66297 l 1.84,9.31402 c 0.05,0.23902 0.21,0.46601 0.46,0.672 z m 54.21,0.003 c 0.25,0.20599 0.59,0.39099 0.99,0.54797 0.4,0.15601 0.86,0.28406 1.37,0.37104 0.5,0.084 1.04,0.13397 1.6,0.13397 l 40.3499,10e-4 c 0.5601,0 1.0801,-0.049 1.5401,-0.13404 0.4599,-0.0879 0.87,-0.216 1.19,-0.37201 0.33,-0.15594 0.58,-0.34198 0.73,-0.54797 0.1501,-0.20697 0.2,-0.43402 0.14,-0.672 l -2.3599,-9.31402 c -0.06,-0.23596 -0.2301,-0.45996 -0.4902,-0.66297 -0.25,-0.20404 -0.5899,-0.388 -0.9899,-0.54303 -0.3999,-0.15496 -0.86,-0.27996 -1.37,-0.36395 -0.5,-0.088 -1.04,-0.13501 -1.59,-0.13501 h -40.07 c -0.56,0 -1.07,0.045 -1.53,0.13196 -0.4599,0.086 -0.86,0.21203 -1.19,0.367 -0.33,0.151 -0.58,0.33802 -0.73,0.54102 -0.1699,0.20502 -0.22,0.42901 -0.1699,0.66302 l 2.1199,9.31299 c 0.05,0.23902 0.21,0.466 0.46,0.67499 z"
         fill="#696969"
         id="svg_24"
         style="fill:#c0c0c0;fill-opacity:1" />
    </g>
    <g
       id="svg_25">
      <linearGradient
         y2="-0.0078459997"
         x2="0.50000298"
         y1="0.99011803"
         x1="0.50000298"
         id="SVGID_15_">
        <stop
           offset="0"
           stop-color="rgb(224,224,224)"
           id="stop180" />
        <stop
           offset="0.0564"
           stop-color="rgb(212,212,212)"
           id="stop182" />
        <stop
           offset="0.2483"
           stop-color="rgb(174,174,174)"
           id="stop184" />
        <stop
           offset="0.4398"
           stop-color="rgb(145,145,145)"
           id="stop186" />
        <stop
           offset="0.6285"
           stop-color="rgb(124,124,124)"
           id="stop188" />
        <stop
           offset="0.8131"
           stop-color="rgb(111,111,111)"
           id="stop190" />
        <stop
           offset="0.9888"
           stop-color="rgb(107,107,107)"
           id="stop192" />
      </linearGradient>
      <path
         d="M 634.42902,114.059 C 647.854,243.96201 698.341,497.91 888.047,617.117 h 228.703 l -10.86,-503.058 z"
         fill="url(#SVGID_15_)"
         id="svg_26"
         style="fill:#404040;fill-opacity:1" />
    </g>
    <polygon
       points="1105.89,114.059 1116.75,617.116 205.737,617.116 218.157,114.059 "
       stroke="#474747"
       fill="none"
       id="svg_27" />
  </g>
  <metadata
     id="metadata1103">
    <rdf:RDF>
      <cc:Work
         rdf:about="">
        <dc:title>laptop</dc:title>
      </cc:Work>
    </rdf:RDF>
  </metadata>
</svg>
