<?xml version="1.0" encoding="UTF-8" standalone="no"?>
<!-- Created with Inkscape (http://www.inkscape.org/) -->

<svg
   id="svg2"
   viewBox="0 0 778.65 535.18"
   version="1.0"
   inkscape:version="1.1.2 (0a00cf5339, 2022-02-04)"
   sodipodi:docname="cnet.workstation.svg"
   xmlns:inkscape="http://www.inkscape.org/namespaces/inkscape"
   xmlns:sodipodi="http://sodipodi.sourceforge.net/DTD/sodipodi-0.dtd"
   xmlns:xlink="http://www.w3.org/1999/xlink"
   xmlns="http://www.w3.org/2000/svg"
   xmlns:svg="http://www.w3.org/2000/svg"
   xmlns:rdf="http://www.w3.org/1999/02/22-rdf-syntax-ns#"
   xmlns:cc="http://creativecommons.org/ns#"
   xmlns:dc="http://purl.org/dc/elements/1.1/">
  <sodipodi:namedview
     id="namedview270"
     pagecolor="#ffffff"
     bordercolor="#666666"
     borderopacity="1.0"
     inkscape:pageshadow="2"
     inkscape:pageopacity="0.0"
     inkscape:pagecheckerboard="0"
     showgrid="false"
     inkscape:zoom="1.7017705"
     inkscape:cx="493.01594"
     inkscape:cy="354.92447"
     inkscape:window-width="1920"
     inkscape:window-height="1051"
     inkscape:window-x="1920"
     inkscape:window-y="0"
     inkscape:window-maximized="1"
     inkscape:current-layer="g3264" />
  <defs
     id="defs5">
    <linearGradient
       id="linearGradient2430"
       y2="155.99"
       xlink:href="#linearGradient3462"
       gradientUnits="userSpaceOnUse"
       x2="1474.5"
       gradientTransform="translate(-244 1175.6)"
       y1="165"
       x1="1474.5" />
    <linearGradient
       id="linearGradient4864"
       y2="159.47"
       spreadMethod="reflect"
       gradientUnits="userSpaceOnUse"
       x2="1474.5"
       gradientTransform="translate(-244 1175.6)"
       y1="165.47"
       x1="1474.5">
      <stop
         id="stop3577"
         style="stop-color:#575a62;stop-opacity:.99967"
         offset="0" />
      <stop
         id="stop3579"
         style="stop-color:#878a95;stop-opacity:0"
         offset="1" />
    </linearGradient>
    <linearGradient
       id="linearGradient3425"
       y2="1271"
       xlink:href="#linearGradient3484"
       gradientUnits="userSpaceOnUse"
       x2="16233"
       y1="1278.9"
       x1="16233" />
    <filter
       id="filter3490"
       x="-0.010043859"
       y="-0.04530516"
       width="1.0200877"
       height="1.0906103">
      <feGaussianBlur
         id="feGaussianBlur3492"
         stdDeviation="0.4537252"
         inkscape:collect="always" />
    </filter>
    <linearGradient
       id="linearGradient3484">
      <stop
         id="stop3486"
         style="stop-color:#6b6f7a;stop-opacity:0"
         offset="0" />
      <stop
         id="stop3488"
         style="stop-color:#ffffff"
         offset="1" />
    </linearGradient>
    <filter
       id="filter3472"
       x="-0.011618753"
       y="-0.052409083"
       width="1.0232375"
       height="1.1048182">
      <feGaussianBlur
         id="feGaussianBlur3474"
         stdDeviation="0.54447024"
         inkscape:collect="always" />
    </filter>
    <linearGradient
       id="linearGradient3462">
      <stop
         id="stop3464"
         style="stop-color:#6b6f7a;stop-opacity:0"
         offset="0" />
      <stop
         id="stop3466"
         style="stop-color:#ebebed"
         offset="1" />
    </linearGradient>
    <linearGradient
       id="linearGradient3419"
       y2="1298.2"
       xlink:href="#linearGradient3462"
       gradientUnits="userSpaceOnUse"
       x2="16233"
       y1="1292.2"
       x1="16233" />
    <filter
       id="filter3248"
       x="-0.0061009636"
       y="-0.027519814"
       width="1.0122019"
       height="1.0550396">
      <feGaussianBlur
         id="feGaussianBlur3250"
         stdDeviation="0.35153634"
         inkscape:collect="always" />
    </filter>
    <linearGradient
       id="linearGradient3417"
       y2="1269.9"
       gradientUnits="userSpaceOnUse"
       x2="16223"
       y1="1291.5"
       x1="16223">
      <stop
         id="stop3498"
         style="stop-color:#656873"
         offset="0" />
      <stop
         id="stop3500"
         style="stop-color:#c7c7cd"
         offset="1" />
    </linearGradient>
    <linearGradient
       id="linearGradient3415"
       y2="1278.5"
       xlink:href="#linearGradient3144"
       gradientUnits="userSpaceOnUse"
       x2="16233"
       y1="1309.1"
       x1="16233" />
    <linearGradient
       id="linearGradient3144">
      <stop
         id="stop3146"
         style="stop-color:#6b6f7a"
         offset="0" />
      <stop
         id="stop3148"
         style="stop-color:#c7c7cd"
         offset="1" />
    </linearGradient>
    <linearGradient
       id="linearGradient3413"
       y2="1279.1"
       xlink:href="#linearGradient3144"
       gradientUnits="userSpaceOnUse"
       x2="16223"
       y1="1308.9"
       x1="16223" />
    <filter
       id="filter3510"
       x="-0.031559467"
       y="-0.14235631"
       width="1.0631189"
       height="1.2847126">
      <feGaussianBlur
         id="feGaussianBlur3512"
         stdDeviation="0.9434504"
         inkscape:collect="always" />
    </filter>
    <linearGradient
       id="linearGradient3411"
       y2="1278.6"
       gradientUnits="userSpaceOnUse"
       x2="16234"
       y1="1319.4"
       x1="16234">
      <stop
         id="stop3228"
         style="stop-color:#0b1014"
         offset="0" />
      <stop
         id="stop3230"
         style="stop-color:#111119"
         offset="1" />
    </linearGradient>
    <radialGradient
       id="radialGradient2426"
       xlink:href="#linearGradient2894"
       gradientUnits="userSpaceOnUse"
       cy="-95.418"
       cx="809.3"
       gradientTransform="matrix(0 1.3992 -1.5948 0 1057.3 -965.75)"
       r="883.59" />
    <linearGradient
       id="linearGradient4844"
       y2="160.91"
       spreadMethod="reflect"
       gradientUnits="userSpaceOnUse"
       x2="1418.9"
       gradientTransform="translate(-244 1175.6)"
       y1="160.91"
       x1="512.05">
      <stop
         id="stop2934"
         style="stop-color:#8f919d"
         offset="0" />
      <stop
         id="stop2936"
         style="stop-color:#878a95"
         offset="1" />
    </linearGradient>
    <linearGradient
       id="linearGradient4842"
       y2="160.91"
       spreadMethod="reflect"
       gradientUnits="userSpaceOnUse"
       x2="1418.9"
       gradientTransform="translate(-244 -56.959)"
       y1="160.91"
       x1="522.55">
      <stop
         id="stop2922"
         style="stop-color:#abafb8"
         offset="0" />
      <stop
         id="stop2924"
         style="stop-color:#bebdc5"
         offset="1" />
    </linearGradient>
    <linearGradient
       id="linearGradient2894">
      <stop
         id="stop2896"
         style="stop-color:#5e6169"
         offset="0" />
      <stop
         id="stop2898"
         style="stop-color:#1c2125"
         offset="1" />
    </linearGradient>
    <linearGradient
       id="linearGradient4840"
       y2="216.14"
       xlink:href="#linearGradient2894"
       gradientUnits="userSpaceOnUse"
       x2="1461.9"
       gradientTransform="translate(-244 -56.959)"
       y1="1332.2"
       x1="1461.9" />
    <linearGradient
       id="linearGradient4838"
       y2="164.23"
       gradientUnits="userSpaceOnUse"
       x2="978.64"
       gradientTransform="translate(-244 -56.959)"
       y1="1373.6"
       x1="978.64">
      <stop
         id="stop2912"
         style="stop-color:#1d2025"
         offset="0" />
      <stop
         id="stop2914"
         style="stop-color:#31343b"
         offset="1" />
    </linearGradient>
    <filter
       id="filter2820"
       x="-0.013474275"
       y="-0.014006388"
       width="1.0269486"
       height="1.0280128">
      <feGaussianBlur
         id="feGaussianBlur2822"
         stdDeviation="0.49668993"
         inkscape:collect="always" />
    </filter>
    <clipPath
       id="clipPath2834">
      <path
         id="use2836"
         style="fill:url(#linearGradient3043)"
         d="m1345.5 1395.2h233.3c1 0 1.8 0.8 1.8 1.8v222.3c0 1-0.8 1.8-1.8 1.8-77.6-4.4-155.6-3.6-233.3 0-1 0-1.8-0.8-1.8-1.8v-222.3c0-1 0.8-1.8 1.8-1.8z" />
    </clipPath>
    <linearGradient
       id="linearGradient3407"
       y2="1503.5"
       gradientUnits="userSpaceOnUse"
       x2="1393"
       y1="1621"
       x1="1393">
      <stop
         id="stop2826"
         style="stop-color:#4c5059"
         offset="0" />
      <stop
         id="stop2828"
         style="stop-color:#818590"
         offset="1" />
    </linearGradient>
    <linearGradient
       id="linearGradient2428"
       y2="1317.8"
       gradientUnits="userSpaceOnUse"
       x2="1378.2"
       y1="1591.7"
       x1="1378.2">
      <stop
         id="stop2963"
         style="stop-color:#979aa4"
         offset="0" />
      <stop
         id="stop2965"
         style="stop-color:#787c87"
         offset="1" />
    </linearGradient>
    <linearGradient
       id="linearGradient3293"
       y2="1421.7"
       gradientUnits="userSpaceOnUse"
       x2="1496.6"
       gradientTransform="translate(0 220.22)"
       y1="1399.2"
       x1="1496.6">
      <stop
         id="stop4263"
         style="stop-color:#979aa4"
         offset="0" />
      <stop
         id="stop4265"
         style="stop-color:#979aa4;stop-opacity:0"
         offset="1" />
    </linearGradient>
    <linearGradient
       id="linearGradient3306"
       y2="1623.6"
       gradientUnits="userSpaceOnUse"
       x2="1455.6"
       gradientTransform="matrix(.45989 0 0 .34382 -277.84 -196.49)"
       y1="1638.9"
       x1="1455.6">
      <stop
         id="stop3444"
         style="stop-color:#888b95"
         offset="0" />
      <stop
         id="stop3446"
         style="stop-color:#f0f1f5"
         offset="1" />
    </linearGradient>
    <linearGradient
       id="linearGradient3304"
       y2="1622.3"
       gradientUnits="userSpaceOnUse"
       x2="1467"
       gradientTransform="matrix(.45989 0 0 .34382 -277.84 -196.49)"
       y1="1639.5"
       x1="1467">
      <stop
         id="stop3436"
         style="stop-color:#b5b7bb"
         offset="0" />
      <stop
         id="stop3438"
         style="stop-color:#e5e6ea"
         offset="1" />
    </linearGradient>
    <linearGradient
       id="linearGradient3287"
       y2="1648.9"
       gradientUnits="userSpaceOnUse"
       x2="1991.5"
       gradientTransform="translate(.070804)"
       y1="1648.9"
       x1="1470.4">
      <stop
         id="stop3395"
         style="stop-color:#9c9eaa"
         offset="0" />
      <stop
         id="stop3397"
         style="stop-color:#32373b"
         offset=".16567" />
      <stop
         id="stop3399"
         style="stop-color:#868896"
         offset=".20498" />
      <stop
         id="stop3401"
         style="stop-color:#363b3f"
         offset=".23579" />
      <stop
         id="stop3403"
         style="stop-color:#515257"
         offset=".74124" />
      <stop
         id="stop3405"
         style="stop-color:#4a4f53"
         offset="1" />
    </linearGradient>
    <linearGradient
       id="linearGradient3285"
       y2="1651.3"
       xlink:href="#linearGradient3012"
       gradientUnits="userSpaceOnUse"
       x2="2040.9"
       y1="1695.5"
       x1="2051" />
    <filter
       id="filter3368"
       x="-0.0027088348"
       y="-0.028021314"
       width="1.0063271"
       height="1.0521806">
      <feGaussianBlur
         id="feGaussianBlur3370"
         stdDeviation="0.59514119"
         inkscape:collect="always" />
    </filter>
    <filter
       id="filter3052"
       x="-0.0040708853"
       y="-0.036494917"
       width="1.008904"
       height="1.0697715">
      <feGaussianBlur
         id="feGaussianBlur3054"
         stdDeviation="0.89271179"
         inkscape:collect="always" />
    </filter>
    <linearGradient
       id="linearGradient3283"
       y2="1648.9"
       gradientUnits="userSpaceOnUse"
       x2="1991.5"
       gradientTransform="translate(.070804)"
       y1="1648.9"
       x1="1470.4">
      <stop
         id="stop3392"
         style="stop-color:#9c9eaa"
         offset="0" />
      <stop
         id="stop3412"
         style="stop-color:#32373b"
         offset=".16567" />
      <stop
         id="stop3414"
         style="stop-color:#9c9ea9"
         offset=".20498" />
      <stop
         id="stop3416"
         style="stop-color:#363b3f"
         offset=".23579" />
      <stop
         id="stop3418"
         style="stop-color:#515257"
         offset=".74124" />
      <stop
         id="stop3394"
         style="stop-color:#4a4f53"
         offset="1" />
    </linearGradient>
    <linearGradient
       id="linearGradient3321"
       y2="1651.3"
       gradientUnits="userSpaceOnUse"
       x2="2124.1"
       gradientTransform="matrix(.20153 0 0 .20153 98.831 36.358)"
       y1="1651.3"
       x1="797.47">
      <stop
         id="stop3398"
         style="stop-color:#000000"
         offset="0" />
      <stop
         id="stop3400"
         style="stop-color:#000000;stop-opacity:0"
         offset="1" />
    </linearGradient>
    <linearGradient
       id="linearGradient3319"
       y2="1666.7"
       gradientUnits="userSpaceOnUse"
       x2="1667.4"
       gradientTransform="matrix(.20153 0 0 .20153 98.831 36.358)"
       y1="1665"
       x1="1282.1">
      <stop
         id="stop5106"
         style="stop-color:#16191e"
         offset="0" />
      <stop
         id="stop5116"
         style="stop-color:#3a3d43"
         offset=".16349" />
      <stop
         id="stop3708"
         style="stop-color:#16191e"
         offset=".23888" />
      <stop
         id="stop5112"
         style="stop-color:#4a4f56"
         offset=".46134" />
      <stop
         id="stop3710"
         style="stop-color:#16191e"
         offset=".66194" />
      <stop
         id="stop5114"
         style="stop-color:#36393f"
         offset=".75" />
      <stop
         id="stop5108"
         style="stop-color:#16191e"
         offset="1" />
    </linearGradient>
    <radialGradient
       id="radialGradient4816"
       fx="1369.2"
       fy="1309.4"
       xlink:href="#linearGradient3849"
       gradientUnits="userSpaceOnUse"
       cy="2066.6"
       cx="1380.3"
       gradientTransform="matrix(1.2938 0 0 .24138 -604.25 1194)"
       r="758.02" />
    <radialGradient
       id="radialGradient2980"
       fx="642.47"
       fy="255.34"
       xlink:href="#linearGradient2986"
       gradientUnits="userSpaceOnUse"
       cy="251.93"
       cx="642.71"
       gradientTransform="matrix(2.1915 0 0 1.331 -998.21 -49.056)"
       r="193.23" />
    <linearGradient
       id="linearGradient4235"
       y2="4063.4"
       xlink:href="#linearGradient3012"
       gradientUnits="userSpaceOnUse"
       x2="2144"
       gradientTransform="matrix(.12822 0 0 .099354 -150.39 109.3)"
       y1="-778.6"
       x1="2144" />
    <linearGradient
       id="linearGradient3367">
      <stop
         id="stop3369"
         style="stop-color:#b7b9c1"
         offset="0" />
      <stop
         id="stop3371"
         style="stop-color:#e4e5e8"
         offset=".32144" />
      <stop
         id="stop3373"
         style="stop-color:#fefefe"
         offset=".35744" />
      <stop
         id="stop3375"
         style="stop-color:#e8e9ec"
         offset=".46760" />
      <stop
         id="stop3377"
         style="stop-color:#e7e8ea"
         offset=".51943" />
      <stop
         id="stop3379"
         style="stop-color:#e4e4e9"
         offset=".68656" />
      <stop
         id="stop3381"
         style="stop-color:#c4c5ca"
         offset=".72827" />
      <stop
         id="stop3383"
         style="stop-color:#bfc0c5"
         offset=".83570" />
      <stop
         id="stop3385"
         style="stop-color:#b4b6ba"
         offset=".86141" />
      <stop
         id="stop3387"
         style="stop-color:#aeb0b7"
         offset="1" />
    </linearGradient>
    <text
       id="text3138"
       y="1298.8616"
       x="16216.638"
       xml:space="preserve"
       style="font-size:43.301px;font-family:Liberation Sans;letter-spacing:2;text-anchor:middle;line-height:125%;font-weight:bold;text-align:center">
      <tspan
   id="tspan3140"
   y="1298.8616"
   x="16216.638">SVG</tspan>
    </text>
    <linearGradient
       id="linearGradient2986">
      <stop
         id="stop2988"
         style="stop-color:#cccccc"
         offset="0" />
      <stop
         id="stop2990"
         style="stop-color:#96989c;stop-opacity:0"
         offset="1" />
    </linearGradient>
    <linearGradient
       id="linearGradient3849">
      <stop
         id="stop3851"
         style="stop-color:#000000;stop-opacity:.33480"
         offset="0" />
      <stop
         id="stop3853"
         style="stop-color:#000000;stop-opacity:0"
         offset="1" />
    </linearGradient>
    <linearGradient
       id="linearGradient3012">
      <stop
         id="stop3014"
         style="stop-color:#44464a"
         offset="0" />
      <stop
         id="stop3016"
         style="stop-color:#e7e8ec"
         offset="1" />
    </linearGradient>
    <filter
       id="filter4964"
       y="-0.45850847"
       width="1.1710918"
       x="-0.085545895"
       height="1.9170169">
      <feGaussianBlur
         id="feGaussianBlur4966"
         stdDeviation="74.603147"
         inkscape:collect="always" />
    </filter>
    <filter
       id="filter3229"
       x="-0.071489364"
       y="-0.071489364"
       width="1.1429787"
       height="1.1429787">
      <feGaussianBlur
         id="feGaussianBlur3231"
         stdDeviation="0.66276596"
         inkscape:collect="always" />
    </filter>
    <filter
       id="filter3289"
       x="-0.045073352"
       y="-0.045073352"
       width="1.0901467"
       height="1.0901467">
      <feGaussianBlur
         id="feGaussianBlur3291"
         stdDeviation="0.33734043"
         inkscape:collect="always" />
    </filter>
    <filter
       id="filter3361"
       x="-0.040522476"
       y="-0.040522476"
       width="1.081045"
       height="1.081045">
      <feGaussianBlur
         id="feGaussianBlur3363"
         stdDeviation="0.28933336"
         inkscape:collect="always" />
    </filter>
    <filter
       id="filter3457"
       y="-0.12765956"
       x="-0.12765956"
       height="1.2553191"
       width="1.2553191">
      <feGaussianBlur
         id="feGaussianBlur3459"
         stdDeviation="1.1835106"
         inkscape:collect="always" />
    </filter>
    <filter
       id="filter3788"
       x="-0.035744682"
       y="-0.035744682"
       width="1.0714894"
       height="1.0714894">
      <feGaussianBlur
         id="feGaussianBlur3790"
         stdDeviation="0.33138298"
         inkscape:collect="always" />
    </filter>
    <filter
       id="filter3866"
       x="-0.043599699"
       y="-0.043599699"
       width="1.0871994"
       height="1.0871994">
      <feGaussianBlur
         id="feGaussianBlur3868"
         stdDeviation="0.29098054"
         inkscape:collect="always" />
    </filter>
    <filter
       id="filter4001"
       y="-0.19507782"
       x="-0.043247482"
       height="1.3901556"
       width="1.086495">
      <feGaussianBlur
         id="feGaussianBlur4003"
         stdDeviation="1.8242448"
         inkscape:collect="always" />
    </filter>
    <filter
       id="filter4075"
       x="-0.012220834"
       y="-0.020526089"
       width="1.0244417"
       height="1.0410522">
      <feGaussianBlur
         id="feGaussianBlur4077"
         stdDeviation="0.42548872"
         inkscape:collect="always" />
    </filter>
    <filter
       id="filter4377"
       x="-0.017995678"
       y="-0.015375719"
       width="1.0359914"
       height="1.0307514">
      <feGaussianBlur
         id="feGaussianBlur4379"
         stdDeviation="0.3362234"
         inkscape:collect="always" />
    </filter>
    <filter
       id="filter4581"
       y="-0.31438582"
       x="-0.0095165357"
       height="1.6287716"
       width="1.0190331">
      <feGaussianBlur
         id="feGaussianBlur4583"
         stdDeviation="0.254718"
         inkscape:collect="always" />
    </filter>
    <linearGradient
       id="linearGradient3013"
       y2="417.14"
       gradientUnits="userSpaceOnUse"
       x2="815.96"
       gradientTransform="translate(-636.47 -85.124)"
       y1="417.14"
       x1="813.52">
      <stop
         id="stop3606"
         style="stop-color:#44464c"
         offset="0" />
      <stop
         id="stop3608"
         style="stop-color:#1a1d22"
         offset="1" />
    </linearGradient>
    <linearGradient
       id="linearGradient3060"
       y2="150.81"
       gradientUnits="userSpaceOnUse"
       x2="717.82"
       gradientTransform="translate(-512.03 -71.18)"
       y1="220.82"
       x1="717.82">
      <stop
         id="stop4367"
         style="stop-color:#2f3036"
         offset="0" />
      <stop
         id="stop4369"
         style="stop-color:#2f3036;stop-opacity:0"
         offset="1" />
    </linearGradient>
    <radialGradient
       id="radialGradient3063"
       fx="556.69"
       fy="294.84"
       gradientUnits="userSpaceOnUse"
       cy="294.12"
       cx="565.02"
       gradientTransform="matrix(0 .89124 -.98387 -1.0416e-8 503.48 -313.26)"
       r="11.125">
      <stop
         id="stop3471"
         style="stop-color:#b1b4bc"
         offset="0" />
      <stop
         id="stop3473"
         style="stop-color:#1b1e23"
         offset="1" />
    </radialGradient>
    <radialGradient
       id="radialGradient3071"
       gradientUnits="userSpaceOnUse"
       cy="291.98"
       cx="552.38"
       gradientTransform="matrix(1.0832 0 0 1.0832 -384.24 -95.515)"
       r="11.125">
      <stop
         id="stop3235"
         style="stop-color:#6b6f7a"
         offset="0" />
      <stop
         id="stop3257"
         style="stop-color:#7c808b"
         offset=".42909" />
      <stop
         id="stop3237"
         style="stop-color:#a3a7b2"
         offset="1" />
    </radialGradient>
    <radialGradient
       id="radialGradient3076"
       gradientUnits="userSpaceOnUse"
       cy="135.74"
       cx="713.8"
       gradientTransform="matrix(.94738 0 0 5.6832 -460.52 -687.99)"
       r="46.459">
      <stop
         id="stop4349"
         style="stop-color:#24252b"
         offset="0" />
      <stop
         id="stop4351"
         style="stop-color:#1b1c21"
         offset="1" />
    </radialGradient>
    <linearGradient
       id="linearGradient3079"
       y2="130.61"
       xlink:href="#linearGradient3367"
       gradientUnits="userSpaceOnUse"
       x2="725.69"
       gradientTransform="translate(-512.03 -71.18)"
       y1="311.12"
       x1="725.69" />
    <linearGradient
       id="linearGradient3082"
       y2="362.35"
       gradientUnits="userSpaceOnUse"
       x2="750.24"
       gradientTransform="translate(-512.03 -71.18)"
       y1="354.45"
       x1="750.24">
      <stop
         id="stop3561"
         style="stop-color:#71757e"
         offset="0" />
      <stop
         id="stop3563"
         style="stop-color:#62656e"
         offset="1" />
    </linearGradient>
    <linearGradient
       id="linearGradient3085"
       y2="402.81"
       gradientUnits="userSpaceOnUse"
       x2="553.41"
       gradientTransform="translate(-339.49 -71.18)"
       y1="125.46"
       x1="553.41">
      <stop
         id="stop3616"
         style="stop-color:#9297a0"
         offset="0" />
      <stop
         id="stop3618"
         style="stop-color:#7f838e"
         offset=".32144" />
      <stop
         id="stop3620"
         style="stop-color:#a4a7b0"
         offset=".36004" />
      <stop
         id="stop3622"
         style="stop-color:#a2a5af"
         offset=".49917" />
      <stop
         id="stop3624"
         style="stop-color:#71757f"
         offset=".53619" />
      <stop
         id="stop3626"
         style="stop-color:#70747d"
         offset=".68656" />
      <stop
         id="stop3628"
         style="stop-color:#a1a1ab"
         offset=".71836" />
      <stop
         id="stop3630"
         style="stop-color:#a2a3ac"
         offset=".83570" />
      <stop
         id="stop3632"
         style="stop-color:#8e929d"
         offset=".85240" />
      <stop
         id="stop3634"
         style="stop-color:#a2a2ac"
         offset="1" />
    </linearGradient>
    <linearGradient
       id="linearGradient3088"
       y2="401.77"
       xlink:href="#linearGradient3367"
       gradientUnits="userSpaceOnUse"
       x2="696.85"
       gradientTransform="translate(-512.03 -71.18)"
       y1="123.41"
       x1="696.85" />
    <linearGradient
       id="linearGradient3111"
       y2="295.28"
       gradientUnits="userSpaceOnUse"
       x2="553.78"
       y1="286.66"
       x1="553.78">
      <stop
         id="stop3872"
         style="stop-color:#ffffff"
         offset="0" />
      <stop
         id="stop3874"
         style="stop-color:#ffffff;stop-opacity:0"
         offset="1" />
    </linearGradient>
    <linearGradient
       id="linearGradient3113"
       y2="298.5"
       gradientUnits="userSpaceOnUse"
       x2="553.62"
       y1="282.6"
       x1="553.62">
      <stop
         id="stop3311"
         style="stop-color:#ffffff"
         offset="0" />
      <stop
         id="stop3313"
         style="stop-color:#ffffff;stop-opacity:0"
         offset="1" />
    </linearGradient>
    <radialGradient
       id="radialGradient3115"
       gradientUnits="userSpaceOnUse"
       cy="304.72"
       cx="552.62"
       gradientTransform="matrix(.65650 2.4836 -4.3496 1.1498 1515 -1422.3)"
       r="11.125">
      <stop
         id="stop3483"
         style="stop-color:#ffffff"
         offset="0" />
      <stop
         id="stop3485"
         style="stop-color:#ffffff;stop-opacity:0"
         offset="1" />
    </radialGradient>
    <linearGradient
       id="linearGradient3298"
       y2="1267.9"
       gradientUnits="userSpaceOnUse"
       x2="16223"
       y1="1300"
       x1="16223">
      <stop
         id="stop3297"
         style="stop-color:#32353c"
         offset="0" />
      <stop
         id="stop3299"
         style="stop-color:#2e313a"
         offset="1" />
    </linearGradient>
    <linearGradient
       id="linearGradient3300"
       y2="1297.7"
       gradientUnits="userSpaceOnUse"
       x2="16235"
       y1="1267.9"
       x1="16236">
      <stop
         id="stop3303"
         style="stop-color:#262931"
         offset="0" />
      <stop
         id="stop3305"
         style="stop-color:#31313c"
         offset="1" />
    </linearGradient>
    <radialGradient
       id="radialGradient3310"
       xlink:href="#linearGradient2986"
       gradientUnits="userSpaceOnUse"
       cy="306.61"
       cx="572.38"
       r="2.0625" />
    <radialGradient
       id="radialGradient3312"
       gradientUnits="userSpaceOnUse"
       cy="573.58"
       cx="1813.6"
       gradientTransform="matrix(1.0185 0 0 .47050 -37.595 285.68)"
       r="30.494">
      <stop
         id="stop4095"
         style="stop-color:#a8acb5"
         offset="0" />
      <stop
         id="stop4097"
         style="stop-color:#a8acb5;stop-opacity:0"
         offset="1" />
    </radialGradient>
  </defs>
  <g
     id="setup"
     transform="translate(-25.793 45.785)">
    <g
       id="stand">
      <path
         id="path4533"
         style="fill-rule:evenodd;stroke:url(#linearGradient3321);stroke-width:.20153px;fill:url(#linearGradient3319)"
         d="m526.81 374.78l-26.73 6.02h-2.45l-77.38-7.75c-2.45-0.06-5.01-0.25-7.49 0.03-10.16 1.15-28.16 1.24-39.25-0.1l-7.77 0.07-79.09 7.68h-2.21l-24.79-5.63 3.92-4.63c1.72-2.04 4.2-2.7 7.55-3l91.27-8.05c1.55-0.13 2.96-0.88 4.21-1.92h21.16 35.98c1.3 1.14 2.89 1.95 5.06 2.14l84.55 7.44c4.53 0.4 7.84 0.74 10.32 3.81l3.14 3.89z" />
      <g
         id="use4535"
         transform="matrix(-.20153 0 0 .20153 687.25 36.358)">
        <path
           id="path3029"
           style="fill-rule:evenodd;stroke-width:1px;fill:url(#linearGradient3285)"
           d="m2123.6 1677.2l-132.6 31.9h-12.2c-13.3-23-30.8-28.3-55.6-30.6l-328.3-29.8c-12.1-1.2-24.9-1.3-37.2 0.1-23.1 2.6-66.9 4.3-99.2 4.5l-0.1-61.8h153.8c6.4 5.7 14.3 9.7 25.1 10.6l419.6 37c22.4 1.9 38.8 3.6 51.2 18.9l15.5 19.2z" />
        <path
           id="path3031"
           style="fill-rule:evenodd;stroke-width:1px;fill:url(#linearGradient3283)"
           d="m1991.2 1709.2h-12.8c-13.3-23.1-30.3-26.4-55.2-28.7l-328.2-29.8c-12.1-1.1-24.9-1.3-37.2 0.1-23.1 2.6-69.7 3.9-99.2 4.5v-12.8l90.5-3.1c16.2-0.6 34.3-3.5 47.2-2.4l332.9 29.1c22.4 1.9 41.2 10.3 51.7 26.9l10.3 16.2z" />
        <path
           id="path3033"
           style="filter:url(#filter3052);stroke:#ffffff;stroke-width:1px;fill:none"
           d="m1460.5 1642.5l88.5-3.1c16.2-0.6 34.3-3.5 47.2-2.4l332.9 29.1c22.5 1.9 41.2 10.3 51.7 26.9l10.3 16.2" />
        <path
           id="path3035"
           style="filter:url(#filter3368);stroke:#ffffff;stroke-width:1.2;fill:none"
           d="m1458.3 1642.5l92.6-3.1c16.1-0.6 34.2-3.5 47.1-2.4l332.9 29.1c22.5 1.9 41.2 10.3 51.8 26.9l10.3 16.2" />
      </g>
      <g
         id="g4537"
         transform="matrix(.20153 0 0 .20153 98.831 36.358)">
        <path
           id="path4539"
           style="fill-rule:evenodd;stroke-width:1px;fill:url(#linearGradient3285)"
           d="m2123.6 1677.2l-132.6 31.9h-12.2c-13.3-23-30.8-28.3-55.6-30.6l-328.3-29.8c-12.1-1.2-24.9-1.3-37.2 0.1-23.1 2.6-66.9 4.3-99.2 4.5l-0.1-61.8h153.8c6.4 5.7 14.3 9.7 25.1 10.6l419.6 37c22.4 1.9 38.8 3.6 51.2 18.9l15.5 19.2z" />
        <path
           id="path4541"
           style="fill-rule:evenodd;stroke-width:1px;fill:url(#linearGradient3287)"
           d="m1991.2 1709.2h-12.8c-13.3-23.1-30.3-26.4-55.2-28.7l-328.2-29.8c-12.1-1.1-24.9-1.3-37.2 0.1-23.1 2.6-69.7 3.9-99.2 4.5v-12.8l90.5-3.1c16.2-0.6 34.3-3.5 47.2-2.4l332.9 29.1c22.4 1.9 41.2 10.3 51.7 26.9l10.3 16.2z" />
        <path
           id="path4543"
           style="filter:url(#filter3052);stroke:#ffffff;stroke-width:1px;fill:none"
           d="m1460.5 1642.5l88.5-3.1c16.2-0.6 34.3-3.5 47.2-2.4l332.9 29.1c22.5 1.9 41.2 10.3 51.7 26.9l10.3 16.2" />
        <path
           id="path4545"
           style="filter:url(#filter3368);stroke:#ffffff;stroke-width:1.2;fill:none"
           d="m1458.3 1642.5l92.6-3.1c16.1-0.6 34.2-3.5 47.1-2.4l332.9 29.1c22.5 1.9 41.2 10.3 51.8 26.9l10.3 16.2" />
      </g>
      <path
         id="path4547"
         style="stroke:url(#linearGradient3306);stroke-width:.20153;fill:url(#linearGradient3304)"
         d="m420.27 362.9c0 1.8-11.73 3.26-26.21 3.26s-26.21-1.46-26.21-3.26c0-1.81 11.73-3.27 26.21-3.27s26.21 1.46 26.21 3.27z" />
      <g
         id="g4549"
         transform="matrix(.20153 0 0 .20153 98.831 36.358)">
        <path
           id="path2967"
           style="fill:url(#linearGradient3293)"
           d="m1345.5 1615.4h233.3c1 0 1.8 0.8 1.8 1.8v41.6c0 1.1-236.9-17.9-236.9 0v-41.6c0-1 0.8-1.8 1.8-1.8z" />
        <path
           id="path4551"
           style="fill:url(#linearGradient2428)"
           d="m1345.5 1395.2h233.3c1 0 1.8 0.8 1.8 1.8v222.3c0 1-0.8 1.8-1.8 1.8-77.6-4.4-155.6-3.6-233.3 0-1 0-1.8-0.8-1.8-1.8v-222.3c0-1 0.8-1.8 1.8-1.8z" />
        <path
           id="path4553"
           style="filter:url(#filter2820);stroke:url(#linearGradient3407);stroke-width:4;fill:none"
           d="m1345.5 1395.2h233.3c1 0 1.8 0.8 1.8 1.8v224.3c0 1-0.8 1.8-1.8 1.8-78.7-4.1-156.5-4.3-233.3 0-1 0-1.8-0.8-1.8-1.8v-224.3c0-1 0.8-1.8 1.8-1.8z"
           clip-path="url(#clipPath2834)" />
      </g>
      <path
         id="path2984"
         style="stroke-linejoin:round;stroke-dashoffset:.5;stroke-linecap:round;stroke-width:1.25;fill:url(#radialGradient3310)"
         d="m574.44 306.61c0 0.34-0.08 0.65-0.22 0.93-1.12 0.63-2.03 0.78-3.81-0.3-0.06-0.2-0.1-0.41-0.1-0.63 0.44-2 1.63 0.76 3.84-1.05 0.18 0.31 0.29 0.67 0.29 1.05z"
         transform="matrix(.42855 -.42855 .70711 .70711 108.96 332.78)" />
      <use
         id="use3342"
         xlink:href="#path2984"
         transform="matrix(-1 0 0 1 786.11 0)"
         height="463.36414"
         width="825.92938"
         y="0"
         x="0" />
    </g>
    <g
       id="screen"
       transform="matrix(.20153 0 0 .20153 149.35 47.837)">
      <rect
         id="rect4555"
         style="fill:url(#linearGradient4838)"
         rx="5.3441"
         ry="5.3441"
         height="1223"
         width="1893.6"
         y="108.04"
         x="262.62" />
      <rect
         id="rect4557"
         style="fill:url(#linearGradient4840)"
         rx="5.3441"
         ry="5.3441"
         height="1118.3"
         width="1779.6"
         y="160.4"
         x="319.62" />
      <rect
         id="rect4559"
         style="fill:url(#linearGradient4842)"
         rx="1.8441"
         ry="1.8441"
         height="9"
         width="1890.6"
         y="99.041"
         x="264.12" />
      <rect
         id="rect4561"
         style="fill:url(#linearGradient4844)"
         rx="1.8441"
         ry="1.8441"
         height="9"
         width="1890.6"
         y="1331.6"
         x="264.12" />
      <rect
         id="rect4563"
         style="fill:#5e6169;fill-opacity:1"
         rx="5.3441"
         ry="5.3441"
         height="1105.8"
         width="1766.2"
         y="166.62"
         x="326.34" />
      <g
         id="g4565"
         transform="translate(-14995 -19.461)">
        <use
           id="use4567"
           style="filter:url(#filter3510);stroke:url(#linearGradient3411);stroke-width:4.2"
           xlink:href="#text3138"
           transform="translate(-13.612 38.991)"
           height="1812"
           width="2400"
           y="0"
           x="0" />
        <use
           id="use4569"
           style="stroke:url(#linearGradient3415);stroke-width:2;fill:url(#linearGradient3413)"
           xlink:href="#text3138"
           transform="translate(-13.612 38.991)"
           height="1812"
           width="2400"
           y="0"
           x="0" />
        <use
           id="use4571"
           style="stroke-linejoin:round;filter:url(#filter3248);stroke-linecap:round;stroke-width:0.6;fill:url(#linearGradient3417)"
           xlink:href="#text3138"
           transform="translate(-13.612 38.991)"
           height="1812"
           width="2400"
           y="0"
           x="0" />
        <use
           id="use4573"
           style="stroke-linejoin:round;filter:url(#filter3472);stroke:url(#linearGradient3419);stroke-linecap:round;stroke-width:0.6;fill:none"
           xlink:href="#text3138"
           transform="translate(-13.612 38.991)"
           height="1812"
           width="2400"
           y="0"
           x="0" />
        <use
           id="use4575"
           style="stroke-linejoin:round;filter:url(#filter3490);stroke:url(#linearGradient3425);stroke-linecap:round;stroke-width:0.6;fill:none"
           xlink:href="#text3138"
           transform="translate(-13.612 38.991)"
           height="1812"
           width="2400"
           y="0"
           x="0" />
        <use
           id="use4577"
           style="stroke-linejoin:round;filter:url(#filter3490);stroke:url(#linearGradient3425);stroke-linecap:round;stroke-width:0.6;fill:none"
           xlink:href="#text3138"
           transform="translate(-13.612 38.991)"
           height="1812"
           width="2400"
           y="0"
           x="0" />
        <use
           id="use4579"
           style="stroke-linejoin:round;stroke:url(#linearGradient3425);stroke-linecap:round;stroke-width:0.6;fill:none"
           xlink:href="#text3138"
           transform="translate(-13.612 38.991)"
           height="1812"
           width="2400"
           y="0"
           x="0" />
      </g>
      <rect
         id="rect4581"
         style="fill:url(#linearGradient4864)"
         rx="1.8441"
         ry="1.8441"
         height="9"
         width="1890.6"
         y="1331.6"
         x="264.12" />
      <rect
         id="rect4267"
         style="opacity:0.65639;fill:#6b6f7a;fill-opacity:0"
         rx="1.8441"
         ry="1.8441"
         height="9"
         width="1890.6"
         y="1331.6"
         x="264.12" />
    </g>
  </g>
  <g
     id="g3264"
     transform="translate(-227 94)">
    <g
       id="workstation"
       transform="translate(579.83)">
      <path
         id="rect3601"
         style="stroke-linejoin:round;stroke-dashoffset:.5;stroke-linecap:round;stroke-width:.2;fill:url(#linearGradient3013)"
         d="m177.94 328.21h71.95c0.68 0 1.23 0.55 1.23 1.24l-0.53 3.9c0 0.67-0.54 1.22-1.22 1.22h-70.92c-0.67 0-1.22-0.55-1.22-1.22l-0.53-3.9c0-0.69 0.55-1.24 1.24-1.24z" />
      <rect
         id="rect3092"
         style="stroke-linejoin:round;stroke-dashoffset:.5;stroke-linecap:round;stroke-width:1.25;fill:#1d2025"
         rx="10.02"
         ry="10.02"
         height="278.08"
         width="108"
         y="52.23"
         x="159.91" />
      <path
         id="path3094"
         style="stroke-linejoin:round;stroke-dashoffset:.5;stroke-linecap:round;stroke-width:0.4;fill:url(#linearGradient3088)"
         d="m169.93 52.23h87.96c5.55 0 10.02 4.469 10.02 10.021v32.255 32.254 26.25c0 5.79-0.8 9.05-2.05 13.3l-8.63 30.93c-0.62 3.65-0.47 6.23-0.81 11.45v29.22c0 4.72 0.09 7.41 0.94 10.36l7.86 27.01c1.36 4.67 2.69 9.48 2.69 14.35v30.66c0 5.55-4.47 10.02-10.02 10.02h-87.96c-5.55 0-10.02-4.47-10.02-10.02v-30.66c0-4.87 1.33-9.68 2.69-14.35l7.86-27.01c0.89-3.32 0.94-5.52 0.94-10.36v-29.22c0.3-5.44 0.14-8.32-0.81-11.45l-8.63-30.93c-1.26-4.31-2.05-7.99-2.05-13.3v-26.25-32.254-32.255c0-5.552 4.47-10.021 10.02-10.021z" />
      <path
         id="path3126"
         style="stroke-linejoin:round;stroke-dashoffset:0.5;stroke-linecap:round;stroke-width:0.4;fill:#9297a0;fill-opacity:1"
         d="m169.94 53.789c-4.7 0-8.47 3.762-8.47 8.469v32.25 32.252 26.25c0 5.15 0.76 8.63 2 12.87v0.03l8.63 30.91c1.01 3.32 1.17 6.44 0.87 11.88 0 0.03 0.01 0.05 0 0.09v29.12c0 4.85-0.06 7.28-1 10.75v0.04l-7.87 27.03c-1.36 4.65-2.63 9.32-2.63 13.9v30.66c0 4.71 3.77 8.47 8.47 8.47h87.94c4.71 0 8.47-3.76 8.47-8.47v-30.66c0-4.58-1.27-9.25-2.63-13.9l-7.87-27.03c-0.91-3.17-1-6.05-1-10.79v-29.21-0.1c0.34-5.16 0.19-7.8 0.84-11.62 0.01-0.06 0.02-0.11 0.03-0.16l8.63-30.91v-0.03c1.24-4.21 2-7.23 2-12.87v-26.25-32.252-32.25c0-4.707-3.76-8.469-8.47-8.469h-87.94z" />
      <path
         id="path3096"
         style="stroke-linejoin:round;stroke-dashoffset:.5;stroke:#62656e;stroke-linecap:round;stroke-width:0.4;fill:url(#linearGradient3082)"
         d="m180.35 259.76h67.49c2.58 0 5.36 2.13 6.27 4.55l5.89 17.97c0.54 1.62 0.79 3.36 0.79 5.07l-0.1 30c-0.01 2.5-2.89 5.21-5.39 5.21h-82.4c-2.37 0-5.23-2.41-5.24-4.77l-0.18-30.22c-0.01-1.78 0.16-3.6 0.71-5.29l5.9-17.97c0.91-2.42 3.68-4.55 6.26-4.55z" />
      <path
         id="path4359"
         style="stroke-linejoin:round;stroke-dashoffset:.5;stroke-linecap:round;stroke-width:0.4;fill:url(#linearGradient3079)"
         d="m171.47 61.07c-1.41 0-2.64 0.464-3.47 1.344-0.82 0.88-1.21 2.119-1.22 3.469l-0.18 87.527c-0.01 2.32 0.44 4.61 1 6.79l3.09 12.15c0.39 1.52 1.46 2.78 2.75 3.69s2.82 1.5 4.34 1.5h71.57c1.52 0 3.05-0.59 4.34-1.5s2.36-2.17 2.75-3.69l3.09-12.15c0.53-2.09 1.07-4.29 1.07-6.57l-0.1-87.31c0-1.41-0.38-2.712-1.22-3.687-0.83-0.975-2.12-1.563-3.62-1.563h-84.19z" />
      <path
         id="path3098"
         style="stroke-linejoin:round;stroke-dashoffset:.5;stroke-linecap:round;stroke-width:0.4;fill:url(#radialGradient3076)"
         d="m177.79 176.68h71.56c2.58 0 5.62-2.05 6.26-4.55l3.09-12.15c0.53-2.08 1.03-4.2 1.03-6.33l-0.11-87.335c0-2.499-1.39-4.367-3.97-4.367h-84.17c-2.44 0-3.82 1.568-3.82 3.932l-0.18 87.55c0 2.2 0.41 4.41 0.95 6.55l3.09 12.15c0.64 2.5 3.69 4.55 6.27 4.55z" />
      <path
         id="path3100"
         style="stroke-linejoin:round;stroke-dashoffset:.5;filter:url(#filter3229);stroke-linecap:round;stroke-width:0.4;fill:#ffffff"
         d="m563.5 293.74c0 6.14-4.98 11.12-11.12 11.12-6.15 0-11.13-4.98-11.13-11.12 0-6.15 4.98-11.13 11.13-11.13 6.14 0 11.12 4.98 11.12 11.13z"
         transform="matrix(1.0124 0 0 1.0124 -345.11 -74.813)" />
      <path
         id="path3259"
         style="stroke-linejoin:round;stroke-dashoffset:.5;filter:url(#filter3289);stroke:#0e0f14;stroke-linecap:round;stroke-width:.38653;fill:#0e0f14"
         d="m563.5 293.74c0 6.14-4.98 11.12-11.12 11.12-6.15 0-11.13-4.98-11.13-11.12 0-6.15 4.98-11.13 11.13-11.13 6.14 0 11.12 4.98 11.12 11.13z"
         transform="matrix(.94348 0 0 .94348 -307.06 -54.577)" />
      <path
         id="path3102"
         style="stroke-linejoin:round;stroke-dashoffset:0.5;stroke-linecap:round;stroke-width:0.4;fill:#6b6f7a;fill-opacity:1"
         d="m224.24 222.56c0 5.6-4.54 10.14-10.14 10.14s-10.15-4.54-10.15-10.14 4.55-10.14 10.15-10.14 10.14 4.54 10.14 10.14z" />
      <g
         id="g3104"
         transform="matrix(.15360 0 0 .15360 -2274.6 19.243)">
        <use
           id="use3106"
           style="filter:url(#filter4001);stroke:#acb0b9;stroke-width:3.2048;fill:#8b909c"
           xlink:href="#text3138"
           transform="translate(-13.612 38.991)"
           height="1812"
           width="2400"
           y="0"
           x="0" />
        <use
           id="use3108"
           style="stroke:url(#linearGradient3300);stroke-width:1.5261;fill:#32353c;fill-opacity:1"
           xlink:href="#text3138"
           transform="translate(-13.612 38.991)"
           height="1812"
           width="2400"
           y="0"
           x="0" />
      </g>
      <path
         id="path3120"
         style="stroke-linejoin:round;stroke-dashoffset:.5;filter:url(#filter3457);stroke-linecap:round;stroke-width:.43681;fill:url(#radialGradient3115)"
         d="m563.5 293.74c0 6.14-4.98 11.12-11.12 11.12-6.15 0-11.13-4.98-11.13-11.12 0-6.15 4.98-11.13 11.13-11.13 6.14 0 11.12 4.98 11.12 11.13z"
         transform="matrix(.49759 0 0 .49759 -60.757 40.399)" />
      <path
         id="path3656"
         style="stroke-linejoin:round;stroke-dashoffset:.5;filter:url(#filter3788);stroke-linecap:round;stroke-width:.50027;fill:#000000"
         d="m563.5 293.74c0 6.14-4.98 11.12-11.12 11.12-6.15 0-11.13-4.98-11.13-11.12 0-6.15 4.98-11.13 11.13-11.13 6.14 0 11.12 4.98 11.12 11.13z"
         transform="matrix(.42362 0 0 .42362 -19.898 62.127)" />
      <path
         id="path3122"
         style="stroke-linejoin:round;stroke-dashoffset:0.5;stroke-linecap:round;stroke-width:0.50027;fill:#b1b4bc;fill-opacity:1"
         d="m218.54 186.56c0 2.46-1.99 4.45-4.44 4.45-2.46 0-4.45-1.99-4.45-4.45s1.99-4.45 4.45-4.45c2.45 0 4.44 1.99 4.44 4.45z" />
      <rect
         id="rect3124"
         style="stroke-linejoin:round;stroke-dashoffset:.5;filter:url(#filter4377);stroke:url(#linearGradient3060);stroke-linecap:round;fill:#101217"
         rx=".63568"
         ry=".63568"
         height="85"
         width="72.625"
         y="64.435"
         x="177.51" />
      <path
         id="path3307"
         style="stroke-linejoin:round;stroke-dashoffset:.5;filter:url(#filter3361);stroke:url(#linearGradient3113);stroke-linecap:round;stroke-width:.41445;fill:none"
         d="m563.5 293.74c0 6.14-4.98 11.12-11.12 11.12-6.15 0-11.13-4.98-11.13-11.12 0-6.15 4.98-11.13 11.13-11.13 6.14 0 11.12 4.98 11.12 11.13z"
         transform="matrix(.87992 0 0 .87992 -271.95 -35.907)" />
      <path
         id="path4007"
         style="stroke-linejoin:round;stroke-dashoffset:.5;filter:url(#filter4075);stroke-linecap:round;stroke-width:1.25;fill:#a8acb5"
         d="m180.1 266.7h67.64c1.19 0 1.86 1.01 2.15 2.19l0.75 2.57c0.34 1.39-0.98 2.24-2.2 2.24h-69.04c-1.22 0-2.53-0.87-2.2-2.24l0.75-2.57c0.29-1.18 0.96-2.19 2.15-2.19zm-3.37 10.75h74.2c1.19 0 1.81 1.02 2.15 2.19l0.75 2.57c0.4 1.37-0.98 2.24-2.2 2.24h-75.61c-1.21 0-2.59-0.89-2.19-2.24l0.75-2.57c0.33-1.17 0.96-2.19 2.15-2.19zm-2.52 32h79.28c1.18 0 2.14 0.96 2.14 2.15v2.71c0 1.19-0.96 2.14-2.14 2.14h-79.28c-1.18 0-2.14-0.95-2.14-2.14v-2.71c0-1.19 0.96-2.15 2.14-2.15zm0-10.68h79.28c1.18 0 2.14 0.95 2.14 2.14v2.71c0 1.19-0.96 2.15-2.14 2.15h-79.28c-1.18 0-2.14-0.96-2.14-2.15v-2.71c0-1.19 0.96-2.14 2.14-2.14zm0-10.63h79.28c1.18 0 2.14 0.96 2.14 2.15v2.71c0 1.18-0.96 2.14-2.14 2.14h-79.28c-1.18 0-2.14-0.96-2.14-2.14v-2.71c0-1.19 0.96-2.15 2.14-2.15z" />
      <path
         id="path3082"
         style="stroke-linejoin:round;stroke-dashoffset:.5;stroke-linecap:round;stroke-width:1.25;fill:#1b1c21"
         d="m180.1 265.99h67.64c1.19 0 1.86 1.01 2.15 2.19l0.75 2.58c0.34 1.38-0.98 2.23-2.2 2.23h-69.04c-1.22 0-2.53-0.87-2.2-2.23l0.75-2.58c0.29-1.18 0.96-2.19 2.15-2.19z" />
      <path
         id="path3084"
         style="stroke-linejoin:round;stroke-dashoffset:.5;stroke-linecap:round;stroke-width:1.25;fill:#1b1c21"
         d="m176.73 276.74h74.2c1.19 0 1.81 1.03 2.15 2.19l0.75 2.58c0.4 1.37-0.98 2.23-2.2 2.23h-75.61c-1.21 0-2.59-0.89-2.19-2.23l0.75-2.58c0.33-1.16 0.96-2.19 2.15-2.19z" />
      <rect
         id="rect3086"
         style="stroke-linejoin:round;stroke-dashoffset:.5;stroke-linecap:round;stroke-width:1.25;fill:#1b1c21"
         rx="2.1454"
         ry="2.1454"
         height="7"
         width="83.562"
         y="308.75"
         x="172.07" />
      <rect
         id="rect3088"
         style="stroke-linejoin:round;stroke-dashoffset:.5;stroke-linecap:round;stroke-width:1.25;fill:#1b1c21"
         rx="2.1454"
         ry="2.1454"
         height="7"
         width="83.562"
         y="298.06"
         x="172.07" />
      <rect
         id="rect3090"
         style="stroke-linejoin:round;stroke-dashoffset:.5;stroke-linecap:round;stroke-width:1.25;fill:#1b1c21"
         rx="2.1454"
         ry="2.1454"
         height="7"
         width="83.562"
         y="287.43"
         x="172.07" />
      <path
         id="path3792"
         style="stroke-linejoin:round;stroke-dashoffset:.5;filter:url(#filter3866);stroke:url(#linearGradient3111);stroke-linecap:round;stroke-width:.54348;fill:none"
         d="m563.5 293.74c0 6.14-4.98 11.12-11.12 11.12-6.15 0-11.13-4.98-11.13-11.12 0-6.15 4.98-11.13 11.13-11.13 6.14 0 11.12 4.98 11.12 11.13z"
         transform="matrix(0.368 0 0 0.368 10.822 78.463)" />
      <rect
         id="rect4133"
         style="opacity:.20264;stroke-linejoin:round;stroke-dashoffset:.5;filter:url(#filter4581);stroke-linecap:round;stroke-width:.5;fill:url(#radialGradient3312)"
         transform="matrix(1 0 0 .81818 -1595.8 -388.05)"
         rx="2.1454"
         ry=".97226"
         height="1.9445"
         width="64.238"
         y="554.58"
         x="1779.1" />
      <use
         id="use4166"
         xlink:href="#rect4133"
         transform="translate(0 22.097)"
         height="1"
         width="1"
         y="0"
         x="0" />
      <use
         id="use4168"
         xlink:href="#rect4133"
         transform="translate(0 43.31)"
         height="1"
         width="1"
         y="0"
         x="0" />
      <use
         id="use4164"
         xlink:href="#rect4133"
         transform="translate(0 65.407)"
         height="463.36414"
         width="595.92938"
         y="0"
         x="0" />
      <path
         id="path3638"
         style="stroke-linejoin:round;stroke-dashoffset:.5;stroke:#212227;stroke-linecap:round;stroke-width:.5;fill:none"
         d="m215.03 185.4c0.09 0.06 0.17 0.13 0.25 0.2 0.3 0.31 0.49 0.72 0.49 1.18 0 0.93-0.75 1.68-1.67 1.68-0.93 0-1.68-0.75-1.68-1.68 0-0.46 0.19-0.87 0.49-1.18 0.08-0.07 0.16-0.14 0.25-0.2m0.94-0.74v2.2" />
    </g>
  </g>
  <metadata
     id="metadata267">
    <rdf:RDF>
      <cc:Work>
        <dc:format>image/svg+xml</dc:format>
        <dc:type
           rdf:resource="http://purl.org/dc/dcmitype/StillImage" />
        <cc:license
           rdf:resource="http://creativecommons.org/publicdomain/zero/1.0/" />
        <dc:publisher>
          <cc:Agent
             rdf:about="http://openclipart.org/">
            <dc:title>Openclipart</dc:title>
          </cc:Agent>
        </dc:publisher>
        <dc:title>SVG Workstation</dc:title>
        <dc:date>2007-07-20T04:38:11</dc:date>
        <dc:description />
        <dc:source>https://openclipart.org/detail/4509/svg-workstation-by-andy</dc:source>
        <dc:creator>
          <cc:Agent>
            <dc:title>Andy</dc:title>
          </cc:Agent>
        </dc:creator>
        <dc:subject>
          <rdf:Bag>
            <rdf:li>computer</rdf:li>
            <rdf:li>dell</rdf:li>
            <rdf:li>monitor</rdf:li>
            <rdf:li>precision</rdf:li>
            <rdf:li>screen</rdf:li>
            <rdf:li>workstation</rdf:li>
          </rdf:Bag>
        </dc:subject>
      </cc:Work>
      <cc:License
         rdf:about="http://creativecommons.org/licenses/publicdomain/">
        <cc:permits
           rdf:resource="http://creativecommons.org/ns#Reproduction" />
        <cc:permits
           rdf:resource="http://creativecommons.org/ns#Distribution" />
        <cc:permits
           rdf:resource="http://creativecommons.org/ns#DerivativeWorks" />
      </cc:License>
    </rdf:RDF>
  </metadata>
</svg>
