<?xml version="1.0" encoding="UTF-8" standalone="no"?>
<!-- Created with Inkscape (http://www.inkscape.org/) -->

<svg
   width="635.94739"
   height="1229.3833"
   id="svg2"
   version="1.1"
   inkscape:version="1.1.2 (0a00cf5339, 2022-02-04)"
   sodipodi:docname="cnet.smartphone.svg"
   xmlns:inkscape="http://www.inkscape.org/namespaces/inkscape"
   xmlns:sodipodi="http://sodipodi.sourceforge.net/DTD/sodipodi-0.dtd"
   xmlns:xlink="http://www.w3.org/1999/xlink"
   xmlns="http://www.w3.org/2000/svg"
   xmlns:svg="http://www.w3.org/2000/svg"
   xmlns:rdf="http://www.w3.org/1999/02/22-rdf-syntax-ns#"
   xmlns:cc="http://creativecommons.org/ns#"
   xmlns:dc="http://purl.org/dc/elements/1.1/">
  <defs
     id="defs4">
    <linearGradient
       y2="748.19092"
       y1="747.65521"
       xlink:href="#linearGradient3921"
       x2="514.45245"
       x1="238.43878"
       id="linearGradient3017"
       gradientUnits="userSpaceOnUse" />
    <linearGradient
       xlink:href="#linearGradient3921"
       x2="520.85956"
       x1="233.30499"
       id="linearGradient2994"
       gradientUnits="userSpaceOnUse" />
    <linearGradient
       y2="681.13123"
       y1="129.86137"
       x2="377.39453"
       x1="315.74286"
       id="linearGradient3814"
       gradientUnits="userSpaceOnUse">
      <stop
         id="stop3031"
         stop-color="#fff"
         offset="0" />
      <stop
         id="stop3033"
         stop-opacity="0"
         stop-color="#fff"
         offset="1" />
    </linearGradient>
    <linearGradient
       y2="762.68817"
       y1="228.99989"
       x2="0"
       id="linearGradient2992"
       gradientUnits="userSpaceOnUse">
      <stop
         id="stop3026"
         stop-color="#e6e5de"
         offset="0" />
      <stop
         id="stop3028"
         stop-color="#ddd3cc"
         offset="1" />
    </linearGradient>
    <linearGradient
       id="linearGradient3921">
      <stop
         id="stop3017"
         stop-opacity="0"
         stop-color="#837b78"
         offset="0" />
      <stop
         id="stop3019"
         stop-color="#837b78"
         offset=".05" />
      <stop
         id="stop3021"
         stop-color="#837b78"
         offset=".95" />
      <stop
         id="stop3023"
         stop-opacity="0"
         stop-color="#837b78"
         offset="1" />
    </linearGradient>
    <filter
       id="filter3917"
       color-interpolation-filters="sRGB"
       x="-0.014547051"
       y="-0.068535995"
       width="1.0290941"
       height="1.137072">
      <feGaussianBlur
         id="feGaussianBlur3014"
         stdDeviation="1.77676" />
    </filter>
    <filter
       id="filter3876"
       color-interpolation-filters="sRGB"
       x="-0.026496597"
       y="-0.013008792"
       width="1.0529932"
       height="1.0260176">
      <feGaussianBlur
         id="feGaussianBlur3011"
         stdDeviation="3.07491" />
    </filter>
    <clipPath
       id="clipPath2925">
      <path
         id="path3008"
         d="M 144.3,657 H 467.7 V 527.28 H 144.3 V 657 z"
         clip-rule="evenodd"
         inkscape:connector-curvature="0" />
    </clipPath>
    <clipPath
       id="clipPath2931">
      <path
         id="path3005"
         d="M 0,792.03 H 612 V 0.03 H 0 v 792 z"
         inkscape:connector-curvature="0" />
    </clipPath>
    <clipPath
       id="clipPath3295">
      <path
         id="path3002"
         d="M 260.876,577.664"
         inkscape:connector-curvature="0" />
    </clipPath>
    <clipPath
       id="clipPath3427">
      <path
         id="path2999"
         d="m 238.532,561.916 v 0.002 -10e-4 -10e-4"
         inkscape:connector-curvature="0" />
    </clipPath>
    <clipPath
       id="clipPath3679">
      <path
         id="path2996"
         d="m 222.777,581.048 v 0.003 -0.003"
         inkscape:connector-curvature="0" />
    </clipPath>
    <clipPath
       id="clipPath3691">
      <path
         id="path2993"
         d="m 222.777,581.042 v 0.006 -0.006"
         inkscape:connector-curvature="0" />
    </clipPath>
    <clipPath
       id="clipPath3979">
      <path
         id="path2990"
         d="m 260.862,542.935 h -0.001 0.001"
         inkscape:connector-curvature="0" />
    </clipPath>
  </defs>
  <sodipodi:namedview
     id="base"
     pagecolor="#ffffff"
     bordercolor="#666666"
     borderopacity="1.0"
     inkscape:pageopacity="0.0"
     inkscape:pageshadow="2"
     inkscape:zoom="0.35"
     inkscape:cx="91.428571"
     inkscape:cy="282.85714"
     inkscape:document-units="px"
     inkscape:current-layer="g3037"
     showgrid="false"
     fit-margin-top="0"
     fit-margin-left="0"
     fit-margin-right="0"
     fit-margin-bottom="0"
     inkscape:window-width="1920"
     inkscape:window-height="1015"
     inkscape:window-x="0"
     inkscape:window-y="0"
     inkscape:window-maximized="1"
     inkscape:pagecheckerboard="0" />
  <metadata
     id="metadata7">
    <rdf:RDF>
      <cc:Work
         rdf:about="">
        <dc:format>image/svg+xml</dc:format>
        <dc:type
           rdf:resource="http://purl.org/dc/dcmitype/StillImage" />
      </cc:Work>
    </rdf:RDF>
  </metadata>
  <g
     inkscape:label="Layer 1"
     inkscape:groupmode="layer"
     id="layer1"
     transform="translate(-283.45488,430.90092)">
    <g
       id="g3037"
       transform="matrix(2.1081478,0,0,2.0858807,-194.08127,-870.52823)">
      <path
         id="path3039"
         d="m 524.12518,739.72921 c 0,0 0.0163,16.31097 -22.89168,25.61226 -22.90798,9.30129 -41.22465,15.12845 -123.77224,15.12845 -82.54759,0 -112.19843,-9.60158 -130.5205,-18.90288 -16.09905,-8.17277 -16.14341,-21.83783 -16.14341,-21.83783 h 293.32783 z"
         inkscape:connector-curvature="0"
         style="fill:#5d544a" />
      <path
         id="path3041"
         d="m 230.79735,270.62187 c 0,0 -0.14382,-39.22235 27.55336,-47.04083 30.37055,-8.57313 90.88308,-10.85768 119.11055,-10.85768 28.22747,0 87.40721,3.04072 119.25883,11.93609 27.51295,7.68368 27.40509,45.96242 27.40509,45.96242 V 737.9435 c 0,0 0.0163,16.31097 -22.89168,25.61226 -22.90798,9.30129 -41.22465,15.12845 -123.77224,15.12845 -82.54759,0 -112.19843,-9.60158 -130.5205,-18.90288 -16.09905,-8.17277 -16.14341,-21.83783 -16.14341,-21.83783 V 270.62187 z"
         inkscape:connector-curvature="0"
         style="fill:#5b5653" />
      <path
         id="path3043"
         d="m 377.89443,222.80745 c -39.16169,1.96537 -83.55761,-1.4425 -120.21429,14.16072 -18.467,9.93046 -19.14295,30.58121 -18.46764,49.125 0.20917,150.2915 -1.06587,323.8004 0.173,474.08928 8.5223,15.92906 28.3289,18.52787 44.24748,22.41391 57.46093,11.20551 116.56323,7.6042 174.6012,3.59585 19.54742,-2.61746 40.64477,-7.46663 54.77632,-21.91601 7.54537,-15.81782 1.09018,-53.03969 3.167,-69.75439 -0.85491,-145.67069 3.02381,-285.68369 0.0116,-431.31703 -2.59695,-15.27942 -10.06666,-23.61324 -28.78984,-31.02894 -37.19624,-7.32818 -71.28584,-7.84995 -109.5048,-9.36839 h -3e-5 z"
         inkscape:connector-curvature="0"
         style="fill:url(#linearGradient2992);filter:url(#filter3876)" />
      <path
         id="path3045"
         d="m 230.79175,735.90769 c 0,0 -0.85096,27.00342 14.75,40.53125 19.75513,17.12997 50.95311,21.6875 134.21875,21.6875 83.26564,0 100.9836,-2.28562 122.5625,-15.375 18.2997,-11.10026 21.15027,-37.70343 21.59375,-44.9375 -0.76034,4.53589 -4.47289,16.3231 -22.6875,23.71875 -22.90804,9.3013 -41.23366,15.125 -123.78125,15.125 -82.54759,0 -112.17793,-9.60495 -130.5,-18.90625 -16.09905,-8.17277 -16.15625,-21.84375 -16.15625,-21.84375 z"
         inkscape:connector-curvature="0"
         style="fill:#524d49" />
      <path
         id="path3047"
         d="m 230.79175,737.92799 c 0,0 -0.85096,27.00342 14.75,40.53125 19.75513,17.12997 50.95311,21.6875 134.21875,21.6875 83.26564,0 100.9836,-2.28562 122.5625,-15.375 18.2997,-11.10026 21.23956,-38.46236 21.68304,-45.69643 -0.76034,4.53589 -4.56218,17.08203 -22.77679,24.47768 -22.90804,9.3013 -41.23366,15.125 -123.78125,15.125 -82.54759,0 -112.17793,-9.60495 -130.5,-18.90625 -16.09905,-8.17277 -16.15625,-21.84375 -16.15625,-21.84375 z"
         inkscape:connector-curvature="0"
         style="fill:#54504f" />
      <path
         id="path3049"
         d="m 230.79175,731.18868 c 0,0 -0.85096,27.00342 14.75,40.53125 19.75513,17.12997 50.95311,21.6875 134.21875,21.6875 83.26564,0 100.9836,-2.28562 122.5625,-15.375 18.2997,-11.10026 21.15027,-37.70343 21.59375,-44.9375 -0.76034,4.53589 -4.47289,25.96596 -22.6875,33.36161 -22.90804,9.3013 -41.23366,15.125 -123.78125,15.125 -82.54759,0 -112.17793,-9.60495 -130.5,-18.90625 -16.09905,-8.17277 -16.15625,-31.48661 -16.15625,-31.48661 z"
         inkscape:connector-curvature="0"
         style="fill:url(#linearGradient2994);filter:url(#filter3917)" />
      <path
         id="path3051"
         d="m 231.32746,739.04582 c 0,0 -1.38667,15.21771 14.21429,28.74554 19.75513,17.12997 50.95311,21.6875 134.21875,21.6875 83.26564,0 100.9836,-2.28562 122.5625,-15.375 18.2997,-11.10026 21.10563,-27.39093 21.54911,-34.625 -0.76034,4.53589 -4.42825,16.0106 -22.64286,23.40625 -22.90804,9.3013 -41.23366,15.125 -123.78125,15.125 -82.54759,0 -112.17793,-9.60495 -130.5,-18.90625 -16.09905,-8.17277 -15.62054,-20.05804 -15.62054,-20.05804 z"
         inkscape:connector-curvature="0"
         style="fill:url(#linearGradient3017)" />
      <path
         id="path3053"
         transform="matrix(0.99602,-0.08913,0.08088,0.99672,0,0)"
         d="m 259.02283,240.10831 h 61.37832 v 4.46824 h -61.37832 z"
         inkscape:connector-curvature="0"
         style="fill:#656260" />
      <path
         id="path3055"
         d="m 240.00705,272.52442 c 0,0 -0.13471,-16.66752 25.80936,-23.99112 28.44823,-8.03049 85.13059,-7.82868 111.57139,-7.82868 26.4408,0 81.87472,0.5065 111.71028,8.83883 25.7715,7.19734 25.67047,22.98097 25.67047,22.98097 v 423.2539 c 0,0 0.0153,15.27856 -21.44274,23.99112 -21.45804,8.71256 -38.61532,10.85914 -115.93801,10.85914 -77.32269,0 -105.09677,-5.68211 -122.25914,-14.39467 -17.16237,-8.71256 -15.12161,-20.45559 -15.12161,-20.45559 v -423.2539 z"
         inkscape:connector-curvature="0"
         style="fill:#0b0b0b" />
      <path
         id="path3057"
         d="m 257.39453,281.1312 h 240 v 400 h -240 z"
         inkscape:connector-curvature="0"
         style="fill:#3a3a3a" />
      <path
         id="path3059"
         transform="matrix(1.09065,0,0,1.09065,-72.15238,-30.56855)"
         d="m 425.02169,718.88556 c 0,7.11312 -5.76633,12.87944 -12.87945,12.87944 -7.11312,0 -12.87944,-5.76632 -12.87944,-12.87944 0,-7.11312 5.76632,-12.87945 12.87944,-12.87945 7.11312,0 12.87945,5.76633 12.87945,12.87945 z"
         inkscape:connector-curvature="0"
         style="fill:#afb1ac;stroke:#151515;stroke-width:4.20849991" />
      <path
         id="path3061"
         transform="matrix(1.09065,0,0,1.09065,-72.15238,-30.56855)"
         d="m 425.02169,718.88556 c 0,7.11312 -5.76633,12.87944 -12.87945,12.87944 -7.11312,0 -12.87944,-5.76632 -12.87944,-12.87944 0,-7.11312 5.76632,-12.87945 12.87944,-12.87945 7.11312,0 12.87945,5.76633 12.87945,12.87945 z"
         inkscape:connector-curvature="0"
         style="fill:#afb1ac;stroke:#4d4b46;stroke-width:2.0999999" />
      <path
         id="path3063"
         d="m 377.10834,230.61549 c -18.98951,-0.012 -37.88882,0.4834 -56.6875,1.53125 a 2.65997,2.65997 0 1 0 0.28125,5.3125 c 37.38992,-2.08413 75.28573,-1.98992 113.3125,0 a 2.65919,2.65919 0 1 0 0.25,-5.3125 c -19.10069,-0.99953 -38.16674,-1.51929 -57.15625,-1.53125 z"
         inkscape:connector-curvature="0"
         style="fill:#ffffff;stroke:#5c5c5c" />
      <path
         id="path3065"
         d="m 375.93121,230.61549 c -0.44763,2.2e-4 -0.89622,0.0305 -1.34375,0.0312 -0.10027,0.14478 -0.1875,0.31202 -0.1875,0.5 0,0.47298 0.37077,0.84375 0.84375,0.84375 0.47298,0 0.875,-0.37077 0.875,-0.84375 0,-0.19708 -0.0719,-0.38276 -0.1875,-0.53125 z m 1.46875,0 c -0.10931,0.14849 -0.1875,0.33417 -0.1875,0.53125 0,0.47298 0.37077,0.84375 0.84375,0.84375 0.47298,0 0.84375,-0.37077 0.84375,-0.84375 0,-0.19708 -0.0782,-0.38276 -0.1875,-0.53125 h -1.3125 z m -7.0625,0.0312 c -0.46801,0.003 -0.93836,0.0279 -1.40625,0.0312 -0.0912,0.13772 -0.15625,0.29593 -0.15625,0.46875 0,0.47298 0.40202,0.84375 0.875,0.84375 0.47298,0 0.84375,-0.37077 0.84375,-0.84375 0,-0.18192 -0.0618,-0.35791 -0.15625,-0.5 z m 1.40625,0 c -0.0944,0.14209 -0.15625,0.31808 -0.15625,0.5 0,0.47298 0.37077,0.84375 0.84375,0.84375 0.47298,0 0.875,-0.37077 0.875,-0.84375 0,-0.18192 -0.0562,-0.35791 -0.15625,-0.5 h -1.40625 z m 8.4375,0 c -0.10622,0.14478 -0.1875,0.31202 -0.1875,0.5 0,0.47298 0.40202,0.84375 0.875,0.84375 0.47298,0 0.84375,-0.37077 0.84375,-0.84375 0,-0.18192 -0.0618,-0.35791 -0.15625,-0.5 h -1.375 z m 2.78125,0 c -0.1001,0.14209 -0.15625,0.31808 -0.15625,0.5 0,0.47298 0.40202,0.84375 0.875,0.84375 0.47298,0 0.84375,-0.37077 0.84375,-0.84375 0,-0.17282 -0.0703,-0.33103 -0.15625,-0.46875 -0.469,-0.003 -0.93733,-0.0284 -1.40625,-0.0312 z m -16.875,0.0312 c -0.0854,0.13461 -0.125,0.30199 -0.125,0.46875 0,0.47298 0.40202,0.84375 0.875,0.84375 0.47298,0 0.84375,-0.37077 0.84375,-0.84375 0,-0.17282 -0.0703,-0.33103 -0.15625,-0.46875 -0.47811,0.004 -0.95951,-0.005 -1.4375,0 z m 19.6875,0 c -0.0859,0.13772 -0.15625,0.29593 -0.15625,0.46875 0,0.47298 0.37077,0.84375 0.84375,0.84375 0.47298,0 0.875,-0.37077 0.875,-0.84375 0,-0.17282 -0.0651,-0.33103 -0.15625,-0.46875 -0.46911,-0.005 -0.93723,0.004 -1.40625,0 z m 2.78125,0 c -0.0804,0.13461 -0.125,0.30199 -0.125,0.46875 0,0.47298 0.37077,0.84375 0.84375,0.84375 0.47298,0 0.875,-0.37077 0.875,-0.84375 0,-0.15766 -0.0479,-0.30787 -0.125,-0.4375 -0.4902,-0.006 -0.97864,-0.0257 -1.46875,-0.0312 z m -25.25,0.0312 c -0.0725,0.12963 -0.125,0.27984 -0.125,0.4375 0,0.47298 0.37077,0.84375 0.84375,0.84375 0.47298,0 0.84375,-0.37077 0.84375,-0.84375 0,-0.15766 -0.0525,-0.30787 -0.125,-0.4375 -0.47788,0.005 -0.95974,-0.006 -1.4375,0 z m 28.0625,0 c -0.0725,0.12963 -0.125,0.27984 -0.125,0.4375 0,0.47298 0.37077,0.84375 0.84375,0.84375 0.47298,0 0.84375,-0.37077 0.84375,-0.84375 0,-0.1425 -0.0338,-0.28569 -0.0937,-0.40625 l -1.46875,-0.0312 z m -29.40625,0.0314 -1.5,0.0312 c -0.053,0.11469 -0.0937,0.2416 -0.0937,0.375 0,0.47298 0.37077,0.84375 0.84375,0.84375 0.47298,0 0.875,-0.37077 0.875,-0.84375 0,-0.14856 -0.0559,-0.28195 -0.125,-0.40625 z m -2.75,0.0312 -1.59375,0.0312 c -0.0421,0.1042 -0.0625,0.2255 -0.0625,0.34375 0,0.47298 0.37077,0.84375 0.84375,0.84375 0.47298,0 0.875,-0.37077 0.875,-0.84375 0,-0.12734 -0.0107,-0.26441 -0.0625,-0.375 z m 34.90625,0 c -0.0565,0.11469 -0.0937,0.2416 -0.0937,0.375 0,0.47298 0.40202,0.84375 0.875,0.84375 0.47298,0 0.84375,-0.37077 0.84375,-0.84375 0,-0.11825 -0.0204,-0.23955 -0.0625,-0.34375 l -1.5625,-0.0312 z m -37.71875,0.0625 -1.59375,0.0312 c -0.0312,0.0885 -0.0625,0.18382 -0.0625,0.28125 0,0.47298 0.40202,0.84375 0.875,0.84375 0.47298,0 0.84375,-0.37077 0.84375,-0.84375 0,-0.10784 -0.0271,-0.21596 -0.0625,-0.3125 z m 40.5,0 c -0.0379,0.0965 -0.0625,0.20466 -0.0625,0.3125 0,0.47298 0.40202,0.84375 0.875,0.84375 0.47298,0 0.84375,-0.37077 0.84375,-0.84375 0,-0.0974 -0.0334,-0.19273 -0.0625,-0.28125 l -1.59375,-0.0312 z m -43.28125,0.0625 -1.65625,0.0312 c -0.0188,0.0699 -0.0312,0.14402 -0.0312,0.21875 0,0.47298 0.40202,0.84375 0.875,0.84375 0.47298,0 0.84375,-0.37077 0.84375,-0.84375 0,-0.0851 -0.009,-0.17139 -0.0312,-0.25 z m 46.0625,0 c -0.0225,0.0786 -0.0312,0.16486 -0.0312,0.25 0,0.47298 0.37077,0.84375 0.84375,0.84375 0.47298,0 0.875,-0.37077 0.875,-0.84375 0,-0.0747 -0.0125,-0.14887 -0.0312,-0.21875 l -1.65625,-0.0312 z m -48.875,0.0625 -1.625,0.0312 c -0.009,0.0516 -0.0312,0.10233 -0.0312,0.15625 0,0.47298 0.37077,0.84375 0.84375,0.84375 0.47298,0 0.84375,-0.37077 0.84375,-0.84375 0,-0.0643 -0.0182,-0.12663 -0.0312,-0.1875 z m 51.6875,0 c -0.013,0.0609 -0.0312,0.12317 -0.0312,0.1875 0,0.47298 0.37077,0.84375 0.84375,0.84375 0.47298,0 0.875,-0.37077 0.875,-0.84375 0,-0.0539 -0.0213,-0.10467 -0.0312,-0.15625 l -1.65625,-0.0312 z m -54.46875,0.0625 c -0.56411,0.0155 -1.12356,0.0148 -1.6875,0.0312 -0.003,0.0305 0,0.0625 0,0.0937 0,0.47298 0.37077,0.84375 0.84375,0.84375 0.47298,0 0.875,-0.37077 0.875,-0.84375 0,-0.0435 -0.0247,-0.0829 -0.0312,-0.125 z m 57.28125,0 c -0.006,0.0421 -0.0312,0.0815 -0.0312,0.125 0,0.47298 0.37077,0.84375 0.84375,0.84375 0.47298,0 0.84375,-0.37077 0.84375,-0.84375 0,-0.0312 0.003,-0.0633 0,-0.0937 -0.55238,-0.0155 -1.10397,-0.0166 -1.65625,-0.0312 z m -60.0625,0.0625 -1.71875,0.0625 c 0,0.47298 0.37077,0.84375 0.84375,0.84375 0.47298,0 0.875,-0.37077 0.875,-0.84375 0,-0.0208 0.002,-0.042 0,-0.0625 z m 62.8125,0.0312 c -3.9e-4,0.0103 0,0.0208 0,0.0312 0,0.47298 0.40202,0.84375 0.875,0.84375 0.47298,0 0.84375,-0.37077 0.84375,-0.84375 -0.57329,-0.0176 -1.14555,-0.0146 -1.71875,-0.0312 z m -65.625,0.0625 -1.6875,0.0625 c 0.0471,0.42534 0.37263,0.75 0.8125,0.75 0.46257,0 0.85786,-0.35445 0.875,-0.8125 z m 68.4375,0 c 0.0171,0.45805 0.41243,0.8125 0.875,0.8125 0.43987,0 0.76545,-0.32466 0.8125,-0.75 l -1.6875,-0.0625 z m -71.28125,0.0937 -1.65625,0.0625 c 0.0892,0.38034 0.4351,0.65625 0.84375,0.65625 0.42947,0 0.75262,-0.30842 0.8125,-0.71875 z m 74.125,0 c 0.0646,0.41033 0.41428,0.71875 0.84375,0.71875 0.40865,0 0.72966,-0.27591 0.8125,-0.65625 l -1.65625,-0.0625 z m -76.9375,0.0939 -1.625,0.0625 c 0.12036,0.33306 0.43695,0.5625 0.8125,0.5625 0.39825,0 0.71949,-0.25959 0.8125,-0.625 z m 79.75,0 c 0.093,0.36541 0.41425,0.625 0.8125,0.625 0.37555,0 0.69214,-0.22944 0.8125,-0.5625 l -1.625,-0.0625 z m 2.84375,0.0937 c 0.11975,0.31838 0.41611,0.53125 0.78125,0.53125 0.33818,0 0.63663,-0.18782 0.78125,-0.46875 l -1.5625,-0.0625 z m -85.4375,0.0312 -1.53125,0.0625 c 0.13982,0.26803 0.42128,0.4375 0.75,0.4375 0.35474,0 0.6548,-0.19618 0.78125,-0.5 z m 88.34375,0.0937 c 0.14796,0.23643 0.38243,0.40625 0.6875,0.40625 0.27906,0 0.50351,-0.14078 0.65625,-0.34375 l -1.34375,-0.0625 z m -91.21875,0.0312 -1.375,0.0625 c 0.15345,0.19119 0.38665,0.3125 0.65625,0.3125 0.29561,0 0.5594,-0.1509 0.71875,-0.375 z m -2.90625,0.125 -1.15625,0.0625 c 0.14423,0.11576 0.32787,0.1875 0.53125,0.1875 0.23649,0 0.46537,-0.0982 0.625,-0.25 z m 97,0 c 0.15963,0.15181 0.38851,0.25 0.625,0.25 0.21048,0 0.38492,-0.0956 0.53125,-0.21875 -0.38439,-0.0174 -0.7719,-0.0142 -1.15625,-0.0312 z m 3,0.125 c 0.12963,0.0725 0.27984,0.125 0.4375,0.125 0.1348,0 0.26302,-0.0397 0.375,-0.0937 l -0.8125,-0.0312 z m -103.03125,0.0312 -0.6875,0.0312 c 0.0965,0.0354 0.20466,0.0625 0.3125,0.0625 0.1348,0 0.26302,-0.0397 0.375,-0.0937 z m -4.59375,1.1875 c -0.47298,0 -0.84375,0.40202 -0.84375,0.875 0,0.47298 0.37077,0.84375 0.84375,0.84375 0.47298,0 0.84375,-0.37077 0.84375,-0.84375 0,-0.47298 -0.37077,-0.875 -0.84375,-0.875 z m 2.8125,0 c -0.47298,0 -0.875,0.40202 -0.875,0.875 0,0.47298 0.40202,0.84375 0.875,0.84375 0.47298,0 0.84375,-0.37077 0.84375,-0.84375 0,-0.47298 -0.37077,-0.875 -0.84375,-0.875 z m 2.8125,0 c -0.47298,0 -0.875,0.40202 -0.875,0.875 0,0.47298 0.40202,0.84375 0.875,0.84375 0.47298,0 0.84375,-0.37077 0.84375,-0.84375 0,-0.47298 -0.37077,-0.875 -0.84375,-0.875 z m 2.78125,0 c -0.47298,0 -0.84375,0.40202 -0.84375,0.875 0,0.47298 0.37077,0.84375 0.84375,0.84375 0.47298,0 0.875,-0.37077 0.875,-0.84375 0,-0.47298 -0.40202,-0.875 -0.875,-0.875 z m 2.8125,0 c -0.47298,0 -0.84375,0.40202 -0.84375,0.875 0,0.47298 0.37077,0.84375 0.84375,0.84375 0.47298,0 0.875,-0.37077 0.875,-0.84375 0,-0.47298 -0.40202,-0.875 -0.875,-0.875 z m 2.8125,0 c -0.47298,0 -0.84375,0.40202 -0.84375,0.875 0,0.47298 0.37077,0.84375 0.84375,0.84375 0.47298,0 0.84375,-0.37077 0.84375,-0.84375 0,-0.47298 -0.37077,-0.875 -0.84375,-0.875 z m 2.8125,0 c -0.47298,0 -0.875,0.40202 -0.875,0.875 0,0.47298 0.40202,0.84375 0.875,0.84375 0.47298,0 0.84375,-0.37077 0.84375,-0.84375 0,-0.47298 -0.37077,-0.875 -0.84375,-0.875 z m 2.8125,0 c -0.47298,0 -0.875,0.40202 -0.875,0.875 0,0.47298 0.40202,0.84375 0.875,0.84375 0.47298,0 0.84375,-0.37077 0.84375,-0.84375 0,-0.47298 -0.37077,-0.875 -0.84375,-0.875 z m 2.78125,0 c -0.47298,0 -0.84375,0.40202 -0.84375,0.875 0,0.47298 0.37077,0.84375 0.84375,0.84375 0.47298,0 0.875,-0.37077 0.875,-0.84375 0,-0.47298 -0.40202,-0.875 -0.875,-0.875 z m 2.8125,0 c -0.47298,0 -0.84375,0.40202 -0.84375,0.875 0,0.47298 0.37077,0.84375 0.84375,0.84375 0.47298,0 0.875,-0.37077 0.875,-0.84375 0,-0.47298 -0.40202,-0.875 -0.875,-0.875 z m 2.8125,0 c -0.47298,0 -0.84375,0.40202 -0.84375,0.875 0,0.47298 0.37077,0.84375 0.84375,0.84375 0.47298,0 0.84375,-0.37077 0.84375,-0.84375 0,-0.47298 -0.37077,-0.875 -0.84375,-0.875 z m 2.8125,0 c -0.47298,0 -0.875,0.40202 -0.875,0.875 0,0.47298 0.40202,0.84375 0.875,0.84375 0.47298,0 0.84375,-0.37077 0.84375,-0.84375 0,-0.47298 -0.37077,-0.875 -0.84375,-0.875 z m 2.8125,0 c -0.47298,0 -0.875,0.40202 -0.875,0.875 0,0.47298 0.40202,0.84375 0.875,0.84375 0.47298,0 0.84375,-0.37077 0.84375,-0.84375 0,-0.47298 -0.37077,-0.875 -0.84375,-0.875 z m 2.78125,0 c -0.47298,0 -0.84375,0.40202 -0.84375,0.875 0,0.47298 0.37077,0.84375 0.84375,0.84375 0.47298,0 0.875,-0.37077 0.875,-0.84375 0,-0.47298 -0.40202,-0.875 -0.875,-0.875 z m 2.8125,0 c -0.47298,0 -0.84375,0.40202 -0.84375,0.875 0,0.47298 0.37077,0.84375 0.84375,0.84375 0.47298,0 0.875,-0.37077 0.875,-0.84375 0,-0.47298 -0.40202,-0.875 -0.875,-0.875 z m 2.8125,0 c -0.47298,0 -0.84375,0.40202 -0.84375,0.875 0,0.47298 0.37077,0.84375 0.84375,0.84375 0.47298,0 0.84375,-0.37077 0.84375,-0.84375 0,-0.47298 -0.37077,-0.875 -0.84375,-0.875 z m 2.8125,0 c -0.47298,0 -0.875,0.40202 -0.875,0.875 0,0.47298 0.40202,0.84375 0.875,0.84375 0.47298,0 0.84375,-0.37077 0.84375,-0.84375 0,-0.47298 -0.37077,-0.875 -0.84375,-0.875 z m 2.8125,0 c -0.47298,0 -0.875,0.40202 -0.875,0.875 0,0.47298 0.40202,0.84375 0.875,0.84375 0.47298,0 0.84375,-0.37077 0.84375,-0.84375 0,-0.47298 -0.37077,-0.875 -0.84375,-0.875 z m 2.78125,0 c -0.47298,0 -0.84375,0.40202 -0.84375,0.875 0,0.47298 0.37077,0.84375 0.84375,0.84375 0.47298,0 0.875,-0.37077 0.875,-0.84375 0,-0.47298 -0.40202,-0.875 -0.875,-0.875 z m 2.8125,0 c -0.47298,0 -0.84375,0.40202 -0.84375,0.875 0,0.47298 0.37077,0.84375 0.84375,0.84375 0.47298,0 0.875,-0.37077 0.875,-0.84375 0,-0.47298 -0.40202,-0.875 -0.875,-0.875 z m 2.8125,0 c -0.47298,0 -0.84375,0.40202 -0.84375,0.875 0,0.47298 0.37077,0.84375 0.84375,0.84375 0.47298,0 0.84375,-0.37077 0.84375,-0.84375 0,-0.47298 -0.37077,-0.875 -0.84375,-0.875 z m 2.8125,0 c -0.47298,0 -0.875,0.40202 -0.875,0.875 0,0.47298 0.40202,0.84375 0.875,0.84375 0.47298,0 0.84375,-0.37077 0.84375,-0.84375 0,-0.47298 -0.37077,-0.875 -0.84375,-0.875 z m 2.8125,0 c -0.47298,0 -0.875,0.40202 -0.875,0.875 0,0.47298 0.40202,0.84375 0.875,0.84375 0.47298,0 0.84375,-0.37077 0.84375,-0.84375 0,-0.47298 -0.37077,-0.875 -0.84375,-0.875 z m 2.8125,0 c -0.47298,0 -0.875,0.40202 -0.875,0.875 0,0.47298 0.40202,0.84375 0.875,0.84375 0.47298,0 0.84375,-0.37077 0.84375,-0.84375 0,-0.47298 -0.37077,-0.875 -0.84375,-0.875 z m 2.78125,0 c -0.47298,0 -0.84375,0.40202 -0.84375,0.875 0,0.47298 0.37077,0.84375 0.84375,0.84375 0.47298,0 0.875,-0.37077 0.875,-0.84375 0,-0.47298 -0.40202,-0.875 -0.875,-0.875 z m 2.8125,0 c -0.47298,0 -0.84375,0.40202 -0.84375,0.875 0,0.47298 0.37077,0.84375 0.84375,0.84375 0.47298,0 0.875,-0.37077 0.875,-0.84375 0,-0.47298 -0.40202,-0.875 -0.875,-0.875 z m 2.8125,0 c -0.47298,0 -0.84375,0.40202 -0.84375,0.875 0,0.47298 0.37077,0.84375 0.84375,0.84375 0.47298,0 0.84375,-0.37077 0.84375,-0.84375 0,-0.47298 -0.37077,-0.875 -0.84375,-0.875 z m 2.8125,0 c -0.47298,0 -0.875,0.40202 -0.875,0.875 0,0.47298 0.40202,0.84375 0.875,0.84375 0.47298,0 0.84375,-0.37077 0.84375,-0.84375 0,-0.47298 -0.37077,-0.875 -0.84375,-0.875 z m 2.8125,0 c -0.47298,0 -0.875,0.40202 -0.875,0.875 0,0.47298 0.40202,0.84375 0.875,0.84375 0.47298,0 0.84375,-0.37077 0.84375,-0.84375 0,-0.47298 -0.37077,-0.875 -0.84375,-0.875 z m 2.78125,0 c -0.47298,0 -0.84375,0.40202 -0.84375,0.875 0,0.47298 0.37077,0.84375 0.84375,0.84375 0.47298,0 0.875,-0.37077 0.875,-0.84375 0,-0.47298 -0.40202,-0.875 -0.875,-0.875 z m 2.8125,0 c -0.47298,0 -0.84375,0.40202 -0.84375,0.875 0,0.47298 0.37077,0.84375 0.84375,0.84375 0.47298,0 0.875,-0.37077 0.875,-0.84375 0,-0.47298 -0.40202,-0.875 -0.875,-0.875 z m 2.8125,0 c -0.47298,0 -0.84375,0.40202 -0.84375,0.875 0,0.47298 0.37077,0.84375 0.84375,0.84375 0.47298,0 0.84375,-0.37077 0.84375,-0.84375 0,-0.47298 -0.37077,-0.875 -0.84375,-0.875 z m 2.8125,0 c -0.47298,0 -0.875,0.40202 -0.875,0.875 0,0.47298 0.40202,0.84375 0.875,0.84375 0.47298,0 0.84375,-0.37077 0.84375,-0.84375 0,-0.47298 -0.37077,-0.875 -0.84375,-0.875 z m 2.8125,0 c -0.47298,0 -0.875,0.40202 -0.875,0.875 0,0.47298 0.40202,0.84375 0.875,0.84375 0.47298,0 0.84375,-0.37077 0.84375,-0.84375 0,-0.47298 -0.37077,-0.875 -0.84375,-0.875 z m 2.78125,0 c -0.47298,0 -0.84375,0.40202 -0.84375,0.875 0,0.47298 0.37077,0.84375 0.84375,0.84375 0.47298,0 0.875,-0.37077 0.875,-0.84375 0,-0.47298 -0.40202,-0.875 -0.875,-0.875 z m 2.8125,0 c -0.47298,0 -0.84375,0.40202 -0.84375,0.875 0,0.47298 0.37077,0.84375 0.84375,0.84375 0.47298,0 0.875,-0.37077 0.875,-0.84375 0,-0.47298 -0.40202,-0.875 -0.875,-0.875 z m 2.8125,0 c -0.47298,0 -0.84375,0.40202 -0.84375,0.875 0,0.47298 0.37077,0.84375 0.84375,0.84375 0.47298,0 0.84375,-0.37077 0.84375,-0.84375 0,-0.47298 -0.37077,-0.875 -0.84375,-0.875 z m 2.8125,0 c -0.47298,0 -0.875,0.40202 -0.875,0.875 0,0.47298 0.40202,0.84375 0.875,0.84375 0.47298,0 0.84375,-0.37077 0.84375,-0.84375 0,-0.47298 -0.37077,-0.875 -0.84375,-0.875 z m 2.8125,0 c -0.47298,0 -0.875,0.40202 -0.875,0.875 0,0.47298 0.40202,0.84375 0.875,0.84375 0.47298,0 0.84375,-0.37077 0.84375,-0.84375 0,-0.47298 -0.37077,-0.875 -0.84375,-0.875 z m 2.78125,0 c -0.47298,0 -0.84375,0.40202 -0.84375,0.875 0,0.47298 0.37077,0.84375 0.84375,0.84375 0.47298,0 0.875,-0.37077 0.875,-0.84375 0,-0.47298 -0.40202,-0.875 -0.875,-0.875 z m 2.8125,0 c -0.47298,0 -0.84375,0.40202 -0.84375,0.875 0,0.47298 0.37077,0.84375 0.84375,0.84375 0.47298,0 0.875,-0.37077 0.875,-0.84375 0,-0.47298 -0.40202,-0.875 -0.875,-0.875 z m 2.8125,0 c -0.47298,0 -0.84375,0.40202 -0.84375,0.875 0,0.47298 0.37077,0.84375 0.84375,0.84375 0.47298,0 0.84375,-0.37077 0.84375,-0.84375 0,-0.47298 -0.37077,-0.875 -0.84375,-0.875 z m -116.46875,2.8125 c -0.32872,0 -0.61018,0.16947 -0.75,0.4375 a 2.65997,2.65997 0 0 0 1.375,1 c 0.13486,-0.15633 0.21875,-0.37242 0.21875,-0.59375 0,-0.47298 -0.37077,-0.84375 -0.84375,-0.84375 z m 2.8125,0 c -0.47298,0 -0.875,0.37077 -0.875,0.84375 0,0.2759 0.13587,0.5256 0.34375,0.6875 l 1.125,-0.0625 c 0.15181,-0.15963 0.25,-0.38851 0.25,-0.625 0,-0.47298 -0.37077,-0.84375 -0.84375,-0.84375 z m 2.8125,0 c -0.47298,0 -0.875,0.37077 -0.875,0.84375 0,0.19708 0.0719,0.38276 0.1875,0.53125 l 1.375,-0.0625 c 0.0859,-0.13772 0.15625,-0.29593 0.15625,-0.46875 0,-0.47298 -0.37077,-0.84375 -0.84375,-0.84375 z m 2.78125,0 c -0.47298,0 -0.84375,0.37077 -0.84375,0.84375 0,0.1425 0.0338,0.28569 0.0937,0.40625 0.52171,-0.0258 1.0406,-0.0688 1.5625,-0.0937 0.0379,-0.0965 0.0625,-0.20466 0.0625,-0.3125 0,-0.47298 -0.40202,-0.84375 -0.875,-0.84375 z m 2.8125,0 c -0.47298,0 -0.84375,0.37077 -0.84375,0.84375 0,0.087 0.0391,0.16984 0.0625,0.25 0.54105,-0.0252 1.08375,-0.0382 1.625,-0.0625 0.014,-0.0609 0.0312,-0.12317 0.0312,-0.1875 0,-0.47298 -0.40202,-0.84375 -0.875,-0.84375 z m 2.8125,0 c -0.47298,0 -0.84375,0.37077 -0.84375,0.84375 0,0.0435 0.0252,0.0829 0.0312,0.125 l 1.65625,-0.0625 c 0.001,-0.0205 0,-0.0417 0,-0.0625 0,-0.47298 -0.37077,-0.84375 -0.84375,-0.84375 z m 2.8125,0 c -0.47298,0 -0.875,0.37077 -0.875,0.84375 0,0.0104 -3.9e-4,0.0209 0,0.0312 l 1.71875,-0.0625 c -0.0158,-0.45805 -0.38118,-0.8125 -0.84375,-0.8125 z m 2.8125,0 c -0.44176,0 -0.82678,0.32193 -0.875,0.75 l 1.6875,-0.0625 c -0.0718,-0.39532 -0.39344,-0.6875 -0.8125,-0.6875 z m 2.78125,0 c -0.40865,0 -0.72966,0.27591 -0.8125,0.65625 l 1.65625,-0.0625 c -0.10988,-0.35054 -0.45591,-0.59375 -0.84375,-0.59375 z m 2.8125,0 c -0.37555,0 -0.66901,0.22944 -0.78125,0.5625 0.52985,-0.0171 1.06373,-0.0151 1.59375,-0.0312 -0.12824,-0.31838 -0.44736,-0.53125 -0.8125,-0.53125 z m 2.8125,0 c -0.34528,0 -0.64938,0.17806 -0.78125,0.46875 l 1.53125,-0.0312 c -0.15191,-0.25844 -0.42837,-0.4375 -0.75,-0.4375 z m 2.8125,0 c -0.31217,0 -0.57284,0.16045 -0.71875,0.40625 l 1.40625,-0.0312 c -0.15019,-0.2241 -0.39189,-0.375 -0.6875,-0.375 z m 2.8125,0 c -0.27906,0 -0.52584,0.14078 -0.6875,0.34375 l 1.34375,-0.0312 c -0.15345,-0.19119 -0.38665,-0.3125 -0.65625,-0.3125 z m 2.8125,0 c -0.25304,0 -0.49452,0.11013 -0.65625,0.28125 l 1.25,-0.0312 c -0.15181,-0.15181 -0.35726,-0.25 -0.59375,-0.25 z m 2.78125,0 c -0.21994,0 -0.41377,0.0854 -0.5625,0.21875 0.37501,-0.007 0.74991,0.006 1.125,0 -0.15375,-0.12504 -0.35027,-0.21875 -0.5625,-0.21875 z m 2.8125,0 c -0.18683,0 -0.36162,0.0571 -0.5,0.15625 0.32309,-0.005 0.6456,0.005 0.96875,0 -0.13772,-0.0859 -0.29593,-0.15625 -0.46875,-0.15625 z m 2.8125,0 c -0.15135,0 -0.28463,0.0579 -0.40625,0.125 h 0.8125 c -0.12162,-0.0671 -0.2549,-0.125 -0.40625,-0.125 z m 2.8125,0 c -0.1425,0 -0.28569,0.0338 -0.40625,0.0937 h 0.78125 c -0.11198,-0.054 -0.2402,-0.0937 -0.375,-0.0937 z m 2.8125,0 c -0.1334,0 -0.26031,0.0408 -0.375,0.0937 h 0.75 c -0.11198,-0.054 -0.2402,-0.0937 -0.375,-0.0937 z m 2.78125,0 c -0.11825,0 -0.24248,0.0204 -0.34375,0.0625 h 0.6875 c -0.1042,-0.0421 -0.2255,-0.0625 -0.34375,-0.0625 z m 2.8125,0 c -0.0851,0 -0.17305,0.009 -0.25,0.0312 h 0.46875 c -0.0699,-0.0174 -0.14402,-0.0312 -0.21875,-0.0312 z m 2.8125,0 c -0.0643,0 -0.12763,0.0182 -0.1875,0.0312 h 0.40625 c -0.0686,-0.0174 -0.14402,-0.0312 -0.21875,-0.0312 z m 2.8125,0 c -0.10784,0 -0.21596,0.0271 -0.3125,0.0625 h 0.625 c -0.094,-0.0354 -0.20466,-0.0625 -0.3125,-0.0625 z m 2.8125,0 c -0.11825,0 -0.23955,0.0204 -0.34375,0.0625 h 0.6875 c -0.10127,-0.0421 -0.2255,-0.0625 -0.34375,-0.0625 z m 2.78125,0 c -0.1348,0 -0.26302,0.0397 -0.375,0.0937 h 0.78125 c -0.12056,-0.06 -0.26375,-0.0937 -0.40625,-0.0937 z m 2.8125,0 c -0.14426,0 -0.28863,0.0324 -0.40625,0.0937 0.27111,0.003 0.54136,0.0279 0.8125,0.0312 -0.1243,-0.0648 -0.25769,-0.125 -0.40625,-0.125 z m 2.8125,0 c -0.16081,0 -0.31087,0.0498 -0.4375,0.125 0.30185,0.004 0.60436,0.0267 0.90625,0.0312 -0.13446,-0.0901 -0.29138,-0.15625 -0.46875,-0.15625 z m 2.8125,0 c -0.19708,0 -0.38276,0.0782 -0.53125,0.1875 l 1.09375,0.0312 c -0.14873,-0.13334 -0.34256,-0.21875 -0.5625,-0.21875 z m 2.8125,0 c -0.23649,0 -0.46537,0.0982 -0.625,0.25 l 1.25,0.0312 c -0.15341,-0.17112 -0.37196,-0.28125 -0.625,-0.28125 z m 2.78125,0 c -0.2696,0 -0.5028,0.12131 -0.65625,0.3125 l 1.34375,0.0312 c -0.16166,-0.20297 -0.40844,-0.34375 -0.6875,-0.34375 z m 2.8125,0 c -0.29561,0 -0.53731,0.1509 -0.6875,0.375 l 1.4375,0.0312 c -0.15517,-0.2458 -0.43783,-0.40625 -0.75,-0.40625 z m 2.8125,0 c -0.32163,0 -0.57609,0.17906 -0.71875,0.4375 l 1.5,0.0312 c -0.13187,-0.29069 -0.43597,-0.46875 -0.78125,-0.46875 z m 2.8125,0 c -0.36514,0 -0.68426,0.21287 -0.8125,0.53125 0.53029,0.0156 1.06338,0.0149 1.59375,0.0312 -0.11224,-0.33306 -0.4057,-0.5625 -0.78125,-0.5625 z m 2.8125,0 c -0.39825,0 -0.74374,0.25959 -0.84375,0.625 0.55122,0.0176 1.10494,0.0129 1.65625,0.0312 -0.0828,-0.38034 -0.40385,-0.65625 -0.8125,-0.65625 z m 2.8125,0 c -0.42947,0 -0.77913,0.30842 -0.84375,0.71875 0.56176,0.0193 1.12565,0.0111 1.6875,0.0312 -0.0446,-0.42807 -0.40199,-0.75 -0.84375,-0.75 z m 2.78125,0 c -0.46257,0 -0.82792,0.35445 -0.84375,0.8125 0.5723,0.0211 1.14636,0.009 1.71875,0.0312 0,-0.47298 -0.40202,-0.84375 -0.875,-0.84375 z m 2.8125,0 c -0.47298,0 -0.84375,0.37077 -0.84375,0.84375 0,0.0208 -0.001,0.042 0,0.0625 l 1.6875,0.0625 c 0.007,-0.0421 0.0312,-0.0815 0.0312,-0.125 0,-0.47298 -0.40202,-0.84375 -0.875,-0.84375 z m 2.8125,0 c -0.47298,0 -0.84375,0.37077 -0.84375,0.84375 0,0.0643 0.0182,0.12663 0.0312,0.1875 l 1.625,0.0625 c 0.0225,-0.0786 0.0312,-0.16486 0.0312,-0.25 0,-0.47298 -0.37077,-0.84375 -0.84375,-0.84375 z m 2.8125,0 c -0.47298,0 -0.875,0.37077 -0.875,0.84375 0,0.10784 0.0246,0.21596 0.0625,0.3125 l 1.5625,0.0625 c 0.053,-0.11469 0.0937,-0.2416 0.0937,-0.375 0,-0.47298 -0.37077,-0.84375 -0.84375,-0.84375 z m 2.8125,0 c -0.47298,0 -0.875,0.37077 -0.875,0.84375 0,0.15766 0.0479,0.30787 0.125,0.4375 l 1.4375,0.0625 c 0.0944,-0.14209 0.15625,-0.31808 0.15625,-0.5 0,-0.47298 -0.37077,-0.84375 -0.84375,-0.84375 z m 2.78125,0 c -0.47298,0 -0.84375,0.37077 -0.84375,0.84375 0,0.21223 0.0937,0.40875 0.21875,0.5625 l 1.25,0.0625 c 0.15963,-0.15963 0.25,-0.38851 0.25,-0.625 0,-0.47298 -0.40202,-0.84375 -0.875,-0.84375 z m 2.8125,0 c -0.47298,0 -0.84375,0.37077 -0.84375,0.84375 0,0.28615 0.1318,0.55785 0.34375,0.71875 0.11442,0.006 0.22933,-0.006 0.34375,0 a 2.65919,2.65919 0 0 0 0.78125,-0.0935 c 0.15963,-0.15963 0.25,-0.38851 0.25,-0.625 0,-0.47298 -0.40202,-0.84375 -0.875,-0.84375 z"
         inkscape:connector-curvature="0"
         style="fill:#656260" />
      <path
         id="path3067"
         d="m 282.92292,697.74553 -3.39285,3.39286 3.4375,3.4375"
         inkscape:connector-curvature="0"
         style="fill:none;stroke:#ffffff;stroke-width:2;stroke-linecap:round;stroke-linejoin:round" />
      <path
         id="path3069"
         d="m 279.70864,701.0491 h 6.96428 l 4.33036,4.33036 0.22321,-0.22322"
         inkscape:connector-curvature="0"
         style="fill:none;stroke:#ffffff;stroke-width:2;stroke-linecap:round;stroke-linejoin:round" />
      <path
         id="path3071"
         d="m 343.49047,699.44196 h 9.53454"
         inkscape:connector-curvature="0"
         style="fill:none;stroke:#ffffff;stroke-width:1.5;stroke-linecap:round;stroke-linejoin:round" />
      <path
         id="path3073"
         d="m 343.49047,702.83482 h 9.53454"
         inkscape:connector-curvature="0"
         style="fill:none;stroke:#ffffff;stroke-width:1.5;stroke-linecap:round;stroke-linejoin:round" />
      <path
         id="path3075"
         d="m 343.49047,705.87053 h 9.53454"
         inkscape:connector-curvature="0"
         style="fill:none;stroke:#ffffff;stroke-width:1.5;stroke-linecap:round;stroke-linejoin:round" />
      <path
         id="path3077"
         d="m 340.23154,696.45089 h 12.79347"
         inkscape:connector-curvature="0"
         style="fill:none;stroke:#ffffff;stroke-width:2;stroke-linecap:round;stroke-linejoin:round" />
      <path
         id="path3079"
         d="m 401.32213,702.30359 6.28829,-6.4777 6.51786,6.51785"
         inkscape:connector-curvature="0"
         style="fill:none;stroke:#ffffff;stroke-width:2;stroke-linecap:round;stroke-linejoin:round" />
      <path
         id="path3081"
         d="m 411.78388,703.63839 v 3.75 h -8.03572 v -3.75"
         inkscape:connector-curvature="0"
         style="fill:none;stroke:#ffffff;stroke-width:2;stroke-linecap:round;stroke-linejoin:round" />
      <path
         id="path3083"
         d="m 411.76221,699.62053 v -3.125"
         inkscape:connector-curvature="0"
         style="fill:none;stroke:#ffffff;stroke-width:2;stroke-linecap:round;stroke-linejoin:round" />
      <path
         id="path3085"
         transform="matrix(0.85392,0,0,0.85392,37.74011,133.35382)"
         d="m 507.72792,663.5166 c 0,2.78946 -2.26131,5.05076 -5.05077,5.05076 -2.78946,0 -5.05076,-2.2613 -5.05076,-5.05076 0,-2.78946 2.26131,-5.05076 5.05076,-5.05076 2.78945,0 5.05077,2.2613 5.05077,5.05076 z"
         inkscape:connector-curvature="0"
         style="fill:none;stroke:#ffffff;stroke-width:2;stroke-linecap:round;stroke-linejoin:round" />
      <path
         id="path3087"
         d="m 470.35525,703.39862 4.56495,4.89933"
         inkscape:connector-curvature="0"
         style="fill:none;stroke:#ffffff;stroke-width:2.5" />
      <path
         id="path3089"
         d="m 257.39453,281.1312 h 240 v 400 c -40.4692,-127.44494 -55.55044,-268.38729 -240,-319.28571 V 281.1312 z"
         inkscape:connector-curvature="0"
         style="opacity:0.5;fill:url(#linearGradient3814)" />
    </g>
  </g>
</svg>
