<?xml version="1.0" standalone="no"?>
<!DOCTYPE svg PUBLIC "-//W3C//DTD SVG 20010904//EN"
 "http://www.w3.org/TR/2001/REC-SVG-20010904/DTD/svg10.dtd">
<svg version="1.0" xmlns="http://www.w3.org/2000/svg"
 width="890.000000pt" height="1280.000000pt" viewBox="0 0 890.000000 1280.000000"
 preserveAspectRatio="xMidYMid meet">
<metadata>
Created by potrace 1.15, written by Peter Selinger 2001-2017
</metadata>
<g transform="translate(0.000000,1280.000000) scale(0.100000,-0.100000)"
fill="#000000" stroke="none">
<path d="M655 12793 c-16 -2 -61 -13 -100 -25 -254 -74 -443 -264 -526 -528
l-24 -75 0 -2525 0 -2525 23 -78 c85 -296 325 -507 627 -553 75 -12 711 -14
3785 -14 2507 0 3722 3 3779 10 186 24 326 93 456 224 118 120 178 232 210
391 14 72 15 322 13 2580 l-3 2500 -24 70 c-88 263 -262 437 -526 526 l-70 24
-3795 1 c-2087 1 -3808 -1 -3825 -3z m7470 -482 c-11 -11 -315 -277 -675 -591
-397 -347 -654 -579 -654 -589 1 -9 24 -65 52 -126 27 -60 65 -158 83 -217 19
-59 37 -107 40 -105 4 1 332 287 730 635 l724 632 3 -1165 c1 -641 1 -1689 0
-2330 l-3 -1164 -760 920 c-418 507 -763 923 -767 925 -4 3 -32 -48 -63 -112
-30 -65 -85 -162 -121 -216 -45 -68 -63 -103 -56 -111 5 -7 332 -403 726 -880
394 -477 716 -870 716 -873 0 -9 -7409 1 -7418 11 -7 6 185 246 540 675 302
366 597 723 655 793 l106 128 -23 76 c-41 140 -90 379 -90 448 0 17 -4 36 -8
43 -6 9 -224 -249 -698 -822 l-689 -835 -3 1115 c-1 614 -1 1615 0 2224 l3
1109 765 -747 c420 -411 766 -747 768 -747 2 0 25 54 51 120 26 66 70 167 99
223 29 57 52 105 52 107 0 2 -289 286 -642 631 -354 345 -690 674 -748 730
l-105 104 3715 0 c3657 0 3714 0 3695 -19z"/>
<path d="M4520 12034 c-710 -58 -1261 -317 -1714 -804 -370 -398 -602 -917
-672 -1500 -19 -167 -19 -482 1 -635 96 -734 495 -1312 1120 -1623 331 -165
642 -234 1048 -233 365 0 622 34 897 117 107 33 341 125 336 133 -2 3 -30 89
-61 191 -32 102 -59 187 -61 189 -1 2 -55 -18 -119 -43 -260 -104 -554 -158
-875 -159 -223 -1 -364 14 -536 58 -601 153 -1016 571 -1169 1179 -54 212 -68
362 -62 631 9 387 71 666 216 970 378 793 1176 1213 2069 1090 640 -89 1096
-470 1267 -1060 44 -153 57 -250 62 -456 7 -259 -13 -434 -69 -624 -76 -255
-236 -474 -405 -556 -62 -31 -76 -33 -165 -34 -107 0 -132 10 -176 75 -34 51
-45 105 -44 235 0 130 -4 102 142 1004 49 305 87 558 84 562 -8 14 -157 67
-259 93 -798 201 -1507 -30 -1901 -619 -180 -271 -274 -579 -274 -905 0 -319
88 -554 273 -727 68 -63 188 -131 277 -157 191 -55 441 -32 636 59 154 71 323
217 438 378 27 37 50 67 51 65 2 -2 10 -39 19 -83 65 -321 307 -476 688 -443
506 43 912 389 1093 932 74 219 106 433 106 706 0 238 -22 400 -77 590 -95
321 -250 587 -478 816 -308 309 -709 500 -1191 570 -98 14 -426 26 -515 18z
m325 -1685 c41 -6 75 -16 75 -22 0 -53 -107 -720 -126 -786 -52 -179 -126
-311 -239 -426 -125 -127 -257 -180 -383 -155 -206 42 -293 211 -270 520 22
290 162 566 369 726 92 70 224 130 329 147 52 9 172 7 245 -4z"/>
</g>
</svg>