<?xml version="1.0" encoding="UTF-8" standalone="no"?>
<svg
   width="547"
   height="698"
   viewBox="0 0 547 698"
   version="1.1"
   id="svg226"
   sodipodi:docname="cnet.gsmtower.svg"
   inkscape:version="1.1.2 (0a00cf5339, 2022-02-04)"
   xmlns:inkscape="http://www.inkscape.org/namespaces/inkscape"
   xmlns:sodipodi="http://sodipodi.sourceforge.net/DTD/sodipodi-0.dtd"
   xmlns="http://www.w3.org/2000/svg"
   xmlns:svg="http://www.w3.org/2000/svg">
  <defs
     id="defs230" />
  <sodipodi:namedview
     id="namedview228"
     pagecolor="#ffffff"
     bordercolor="#666666"
     borderopacity="1.0"
     inkscape:pageshadow="2"
     inkscape:pageopacity="0.0"
     inkscape:pagecheckerboard="0"
     showgrid="false"
     inkscape:zoom="0.65240225"
     inkscape:cx="-229.9195"
     inkscape:cy="223.78832"
     inkscape:window-width="1920"
     inkscape:window-height="1015"
     inkscape:window-x="0"
     inkscape:window-y="0"
     inkscape:window-maximized="1"
     inkscape:current-layer="Group_122" />
  <g
     id="Group_402"
     data-name="Group 402"
     transform="translate(-1033,-132)">
    <g
       id="Group_179"
       data-name="Group 179"
       transform="translate(2672.5,55.071)">
      <g
         id="Group_99"
         data-name="Group 99"
         transform="translate(-1421.295,188.07)">
        <g
           id="Group_97"
           data-name="Group 97">
          <path
             id="Path_162"
             style="fill:#3f3f3f;fill-opacity:1"
             d="M 58.189453,-4.1503906 C 46.061624,18.759034 33.93214,41.667582 21.802734,64.576172 c 0.09269,1.707905 -0.410268,3.570207 0.56538,5.110511 10.671566,22.666288 21.343132,45.332577 32.014698,67.998867 -11.61006,13.26689 -23.219843,26.53403 -34.830078,39.80078 0,1.88932 0,3.77864 0,5.66797 11.345705,12.86596 22.689996,25.73317 34.035157,38.59961 C 40.391923,237.79362 27.195989,253.83335 14,269.87305 c 0.06804,1.91593 0.133689,3.83196 0.197266,5.74804 12.899738,13.08334 25.799479,26.16667 38.699218,39.25 -14.595924,13.7986 -29.190072,27.59907 -43.787109,41.39649 -0.099442,1.94141 -0.1993017,3.88281 -0.2988281,5.82422 14.7423751,18.31703 29.4829331,36.63553 44.2246091,54.95312 -16.623115,13.35278 -33.245685,26.70624 -49.8691404,40.0586 -0.059673,2.19202 -0.1180826,4.38409 -0.1757812,6.57617 16.4489736,15.41093 32.8942476,30.82582 49.3417966,46.23828 -19.101763,16.58245 -38.201912,33.16676 -57.3046872,49.74805 1.7287574,3.43347 3.4569888,6.8672 5.18554682,10.30078 C 21.933097,551.1089 43.652443,532.25001 65.373047,513.39258 c 0.02817,-2.1491 0.05751,-4.29818 0.08594,-6.44727 -16.376863,-15.34771 -32.75251,-30.69671 -49.128906,-46.04492 16.35427,-13.13659 32.70771,-26.27421 49.0625,-39.41016 0.164808,-2.02587 0.327456,-4.05193 0.488281,-6.07812 C 51.03337,396.95598 36.181292,378.50354 21.332034,360.04883 36.089812,346.09501 50.847871,332.1415 65.605472,318.1875 c 0.02868,-2.05924 0.05509,-4.1185 0.08398,-6.17773 C 52.594496,298.72971 39.500742,285.44848 26.406249,272.16797 39.529071,256.21596 52.653695,240.26543 65.77539,224.3125 65.75063,222.45834 65.72764,220.60416 65.70312,218.75 54.398504,205.93338 43.096554,193.1144 31.792964,180.29688 c 11.256966,-12.86411 22.515494,-25.72685 33.771484,-38.5918 0.111538,-1.61952 0.509492,-3.24949 0.404647,-4.8639 C 54.966866,113.47362 43.964988,90.1059 32.962891,66.738281 44.540298,44.870407 56.118242,23.002818 67.695312,1.1347656 c -2.765028,-2.5235033 -5.531526,-5.0453958 -8.298828,-7.5664062 -0.402343,0.7604166 -0.804687,1.5208333 -1.207031,2.28125 z" />
        </g>
        <g
           id="Group_98"
           data-name="Group 98"
           transform="translate(58.987)">
          <path
             id="Path_163"
             style="fill:#3f3f3f;fill-opacity:1"
             d="m 1.4042969,-4.6933594 c -2.13165918,1.9418307 -4.2630633,3.88394281 -6.3925781,5.828125 C 6.5887888,23.002818 18.166733,44.870407 29.744141,66.738281 18.700366,90.193937 7.657831,113.65018 -3.3867188,137.10547 c 0.2557714,1.60372 0.2293666,3.29363 0.7299657,4.83302 11.1906706,12.78643 22.3804771,25.57362 33.5708151,38.36034 -11.30359,12.81753 -22.6055396,25.6365 -33.9101558,38.45312 -0.024513,1.85416 -0.047509,3.70835 -0.072266,5.5625 13.1216948,15.95294 26.2463188,31.90346 39.3691408,47.85547 -13.094493,13.28051 -26.188247,26.56175 -39.2832033,39.8418 0.028895,2.05923 0.055304,4.1185 0.083984,6.17773 14.7606353,13.95022 29.5179763,27.90392 44.2773433,41.85547 -14.850871,18.45446 -29.702064,36.90866 -44.5527339,55.36328 0.1599711,2.02741 0.3217569,4.05468 0.4824219,6.08203 16.358255,13.13471 32.711885,26.27519 49.068359,39.41211 -16.376395,15.34821 -32.752042,30.69722 -49.1289059,46.04493 0.028435,2.14974 0.057755,4.29947 0.085937,6.44921 21.7208829,18.85787 43.4432959,37.71398 65.1621099,56.57422 1.727327,-3.43451 3.454226,-6.86924 5.179687,-10.30468 -19.099176,-16.58253 -38.19929,-33.16398 -57.298828,-49.7461 16.44755,-15.41245 32.892823,-30.82734 49.341797,-46.23828 -0.05771,-2.19208 -0.116108,-4.38414 -0.175781,-6.57617 C 42.919485,443.7525 26.296948,430.39835 9.6738281,417.04492 24.415504,398.72733 39.156063,380.40883 53.898438,362.0918 53.79891,360.15039 53.699054,358.20899 53.599609,356.26758 39.002599,342.47079 24.408421,328.67099 9.8125,314.87305 c 12.899744,-13.08398 25.799452,-26.168 38.699219,-39.25196 0.06364,-1.91608 0.129158,-3.83211 0.197265,-5.74804 C 35.512995,253.83335 22.317062,237.79362 9.1210938,221.75391 20.46625,208.88811 31.810574,196.02158 43.15625,183.15625 c 0,-1.88932 0,-3.77865 0,-5.66797 C 31.545987,164.22091 19.936237,150.95309 8.3261719,137.68555 19.212427,114.56584 30.097184,91.445434 40.984375,68.326172 40.813122,66.624244 41.248645,64.734757 40.196018,63.24218 27.90167,40.01749 15.606037,16.793479 3.3125,-6.4316406 2.6764323,-5.8522135 2.0403646,-5.2727865 1.4042969,-4.6933594 Z" />
        </g>
      </g>
      <g
         id="Group_102"
         data-name="Group 102"
         transform="translate(-1421.98,188.069)">
        <g
           id="Group_100"
           data-name="Group 100"
           transform="translate(0,136.253)">
          <path
             id="Path_164"
             style="stroke-width:1;stroke-miterlimit:4;stroke-dasharray:none"
             d="m 24.337891,-5.2753906 c -1.46416,1.8844728 -3.205878,3.5738105 -4.333985,5.69921872 C 11.228877,148.52227 2.4485132,296.6204 -6.328125,444.71875 c 5.219431,0.53486 10.4387975,1.07036 15.6582031,1.60547 C 17.932628,301.17963 26.53727,156.03517 35.140625,10.890625 c 17.594401,0 35.188802,0 52.783203,0 8.602745,145.141935 17.206452,290.283815 25.808592,435.425785 5.2202,-0.53116 10.44024,-1.06376 15.66016,-1.59766 C 120.60625,296.4635 111.81566,148.20849 103.03125,-0.046875 101.39824,-2.0300178 99.767457,-4.0149908 98.136719,-6 73.736979,-6 49.33724,-6 24.9375,-6 c -0.19987,0.2415365 -0.39974,0.4830729 -0.599609,0.7246094 z" />
        </g>
        <g
           id="Group_101"
           data-name="Group 101"
           transform="translate(59.672)">
          <rect
             id="Rectangle_33"
             data-name="Rectangle 33"
             width="3.7219999"
             height="575.784"
             fill="#3f3f3f"
             x="0"
             y="0" />
        </g>
      </g>
      <g
         id="Group_105"
         data-name="Group 105"
         transform="translate(-1396.077,188.069)">
        <g
           id="Group_103"
           data-name="Group 103"
           transform="translate(67.537)">
          <path
             id="Rectangle_34"
             d="m -6,-4 c 0,50.380859 0,100.761719 0,151.14258 5.24088542,0 10.4817708,0 15.7226562,0 1e-7,-51.047528 0,-102.095054 0,-153.14258 C 4.4817708,-6 -0.75911458,-6 -6,-6 c 0,0.6666667 0,1.3333333 0,2 z" />
        </g>
        <g
           id="Group_104"
           data-name="Group 104">
          <path
             id="Rectangle_35"
             d="m -6,-4 c 0,50.380859 0,100.761719 0,151.14258 5.24088542,0 10.4817708,0 15.7226562,0 1e-7,-51.047528 0,-102.095054 0,-153.14258 C 4.4817708,-6 -0.75911458,-6 -6,-6 c 0,0.6666667 0,1.3333333 0,2 z" />
        </g>
      </g>
      <g
         id="Group_109"
         data-name="Group 109"
         transform="translate(-1434.947,759.911)">
        <g
           id="Group_106"
           data-name="Group 106"
           transform="translate(54.532)">
          <path
             id="Path_165"
             data-name="Path 165"
             d="m -1180.185,1792.442 h -41.054 l 6.114,-14.813 h 28.825 z"
             transform="translate(1221.239,-1777.629)"
             fill="#3f3f3f" />
        </g>
        <g
           id="Group_107"
           data-name="Group 107"
           transform="translate(122.437)">
          <path
             id="Path_166"
             data-name="Path 166"
             d="m -972.549,1792.442 h -26.561 l 0.788,-14.813 h 21.263 z"
             transform="translate(999.11,-1777.629)"
             fill="#3f3f3f" />
        </g>
        <g
           id="Group_108"
           data-name="Group 108">
          <path
             id="Path_167"
             data-name="Path 167"
             d="m -1373.062,1792.442 h -26.562 l 4.51,-14.813 h 21.263 z"
             transform="translate(1399.624,-1777.629)"
             fill="#3f3f3f" />
        </g>
      </g>
      <g
         id="Group_113"
         data-name="Group 113"
         transform="translate(-1423.124,188.657)">
        <g
           id="Group_111"
           data-name="Group 111"
           transform="translate(0,68.127)">
          <rect
             id="Rectangle_36"
             data-name="Rectangle 36"
             width="125.354"
             height="4.8709998"
             fill="#3f3f3f"
             x="0"
             y="0" />
        </g>
        <g
           id="Group_112"
           data-name="Group 112">
          <rect
             id="Rectangle_37"
             data-name="Rectangle 37"
             width="125.354"
             height="4.8709998"
             fill="#3f3f3f"
             x="0"
             y="0" />
        </g>
      </g>
      <g
         id="Group_116"
         data-name="Group 116"
         transform="translate(-1435.549,172.753)">
        <g
           id="Group_114"
           data-name="Group 114"
           transform="translate(0,0.13)">
          <path
             id="Path_169"
             data-name="Path 169"
             d="m -1389,412 h -12.592 V 315.865 H -1389 Z m -8.87,-4.89 h 5.147 v -86.355 h -5.147 z"
             transform="translate(1401.594,-315.865)"
             fill="#3f3f3f" />
        </g>
        <g
           id="Group_115"
           data-name="Group 115"
           transform="translate(135.441)">
          <path
             id="Path_170"
             data-name="Path 170"
             d="m -943.779,411.677 h -14.762 v -96.135 h 14.762 z m -11.04,-4.89 h 7.318 v -86.355 h -7.318 z"
             transform="translate(958.541,-315.542)"
             fill="#3f3f3f" />
        </g>
      </g>
      <g
         id="Group_117"
         data-name="Group 117"
         transform="translate(-1423.405,324.322)">
        <path
           id="Path_171"
           d="m 0.2742,-1.21109 c -0.7359,1.03444 -1.6354,2.01339 -2.2695,3.08242 0,28.05521 0,56.11041 0,84.16562 0.9563,1.2577 1.9132,2.51499 2.8711,3.77149 41.3893,0 82.7786,0 124.1679,0 0.9576,-1.25707 1.9162,-2.51341 2.875,-3.76953 0,-28.0892 0,-56.17839 0,-84.26758 -0.9563,-1.25769 -1.9132,-2.51499 -2.8711,-3.77149 -41.3906,0 -82.7812,0 -124.1718,0 -0.2006,0.26302 -0.4011,0.52605 -0.6016,0.78907 z m 119.918,8.10156 c 0,24.67643 0,49.35286 0,74.0293 -38.1563,0 -76.3125,0 -114.4688,0 0,-24.67644 0,-49.35287 0,-74.0293 38.1563,0 76.3125,0 114.4688,0 z"
           style="fill:#3f3f3f;fill-opacity:1" />
      </g>
      <g
         id="Group_118"
         data-name="Group 118"
         transform="translate(-1407.491,545.121)">
        <rect
           id="Rectangle_38"
           data-name="Rectangle 38"
           width="94.085999"
           height="4.8899999"
           fill="#3f3f3f"
           x="0"
           y="0" />
      </g>
      <g
         id="Group_119"
         data-name="Group 119"
         transform="translate(-1413.481,646.185)">
        <rect
           id="Rectangle_39"
           data-name="Rectangle 39"
           width="106.067"
           height="4.8899999"
           fill="#3f3f3f"
           x="0"
           y="0" />
      </g>
      <g
         id="Group_120"
         data-name="Group 120"
         transform="translate(-1416.156,366.471)">
        <rect
           id="Rectangle_40"
           data-name="Rectangle 40"
           width="111.416"
           height="3.5109999"
           fill="#888888"
           x="0"
           y="0" />
      </g>
      <g
         id="Group_129"
         data-name="Group 129"
         transform="translate(-1439.396,129.807)">
        <g
           id="Group_122"
           data-name="Group 122"
           transform="translate(148.531)" />
        <g
           id="Group_125"
           data-name="Group 125"
           transform="translate(147.254,24.618)">
          <g
             id="Group_123"
             data-name="Group 123">
            <path
               id="Path_174"
               data-name="Path 174"
               d="m -921.84,273.346 v 70.979 a 1.827,1.827 0 0 1 -1.251,1.6 21.236,21.236 0 0 1 -2.043,0.744 24.543,24.543 0 0 1 -7.347,1.1 V 269.9 a 24.626,24.626 0 0 1 7.347,1.1 c 0.7,0.217 1.385,0.469 2.043,0.747 a 1.827,1.827 0 0 1 1.251,1.599 z"
               transform="translate(932.481,-269.901)"
               fill="#cccccc" />
          </g>
          <g
             id="Group_124"
             data-name="Group 124"
             transform="translate(7.348,1.88)"
             opacity="0.09"
             style="isolation:isolate;mix-blend-mode:multiply">
            <path
               id="Path_175"
               data-name="Path 175"
               d="m -905.152,276.88 v 69.52 a 1.8,1.8 0 0 1 -1.251,1.567 21.478,21.478 0 0 1 -2.043,0.729 v -74.11 c 0.7,0.213 1.384,0.46 2.043,0.732 a 1.8,1.8 0 0 1 1.251,1.562 z"
               transform="translate(908.446,-274.582)" />
          </g>
        </g>
        <g
           id="Group_128"
           data-name="Group 128"
           transform="translate(0,24.618)">
          <g
             id="Group_126"
             data-name="Group 126">
            <path
               id="Path_176"
               data-name="Path 176"
               d="m -1414.175,344.326 v -70.98 a 1.827,1.827 0 0 1 1.251,-1.6 21.211,21.211 0 0 1 2.043,-0.744 24.537,24.537 0 0 1 7.348,-1.1 v 77.87 a 24.634,24.634 0 0 1 -7.348,-1.1 c -0.7,-0.218 -1.384,-0.469 -2.043,-0.747 a 1.827,1.827 0 0 1 -1.251,-1.599 z"
               transform="translate(1414.175,-269.901)"
               fill="#cccccc" />
          </g>
          <g
             id="Group_127"
             data-name="Group 127"
             transform="translate(0,1.88)"
             opacity="0.2">
            <path
               id="Path_177"
               data-name="Path 177"
               d="m -1414.175,346.394 v -69.517 a 1.8,1.8 0 0 1 1.251,-1.567 21.5,21.5 0 0 1 2.043,-0.729 v 74.11 c -0.7,-0.213 -1.384,-0.46 -2.043,-0.732 a 1.8,1.8 0 0 1 -1.251,-1.565 z"
               transform="translate(1414.175,-274.582)"
               fill="#ffffff" />
          </g>
        </g>
      </g>
      <g
         id="Group_135"
         data-name="Group 135"
         transform="translate(-1369.582,316)">
        <g
           id="Group_130"
           data-name="Group 130">
          <path
             id="Path_178"
             data-name="Path 178"
             d="m -1167.535,676.122 v 79.919 a 2.059,2.059 0 0 1 -1.073,1.8 15.592,15.592 0 0 1 -1.754,0.838 16.518,16.518 0 0 1 -6.309,1.24 c -0.39,0 -0.776,-0.013 -1.16,-0.042 a 16.426,16.426 0 0 1 -5.057,-1.156 16.394,16.394 0 0 1 -1.844,-0.876 1.955,1.955 0 0 1 -0.313,-0.216 2.043,2.043 0 0 1 -0.76,-1.589 v -79.918 a 2.054,2.054 0 0 1 0.76,-1.592 1.9,1.9 0 0 1 0.313,-0.213 16.373,16.373 0 0 1 1.844,-0.876 16.437,16.437 0 0 1 5.057,-1.157 c 0.383,-0.029 0.77,-0.042 1.16,-0.042 a 16.576,16.576 0 0 1 6.309,1.237 16.3,16.3 0 0 1 1.754,0.841 2.059,2.059 0 0 1 1.073,1.802 z"
             transform="translate(1185.804,-672.242)"
             fill="#cccccc" />
        </g>
        <g
           id="Group_131"
           data-name="Group 131">
          <path
             id="Path_179"
             data-name="Path 179"
             d="m -1167.535,676.122 v 79.919 a 2.059,2.059 0 0 1 -1.073,1.8 15.592,15.592 0 0 1 -1.754,0.838 16.518,16.518 0 0 1 -6.309,1.24 c -0.39,0 -0.776,-0.013 -1.16,-0.042 a 16.426,16.426 0 0 1 -5.057,-1.156 16.394,16.394 0 0 1 -1.844,-0.876 1.955,1.955 0 0 1 -0.313,-0.216 2.043,2.043 0 0 1 -0.76,-1.589 v -79.918 a 2.054,2.054 0 0 1 0.76,-1.592 1.9,1.9 0 0 1 0.313,-0.213 16.373,16.373 0 0 1 1.844,-0.876 16.437,16.437 0 0 1 5.057,-1.157 c 0.383,-0.029 0.77,-0.042 1.16,-0.042 a 16.576,16.576 0 0 1 6.309,1.237 16.3,16.3 0 0 1 1.754,0.841 2.059,2.059 0 0 1 1.073,1.802 z"
             transform="translate(1185.804,-672.242)"
             fill="#cccccc" />
        </g>
        <g
           id="Group_132"
           data-name="Group 132"
           transform="translate(2.917,0.055)"
           opacity="0.2">
          <path
             id="Path_180"
             data-name="Path 180"
             d="m -1171.206,672.378 v 87.569 a 16.431,16.431 0 0 1 -5.057,-1.156 v -85.256 a 16.443,16.443 0 0 1 5.057,-1.157 z"
             transform="translate(1176.263,-672.378)"
             fill="#ffffff" />
        </g>
        <g
           id="Group_133"
           data-name="Group 133"
           transform="translate(15.442,1.612)"
           opacity="0.09"
           style="isolation:isolate;mix-blend-mode:multiply">
          <path
             id="Path_181"
             data-name="Path 181"
             d="m -1132.463,678.874 v 79.216 a 2.038,2.038 0 0 1 -1.073,1.785 15.66,15.66 0 0 1 -1.754,0.831 v -84.451 a 16.376,16.376 0 0 1 1.754,0.833 2.038,2.038 0 0 1 1.073,1.786 z"
             transform="translate(1135.29,-676.255)" />
        </g>
        <g
           id="Group_134"
           data-name="Group 134"
           transform="translate(0,2.98)"
           opacity="0.09"
           style="isolation:isolate;mix-blend-mode:multiply">
          <path
             id="Path_182"
             data-name="Path 182"
             d="m -1185.044,679.662 v 81.715 a 2,2 0 0 1 -0.76,-1.562 v -78.588 a 2.007,2.007 0 0 1 0.76,-1.565 z"
             transform="translate(1185.804,-679.662)" />
        </g>
      </g>
      <g
         id="Group_144"
         data-name="Group 144"
         transform="translate(-1424.01,285.345)">
        <g
           id="Group_136"
           data-name="Group 136"
           transform="translate(119.316)">
          <path
             id="Path_183"
             data-name="Path 183"
             d="m -973.5,640.488 1.144,-44.329 0.007,-0.252 h 0.371 l 0.006,0.252 1.144,44.329 0.045,1.755 h -2.763 z"
             transform="translate(973.544,-595.906)"
             fill="#cccccc" />
        </g>
        <g
           id="Group_137"
           data-name="Group 137"
           transform="translate(5.247)">
          <path
             id="Path_184"
             data-name="Path 184"
             d="m -1346.637,640.488 1.144,-44.329 0.01,-0.252 h 0.371 l 0.01,0.252 1.144,44.329 0.045,1.755 h -2.763 z"
             transform="translate(1346.682,-595.906)"
             fill="#cccccc" />
        </g>
        <g
           id="Group_140"
           data-name="Group 140"
           transform="translate(117.992,25.785)">
          <g
             id="Group_138"
             data-name="Group 138">
            <path
               id="Path_185"
               data-name="Path 185"
               d="m -968.741,663.953 v 79.108 a 2.035,2.035 0 0 1 -1.073,1.783 15.714,15.714 0 0 1 -1.754,0.829 16.649,16.649 0 0 1 -6.306,1.228 v -86.788 a 16.7,16.7 0 0 1 6.306,1.225 16.341,16.341 0 0 1 1.754,0.832 2.035,2.035 0 0 1 1.073,1.783 z"
               transform="translate(977.874,-660.113)"
               fill="#cccccc" />
          </g>
          <g
             id="Group_139"
             data-name="Group 139"
             transform="translate(6.306,1.614)"
             opacity="0.09"
             style="isolation:isolate;mix-blend-mode:multiply">
            <path
               id="Path_186"
               data-name="Path 186"
               d="M -954.42,666.722 V 745.1 a 2.013,2.013 0 0 1 -1.073,1.766 15.811,15.811 0 0 1 -1.754,0.822 v -83.557 a 16.425,16.425 0 0 1 1.754,0.825 2.014,2.014 0 0 1 1.073,1.766 z"
               transform="translate(957.247,-664.131)" />
          </g>
        </g>
        <g
           id="Group_143"
           data-name="Group 143"
           transform="translate(0,25.785)">
          <g
             id="Group_141"
             data-name="Group 141">
            <path
               id="Path_187"
               data-name="Path 187"
               d="m -1363.847,744.367 v -80.354 a 2.072,2.072 0 0 1 1.073,-1.811 15.653,15.653 0 0 1 1.754,-0.842 16.425,16.425 0 0 1 6.306,-1.247 v 88.154 a 16.482,16.482 0 0 1 -6.306,-1.244 16.168,16.168 0 0 1 -1.754,-0.845 2.072,2.072 0 0 1 -1.073,-1.811 z"
               transform="translate(1363.847,-660.113)"
               fill="#cccccc" />
          </g>
          <g
             id="Group_142"
             data-name="Group 142"
             transform="translate(0,1.614)"
             opacity="0.2">
            <path
               id="Path_188"
               data-name="Path 188"
               d="m -1363.847,746.424 v -79.663 a 2.051,2.051 0 0 1 1.073,-1.8 15.679,15.679 0 0 1 1.754,-0.835 v 84.927 a 16.325,16.325 0 0 1 -1.754,-0.838 2.052,2.052 0 0 1 -1.073,-1.791 z"
               transform="translate(1363.847,-664.131)"
               fill="#ffffff" />
          </g>
        </g>
      </g>
      <g
         id="Group_145"
         data-name="Group 145"
         transform="translate(-1424.646,189.715)">
        <path
           id="Path_189"
           data-name="Path 189"
           d="m -1299.849,428.548 -66.08,-69.237 0.928,-1.529 65.124,68.235 61.387,-68.239 0.962,1.493 z"
           transform="translate(1365.929,-357.777)"
           fill="#3f3f3f" />
      </g>
      <g
         id="Group_151"
         data-name="Group 151"
         transform="translate(-1371.091,164.781)">
        <g
           id="Group_146"
           data-name="Group 146">
          <path
             id="Path_190"
             data-name="Path 190"
             d="M -1169.453,299.565 V 379.4 a 2.036,2.036 0 0 1 -1.251,1.8 19.786,19.786 0 0 1 -2.044,0.837 22.062,22.062 0 0 1 -7.351,1.239 c -0.454,0 -0.9,-0.013 -1.351,-0.042 a 21.853,21.853 0 0 1 -5.892,-1.156 20.692,20.692 0 0 1 -2.148,-0.876 2.3,2.3 0 0 1 -0.365,-0.215 1.946,1.946 0 0 1 -0.886,-1.587 v -79.835 a 1.956,1.956 0 0 1 0.886,-1.59 2.267,2.267 0 0 1 0.365,-0.213 20.692,20.692 0 0 1 2.148,-0.876 21.872,21.872 0 0 1 5.892,-1.156 c 0.447,-0.029 0.9,-0.042 1.351,-0.042 a 22.147,22.147 0 0 1 7.351,1.236 20.579,20.579 0 0 1 2.044,0.84 2.036,2.036 0 0 1 1.251,1.801 z"
             transform="translate(1190.74,-295.689)"
             fill="#cccccc" />
        </g>
        <g
           id="Group_147"
           data-name="Group 147">
          <path
             id="Path_191"
             data-name="Path 191"
             d="M -1169.453,299.565 V 379.4 a 2.036,2.036 0 0 1 -1.251,1.8 19.786,19.786 0 0 1 -2.044,0.837 22.062,22.062 0 0 1 -7.351,1.239 c -0.454,0 -0.9,-0.013 -1.351,-0.042 a 21.853,21.853 0 0 1 -5.892,-1.156 20.692,20.692 0 0 1 -2.148,-0.876 2.3,2.3 0 0 1 -0.365,-0.215 1.946,1.946 0 0 1 -0.886,-1.587 v -79.835 a 1.956,1.956 0 0 1 0.886,-1.59 2.267,2.267 0 0 1 0.365,-0.213 20.692,20.692 0 0 1 2.148,-0.876 21.872,21.872 0 0 1 5.892,-1.156 c 0.447,-0.029 0.9,-0.042 1.351,-0.042 a 22.147,22.147 0 0 1 7.351,1.236 20.579,20.579 0 0 1 2.044,0.84 2.036,2.036 0 0 1 1.251,1.801 z"
             transform="translate(1190.74,-295.689)"
             fill="#cccccc" />
        </g>
        <g
           id="Group_148"
           data-name="Group 148"
           transform="translate(3.398,0.063)"
           opacity="0.2">
          <path
             id="Path_192"
             data-name="Path 192"
             d="m -1173.731,295.847 v 87.463 a 21.861,21.861 0 0 1 -5.892,-1.155 V 297 a 21.881,21.881 0 0 1 5.892,-1.153 z"
             transform="translate(1179.623,-295.847)"
             fill="#ffffff" />
        </g>
        <g
           id="Group_149"
           data-name="Group 149"
           transform="translate(17.993,1.877)"
           opacity="0.09"
           style="isolation:isolate;mix-blend-mode:multiply">
          <path
             id="Path_193"
             data-name="Path 193"
             d="M -1128.588,302.964 V 381.6 a 2.006,2.006 0 0 1 -1.251,1.772 19.923,19.923 0 0 1 -2.044,0.824 v -83.83 a 20.739,20.739 0 0 1 2.044,0.828 2.006,2.006 0 0 1 1.251,1.77 z"
             transform="translate(1131.882,-300.364)" />
        </g>
        <g
           id="Group_150"
           data-name="Group 150"
           transform="translate(0,3.472)"
           opacity="0.09"
           style="isolation:isolate;mix-blend-mode:multiply">
          <path
             id="Path_194"
             data-name="Path 194"
             d="m -1189.854,304.334 v 80.642 a 1.879,1.879 0 0 1 -0.886,-1.542 v -77.555 a 1.888,1.888 0 0 1 0.886,-1.545 z"
             transform="translate(1190.74,-304.334)" />
        </g>
      </g>
      <g
         id="Group_166"
         data-name="Group 166"
         transform="translate(-1409.856,129.807)">
        <g
           id="Group_159"
           data-name="Group 159"
           transform="translate(0,28.823)">
          <g
             id="Group_154"
             data-name="Group 154">
            <path
               id="Path_197"
               data-name="Path 197"
               d="m -1298.789,284.044 v 75.613 a 1.932,1.932 0 0 1 -1.1,1.7 16.729,16.729 0 0 1 -1.8,0.793 18.222,18.222 0 0 1 -6.478,1.174 c -0.4,0 -0.8,-0.012 -1.191,-0.04 a 18.08,18.08 0 0 1 -5.192,-1.094 17.5,17.5 0 0 1 -1.893,-0.829 2,2 0 0 1 -0.321,-0.2 1.879,1.879 0 0 1 -0.781,-1.5 v -75.617 a 1.889,1.889 0 0 1 0.781,-1.506 1.974,1.974 0 0 1 0.321,-0.2 17.515,17.515 0 0 1 1.893,-0.829 18.1,18.1 0 0 1 5.192,-1.094 c 0.394,-0.027 0.791,-0.04 1.191,-0.04 a 18.293,18.293 0 0 1 6.478,1.171 17.407,17.407 0 0 1 1.8,0.8 1.932,1.932 0 0 1 1.1,1.698 z"
               transform="translate(1317.546,-280.373)"
               fill="#cccccc" />
          </g>
          <g
             id="Group_155"
             data-name="Group 155">
            <path
               id="Path_198"
               data-name="Path 198"
               d="m -1298.789,284.044 v 75.613 a 1.932,1.932 0 0 1 -1.1,1.7 16.729,16.729 0 0 1 -1.8,0.793 18.222,18.222 0 0 1 -6.478,1.174 c -0.4,0 -0.8,-0.012 -1.191,-0.04 a 18.08,18.08 0 0 1 -5.192,-1.094 17.5,17.5 0 0 1 -1.893,-0.829 2,2 0 0 1 -0.321,-0.2 1.879,1.879 0 0 1 -0.781,-1.5 v -75.617 a 1.889,1.889 0 0 1 0.781,-1.506 1.974,1.974 0 0 1 0.321,-0.2 17.515,17.515 0 0 1 1.893,-0.829 18.1,18.1 0 0 1 5.192,-1.094 c 0.394,-0.027 0.791,-0.04 1.191,-0.04 a 18.293,18.293 0 0 1 6.478,1.171 17.407,17.407 0 0 1 1.8,0.8 1.932,1.932 0 0 1 1.1,1.698 z"
               transform="translate(1317.546,-280.373)"
               fill="#cccccc" />
          </g>
          <g
             id="Group_156"
             data-name="Group 156"
             transform="translate(2.995,0.063)"
             opacity="0.2">
            <path
               id="Path_199"
               data-name="Path 199"
               d="m -1302.558,280.531 v 82.827 a 18.09,18.09 0 0 1 -5.192,-1.094 v -80.639 a 18.106,18.106 0 0 1 5.192,-1.094 z"
               transform="translate(1307.75,-280.531)"
               fill="#ffffff" />
          </g>
          <g
             id="Group_157"
             data-name="Group 157"
             transform="translate(15.855,1.877)"
             opacity="0.09"
             style="isolation:isolate;mix-blend-mode:multiply">
            <path
               id="Path_200"
               data-name="Path 200"
               d="m -1262.78,287.5 v 74.285 a 1.9,1.9 0 0 1 -1.1,1.674 16.858,16.858 0 0 1 -1.8,0.779 v -79.19 a 17.552,17.552 0 0 1 1.8,0.782 1.9,1.9 0 0 1 1.1,1.67 z"
               transform="translate(1265.683,-285.048)" />
          </g>
          <g
             id="Group_158"
             data-name="Group 158"
             transform="translate(0,3.472)"
             opacity="0.09"
             style="isolation:isolate;mix-blend-mode:multiply">
            <path
               id="Path_201"
               data-name="Path 201"
               d="m -1316.765,289.018 v 76.006 a 1.8,1.8 0 0 1 -0.781,-1.453 v -73.1 a 1.808,1.808 0 0 1 0.781,-1.453 z"
               transform="translate(1317.546,-289.018)" />
          </g>
        </g>
        <g
           id="Group_165"
           data-name="Group 165"
           transform="translate(80.059,28.823)">
          <g
             id="Group_160"
             data-name="Group 160">
            <path
               id="Path_202"
               data-name="Path 202"
               d="m -1036.9,284.044 v 75.613 a 1.932,1.932 0 0 1 -1.1,1.7 16.7,16.7 0 0 1 -1.8,0.793 18.224,18.224 0 0 1 -6.478,1.174 c -0.4,0 -0.8,-0.012 -1.19,-0.04 a 18.085,18.085 0 0 1 -5.192,-1.094 17.528,17.528 0 0 1 -1.893,-0.829 2,2 0 0 1 -0.321,-0.2 1.879,1.879 0 0 1 -0.781,-1.5 v -75.617 a 1.889,1.889 0 0 1 0.781,-1.506 1.976,1.976 0 0 1 0.321,-0.2 17.541,17.541 0 0 1 1.893,-0.829 18.1,18.1 0 0 1 5.192,-1.094 c 0.394,-0.027 0.79,-0.04 1.19,-0.04 a 18.294,18.294 0 0 1 6.478,1.171 17.379,17.379 0 0 1 1.8,0.8 1.932,1.932 0 0 1 1.1,1.698 z"
               transform="translate(1055.658,-280.373)"
               fill="#cccccc" />
          </g>
          <g
             id="Group_161"
             data-name="Group 161">
            <path
               id="Path_203"
               data-name="Path 203"
               d="m -1036.9,284.044 v 75.613 a 1.932,1.932 0 0 1 -1.1,1.7 16.7,16.7 0 0 1 -1.8,0.793 18.224,18.224 0 0 1 -6.478,1.174 c -0.4,0 -0.8,-0.012 -1.19,-0.04 a 18.085,18.085 0 0 1 -5.192,-1.094 17.528,17.528 0 0 1 -1.893,-0.829 2,2 0 0 1 -0.321,-0.2 1.879,1.879 0 0 1 -0.781,-1.5 v -75.617 a 1.889,1.889 0 0 1 0.781,-1.506 1.976,1.976 0 0 1 0.321,-0.2 17.541,17.541 0 0 1 1.893,-0.829 18.1,18.1 0 0 1 5.192,-1.094 c 0.394,-0.027 0.79,-0.04 1.19,-0.04 a 18.294,18.294 0 0 1 6.478,1.171 17.379,17.379 0 0 1 1.8,0.8 1.932,1.932 0 0 1 1.1,1.698 z"
               transform="translate(1055.658,-280.373)"
               fill="#cccccc" />
          </g>
          <g
             id="Group_162"
             data-name="Group 162"
             transform="translate(2.994,0.063)"
             opacity="0.2">
            <path
               id="Path_204"
               data-name="Path 204"
               d="m -1040.671,280.531 v 82.827 a 18.092,18.092 0 0 1 -5.192,-1.094 v -80.639 a 18.109,18.109 0 0 1 5.192,-1.094 z"
               transform="translate(1045.863,-280.531)"
               fill="#ffffff" />
          </g>
          <g
             id="Group_163"
             data-name="Group 163"
             transform="translate(15.855,1.877)"
             opacity="0.09"
             style="isolation:isolate;mix-blend-mode:multiply">
            <path
               id="Path_205"
               data-name="Path 205"
               d="m -1000.892,287.5 v 74.285 a 1.9,1.9 0 0 1 -1.1,1.674 16.861,16.861 0 0 1 -1.8,0.779 v -79.19 a 17.554,17.554 0 0 1 1.8,0.782 1.9,1.9 0 0 1 1.1,1.67 z"
               transform="translate(1003.795,-285.048)" />
          </g>
          <g
             id="Group_164"
             data-name="Group 164"
             transform="translate(0,3.472)"
             opacity="0.09"
             style="isolation:isolate;mix-blend-mode:multiply">
            <path
               id="Path_206"
               data-name="Path 206"
               d="m -1054.877,289.018 v 76.006 a 1.8,1.8 0 0 1 -0.781,-1.453 v -73.1 a 1.808,1.808 0 0 1 0.781,-1.453 z"
               transform="translate(1055.658,-289.018)" />
          </g>
        </g>
      </g>
      <g
         id="Group_169"
         data-name="Group 169"
         transform="translate(-1417.309,190.115)">
        <g
           id="Group_167"
           data-name="Group 167">
          <rect
             id="Rectangle_41"
             data-name="Rectangle 41"
             width="1.489"
             height="70.082001"
             fill="#3f3f3f"
             x="0"
             y="0" />
        </g>
        <g
           id="Group_168"
           data-name="Group 168"
           transform="translate(112.234)">
          <rect
             id="Rectangle_42"
             data-name="Rectangle 42"
             width="1.489"
             height="70.082001"
             fill="#3f3f3f"
             x="0"
             y="0" />
        </g>
      </g>
      <g
         id="Group_174"
         data-name="Group 174"
         transform="translate(-1450.5,436.511)">
        <g
           id="Group_170"
           data-name="Group 170"
           transform="translate(9.5,21.648)">
          <rect
             id="Rectangle_43"
             data-name="Rectangle 43"
             width="82.414001"
             height="4.8899999"
             fill="#3f3f3f"
             x="0"
             y="0" />
        </g>
        <g
           id="Group_171"
           data-name="Group 171"
           transform="translate(26.336,4.423)">
          <path
             id="Path_207"
             data-name="Path 207"
             d="m -1351.18,1022.4 h -13.17 v -39.059 h 13.17 z m -11.682,-1.957 h 10.193 V 985.3 h -10.193 z"
             transform="translate(1364.35,-983.341)"
             fill="#3f3f3f" />
        </g>
        <g
           id="Group_172"
           data-name="Group 172">
          <path
             id="Path_208"
             data-name="Path 208"
             d="m -1417.289,996.419 c 0,13.31 -7.435,24.095 -16.605,24.095 a 12.718,12.718 0 0 1 -7.968,-2.954 c -5.147,-4.089 -8.638,-12.023 -8.638,-21.141 0,-13.306 7.436,-24.091 16.606,-24.091 a 11.808,11.808 0 0 1 4.37,0.845 c 7.049,2.778 12.235,12.134 12.235,23.246 z"
             transform="translate(1450.5,-972.328)"
             fill="#cccccc" />
        </g>
        <g
           id="Group_173"
           data-name="Group 173"
           opacity="0.2">
          <path
             id="Path_209"
             data-name="Path 209"
             d="m -1422.728,1003.388 c -3.457,11.79 -11.9,17.951 -19.134,14.172 -5.147,-4.089 -8.638,-12.023 -8.638,-21.141 0,-13.306 7.436,-24.091 16.606,-24.091 a 11.808,11.808 0 0 1 4.37,0.845 c 7.302,4.621 10.346,18.106 6.796,30.215 z"
             transform="translate(1450.5,-972.328)"
             fill="#ffffff" />
        </g>
      </g>
      <g
         id="Group_177"
         data-name="Group 177"
         transform="translate(-1407.891,325.789)">
        <g
           id="Group_175"
           data-name="Group 175">
          <rect
             id="Rectangle_44"
             data-name="Rectangle 44"
             width="1.489"
             height="84.875"
             fill="#3f3f3f"
             x="0"
             y="0" />
        </g>
        <g
           id="Group_176"
           data-name="Group 176"
           transform="translate(93.398)">
          <rect
             id="Rectangle_45"
             data-name="Rectangle 45"
             width="1.489"
             height="84.875"
             fill="#3f3f3f"
             x="0"
             y="0" />
        </g>
      </g>
      <g
         id="Group_178"
         data-name="Group 178"
         transform="translate(-1361.829,285.345)">
        <path
           id="Path_210"
           data-name="Path 210"
           d="m -1160.4,640.488 1.144,-44.329 0.01,-0.252 h 0.371 l 0.01,0.252 1.144,44.329 0.045,1.755 h -2.763 z"
           transform="translate(1160.442,-595.906)"
           fill="#cccccc" />
      </g>
    </g>
  </g>
</svg>
